<svg width="144" height="24" viewBox="0 0 144 24" xmlns="http://www.w3.org/2000/svg"><title>icon-footer-social</title><desc>Created with Sketch.</desc><g fill="#708EAC"><path d="M99 5.993C99 4.34 100.353 3 101.993 3h12.014C115.66 3 117 4.353 117 5.993v12.014c0 1.653-1.353 2.993-2.993 2.993h-12.014C100.34 21 99 19.647 99 18.007V5.993zM105 16l7-3.986L105 8v8zM84 17.2c-2.88 0-5.2-2.36-5.2-5.2 0-.36.04-.68.08-1h-3.8v7.284c0 1.48 1.2 2.72 2.68 2.72h12.547c1.48 0 2.68-1.24 2.68-2.72V11H89.08c.08.32.12.64.12 1 0 2.84-2.36 5.2-5.2 5.2zm6.3-14.135H77.75c-1.48 0-2.68 1.2-2.68 2.68V9h4.69c.92-1.36 2.48-2.2 4.24-2.2 1.76 0 3.28.84 4.24 2.2h4.74V5.745c0-1.48-1.58-2.68-3.06-2.68h.38zM91 6.6c0 .2-.167.4-.4.4h-1.2c-.2 0-.4-.2-.4-.4V5.4c0-.233.2-.4.4-.4h1.2c.233 0 .4.167.4.4v1.2zM87.2 12c0-1.8-1.44-3.2-3.2-3.2-1.76 0-3.2 1.4-3.2 3.2 0 1.76 1.44 3.2 3.2 3.2 1.76 0 3.2-1.44 3.2-3.2zM17 6.12V3h-2.84c-2.36 0-4.12 2-4.12 4.48V9.2H7V12h3.04v9h3.4v-9H17V9.2h-3.56V7.16c0-.6.36-1.04.72-1.04H17zM45.7 6.28c-.68.28-1.4.48-2.16.6.76-.48 1.36-1.2 1.64-2.08-.72.4-1.52.72-2.4.88-.68-.72-1.64-1.16-2.72-1.16-2.12 0-3.8 1.68-3.8 3.76 0 .28.04.6.12.84-3.16-.12-5.92-1.64-7.8-3.92-.32.56-.52 1.2-.52 1.88 0 1.32.68 2.48 1.68 3.16-.6-.04-1.2-.2-1.68-.48v.04c0 1.84 1.28 3.36 3 3.72-.32.08-.64.12-1 .12-.24 0-.48 0-.68-.08.48 1.52 1.88 2.6 3.52 2.64-1.28 1-2.92 1.6-4.68 1.6-.32 0-.64 0-.92-.04 1.68 1.08 3.64 1.68 5.8 1.68 6.92 0 10.72-5.72 10.72-10.72v-.48c.72-.56 1.36-1.2 1.88-1.96zM52 7.56c0 1.52.48 2.6 1.48 3.2.8.52 1.72.6 2.2.6h.28s-.12 1 .6 2h-.04c-1.28 0-5.48.28-5.48 3.72 0 3.52 3.88 3.72 4.64 3.72.04 0 .08-.04.08-.04.04 0 .08.04.16.04.52 0 1.8-.08 3-.68 1.52-.72 2.32-2.04 2.32-3.88 0-1.76-1.2-2.8-2.08-3.56-.52-.48-1-.88-1-1.28s.36-.68.76-1.08c.72-.6 1.36-1.48 1.36-3.16 0-1.44-.2-2.44-1.36-3.04.12-.08.56-.12.76-.12.64-.12 1.56-.2 1.56-.72V3.2h-4.6c-.04 0-4.64.16-4.64 4.36zm7.4 9.04c.12 1.4-1.12 2.44-2.92 2.56-1.84.12-3.32-.68-3.44-2.08-.04-.68.28-1.36.84-1.88.6-.52 1.4-.88 2.28-.92h.32c1.72 0 2.84.96 2.92 2.32zm-1.2-10c.48 1.6-.2 3.24-1.32 3.56-.12.04-.24.04-.36.04-1 0-2-1-2.36-2.36-.2-.8-.16-1.48.04-2.12.24-.64.64-1.08 1.16-1.24.16-.04.28-.04.4-.04 1.2 0 1.96.48 2.44 2.16zm7.76 3.48v-3h-1.88v3h-3v1.88h3v3h1.88v-3h3v-1.88h-3zM130.64 15.2c.92.6 1.44 1.2 2.68 1.28 4.48.36 7-4.48 6.36-8.92-.52-3.96-4.48-6-8.68-5.52-3.32.4-6.64 3.08-6.76 6.92-.08 2.32.56 4.08 2.8 4.6.96-1.72-.32-2.08-.52-3.32-.8-5.08 5.84-8.52 9.32-5 2.44 2.44.84 10-3.04 9.2-3.72-.76 1.8-6.76-1.16-7.92-2.4-.96-3.68 2.92-2.56 4.84-.68 3.32-2.12 6.44-1.52 10.64 1.88-1.4 2.52-4.04 3.08-6.8z"/></g></svg>