<?xml version="1.0" encoding="UTF-8" standalone="no"?>
<svg width="144px" height="24px" viewBox="0 0 144 24" version="1.1" xmlns="http://www.w3.org/2000/svg" xmlns:xlink="http://www.w3.org/1999/xlink" xmlns:sketch="http://www.bohemiancoding.com/sketch/ns">
    <!-- Generator: Sketch 3.2.2 (9983) - http://www.bohemiancoding.com/sketch -->
    <title>icon-footer-social</title>
    <desc>Created with Sketch.</desc>
    <defs></defs>
    <g id="Page-1" stroke="none" stroke-width="1" fill="none" fill-rule="evenodd" sketch:type="MSPage">
        <g id="icon-footer-social" sketch:type="MSArtboardGroup" fill="#708EAC">
            <path d="M99,5.99253976 C99,4.33980569 100.352926,3 101.99254,3 L114.00746,3 C115.660194,3 117,4.35292554 117,5.99253976 L117,18.0074602 C117,19.6601943 115.647074,21 114.00746,21 L101.99254,21 C100.339806,21 99,19.6470745 99,18.0074602 L99,5.99253976 Z M105,16 L112,12.0139373 L105,8 L105,16 Z" id="Rectangle-115" sketch:type="MSShapeGroup"></path>
            <path d="M84,17.2 C81.12,17.2 78.8,14.84 78.8,12 C78.8,11.64 78.84,11.32 78.88,11 L75.0806641,11 L75.0807421,18.2843945 C75.0807421,19.7643945 76.2807421,21.0043945 77.7607421,21.0043945 L90.3069632,21.0043949 C91.7869632,21.0043949 92.9869632,19.7643949 92.9869632,18.2843949 L92.9868851,11.0000004 L89.08,11 C89.16,11.32 89.2,11.64 89.2,12 C89.2,14.84 86.84,17.2 84,17.2 Z M90.3004696,3.06469725 L77.7486035,3.06469732 C76.2686035,3.06469732 75.0686035,4.26469732 75.0686035,5.74469732 L75.0686031,9.00000006 L79.76,9 C80.68,7.64 82.24,6.8 84,6.8 C85.76,6.8 87.28,7.64 88.24,9 L92.9804691,8.99999999 L92.9804696,5.74469725 C92.9804696,4.26469725 91.4000005,3.06469726 89.9200005,3.06469726 L90.3004696,3.06469725 Z M91,6.6 C91,6.8 90.8333333,7 90.6,7 L89.4,7 C89.2,7 89,6.8 89,6.6 L89,5.4 C89,5.16666667 89.2,5 89.4,5 L90.6,5 C90.8333333,5 91,5.16666667 91,5.4 L91,6.6 Z M87.2,12 C87.2,10.2 85.76,8.8 84,8.8 C82.24,8.8 80.8,10.2 80.8,12 C80.8,13.76 82.24,15.2 84,15.2 C85.76,15.2 87.2,13.76 87.2,12 L87.2,12 Z" id="" sketch:type="MSShapeGroup"></path>
            <path d="M17,6.12 L17,3 L14.16,3 C11.8,3 10.04,5 10.04,7.48 L10.04,9.2 L7,9.2 L7,12 L10.04,12 L10.04,21 L13.44,21 L13.44,12 L17,12 L17,9.2 L13.44,9.2 L13.44,7.16 C13.44,6.56 13.8,6.12 14.16,6.12 L17,6.12 Z" id="" sketch:type="MSShapeGroup"></path>
            <path d="M45.7,6.28 C45.02,6.56 44.3,6.76 43.54,6.88 C44.3,6.4 44.9,5.68 45.18,4.8 C44.46,5.2 43.66,5.52 42.78,5.68 C42.1,4.96 41.14,4.52 40.06,4.52 C37.94,4.52 36.26,6.2 36.26,8.28 C36.26,8.56 36.3,8.88 36.38,9.12 C33.22,9 30.46,7.48 28.58,5.2 C28.26,5.76 28.06,6.4 28.06,7.08 C28.06,8.4 28.74,9.56 29.74,10.24 C29.14,10.2 28.54,10.04 28.06,9.76 L28.06,9.8 C28.06,11.64 29.34,13.16 31.06,13.52 C30.74,13.6 30.42,13.64 30.06,13.64 C29.82,13.64 29.58,13.64 29.38,13.56 C29.86,15.08 31.26,16.16 32.9,16.2 C31.62,17.2 29.98,17.8 28.22,17.8 C27.9,17.8 27.58,17.8 27.3,17.76 C28.98,18.84 30.94,19.44 33.1,19.44 C40.02,19.44 43.82,13.72 43.82,8.72 L43.82,8.24 C44.54,7.68 45.18,7.04 45.7,6.28 L45.7,6.28 Z" id="" sketch:type="MSShapeGroup"></path>
            <path d="M52,7.56 C52,9.08 52.48,10.16 53.48,10.76 C54.28,11.28 55.2,11.36 55.68,11.36 L55.96,11.36 C55.96,11.36 55.84,12.36 56.56,13.36 L56.52,13.36 C55.24,13.36 51.04,13.64 51.04,17.08 C51.04,20.6 54.92,20.8 55.68,20.8 C55.72,20.8 55.76,20.76 55.76,20.76 C55.8,20.76 55.84,20.8 55.92,20.8 C56.44,20.8 57.72,20.72 58.92,20.12 C60.44,19.4 61.24,18.08 61.24,16.24 C61.24,14.48 60.04,13.44 59.16,12.68 C58.64,12.2 58.16,11.8 58.16,11.4 C58.16,11 58.52,10.72 58.92,10.32 C59.64,9.72 60.28,8.84 60.28,7.16 C60.28,5.72 60.08,4.72 58.92,4.12 C59.04,4.04 59.48,4 59.68,4 C60.32,3.88 61.24,3.8 61.24,3.28 L61.24,3.2 L56.64,3.2 C56.6,3.2 52,3.36 52,7.56 L52,7.56 Z M59.4,16.6 C59.52,18 58.28,19.04 56.48,19.16 C54.64,19.28 53.16,18.48 53.04,17.08 C53,16.4 53.32,15.72 53.88,15.2 C54.48,14.68 55.28,14.32 56.16,14.28 L56.48,14.28 C58.2,14.28 59.32,15.24 59.4,16.6 L59.4,16.6 Z M58.2,6.6 C58.68,8.2 58,9.84 56.88,10.16 C56.76,10.2 56.64,10.2 56.52,10.2 C55.52,10.2 54.52,9.2 54.16,7.84 C53.96,7.04 54,6.36 54.2,5.72 C54.44,5.08 54.84,4.64 55.36,4.48 C55.52,4.44 55.64,4.44 55.76,4.44 C56.96,4.44 57.72,4.92 58.2,6.6 L58.2,6.6 Z M65.96,10.08 L65.96,7.08 L64.08,7.08 L64.08,10.08 L61.08,10.08 L61.08,11.96 L64.08,11.96 L64.08,14.96 L65.96,14.96 L65.96,11.96 L68.96,11.96 L68.96,10.08 L65.96,10.08 Z" id="" sketch:type="MSShapeGroup"></path>
            <path d="M130.64,15.2 C131.56,15.8 132.08,16.4 133.32,16.48 C137.8,16.84 140.32,12 139.68,7.56 C139.16,3.6 135.2,1.56 131,2.04 C127.68,2.44 124.36,5.12 124.24,8.96 C124.16,11.28 124.8,13.04 127.04,13.56 C128,11.84 126.72,11.48 126.52,10.24 C125.72,5.16 132.36,1.72 135.84,5.24 C138.28,7.68 136.68,15.24 132.8,14.44 C129.08,13.68 134.6,7.68 131.64,6.52 C129.24,5.56 127.96,9.44 129.08,11.36 C128.4,14.68 126.96,17.8 127.56,22 C129.44,20.6 130.08,17.96 130.64,15.2 L130.64,15.2 Z" id="" sketch:type="MSShapeGroup"></path>
        </g>
    </g>
</svg>