<svg xmlns="http://www.w3.org/2000/svg" width="112" height="16" viewBox="0 0 112 16"><title>icon-topnav</title><desc>Created with Sketch.</desc><path fill="#fff" d="M36 6.1V1h-2v3.142L30.616.826c-.398-.37-.9-.566-1.41-.608L29 0l-.15.2c-.526.035-1.042.233-1.45.612L19 9.062l1.047 1.138 5.78-5.665L22 10v5.01c0 .49.5.99 1 .99h4v-5h4v5h3.99C35.55 16 36 15.552 36 15L36 8.192l2.028 1.987L39 9.04 36 6.1zM57 0H41c-.552 0-1 .448-1 1v10c0 .6.4 1 1 1h16c.552 0 1-.448 1-1V1c0-.6-.4-1-1-1zm0 8c0 .552-.448 1-1 1H42c-.552 0-1-.448-1-1V2c0-.552.448-1 1-1h14c.552 0 1 .4 1 1v6zM42 8h14V2H42v6zm7-5c1.105 0 2 .9 2 2s-.895 2-2 2-2-.895-2-2 .895-2 2-2zM58 2h2V0h-2v2zm0 4h2V4h-2v2zm4-6v2h10V0H62zm0 6h8V4h-8v2zm-4 4h2V8h-2v2zm4 0h8V8h-8v2z"/><path fill="#FF37FF" d="M84 0z"/><path fill="#fff" d="M84 0v6l-1.512-1.046L81 6V0h-6.994C72.896 0 72 .9 72 1.994v12.012c0 1.1.9 2 2 2h9.988C85.103 16 86 15.1 86 14.006V14H75.003C74.45 14 74 13.6 74 13c0-.552.456-1 1.003-1H84s.775-.195 1.275-.694c.5-.5.725-1.3.725-1.3V1.993C86 .9 85.1 0 84 0zM0 11c0 .6.4 1 1 1h16c.552 0 1-.448 1-1V5H0v6zm7-3h2v2H7V8zM2 8h4v2H2V8zm15-8H1C.448 0 0 .4 0 1v2h18V1c0-.6-.4-1-1-1z"/><path fill="#708EAC" d="M93.263 6L98 10.737 96.737 12 92 7.263 87.263 12 86 10.737 90.737 6 86 1.263 87.263 0 92 4.737 96.737 0 98 1.263 93.263 6z"/><path fill="#2C96B9" d="M102.437 10.163c-.91-.91-1.47-1.713-3.462-.105-1.993 1.61-.455 2.7.4 3.567 1.014 1 4.8 0 8.532-3.707 3.742-3.707 4.686-7.518 3.672-8.532-.875-.874-1.924-2.413-3.533-.385-1.61 1.994-.84 2.6.1 3.463.63.63-.7 2.238-2.063 3.6-1.41 1.437-2.984 2.737-3.684 2.1z"/></svg>