<svg width="98" height="16" viewBox="0 0 98 16" xmlns="http://www.w3.org/2000/svg"><title>icon-navbar</title><desc>Created with Sketch.</desc><g fill="none"><g fill="#fff"><path d="M38.028 10.18l-8.384-8.216c-.3-.303-.897-.303-1.196 0l-8.4 8.236L19 9.062 27.4.826c.898-.835 2.32-.835 3.216 0L39 9.04l-.972 1.14z" stroke="#fff" stroke-width=".4"/><path d="M34 1h2v13h-2z"/><path d="M31 16h3.99c.557 0 1.007-.448 1.007-1V7.43L29 0l-7 10v5.01c0 .54.45.99 1.007.99H27v-5h4v5z"/><path d="M57 0H41c-.552 0-1 .448-1 1v10c0 .552.448 1 1 1h16c.552 0 1-.448 1-1V1c0-.552-.448-1-1-1zM19 8c0 .552-.448 1-1 1H23c-.552 0-1-.448-1-1V2c0-.552.448-1 1-1h14c.552 0 1 .448 1 1v6zM23 8h14V2H23v6zm7-5c1.105 0 2 .895 2 2s-.895 2-2 2-2-.895-2-2 .895-2 2-2z" id="Imported-Layers"/></g><g fill="#fff"><path d="M58 0h2v2h-2zM58 4h2v2h-2zM62 0h10v2H62zM62 4h8v2h-8z"/><path d="M58 8h2v2h-2z"/><path d="M62 8h8v2h-8z"/></g><path d="M72 1.994C72 .894 72.897 0 74.006 0h9.988C85.102 0 86 .895 86 1.994v12.012c0 1.1-.897 1.994-2.006 1.994h-9.988C72.898 16 72 15.105 72 14.006V1.994zM74 13c0-.552.456-1 1.002-1H86v2H75.002C74.45 14 74 13.556 74 13zm7-13h3v6l-1.512-1.046L81 6V0zm4.275 11.306c.5-.5.725-1.3.725-1.3V12h-2s.775-.195 1.275-.694z" fill="#fff"/><g fill="#fff"><path d="M0 11c0 .552.448 1 1 1h16c.552 0 1-.448 1-1V5H0v6zm7-3h2v2H7V8zM2 8h4v2H2V8z"/><path d="M17 0H1C.448 0 0 .448 0 1v2h18V1c0-.552-.448-1-1-1"/></g><path d="M93.263 6L98 10.737 96.737 12 92 7.263 87.263 12 86 10.737 90.737 6 86 1.263 87.263 0 92 4.737 96.737 0 98 1.263 93.263 6z" fill="#708EAC"/></g></svg>