<svg xmlns="http://www.w3.org/2000/svg" width="400.682" height="71.254" viewBox="0 0 400.682 71.254"><path fill="#1EA0CA" d="M14.74 63.127c-1.51.232-2.88.398-4.102.525-1.22.117-2.322.17-3.312.17-.987 0-2.096-.053-3.315-.17-1.215-.127-2.556-.293-4.01-.525V21.932c1.277-.297 2.546-.5 3.794-.613 1.254-.12 2.452-.177 3.613-.177 1.108 0 2.302.058 3.585.176 1.276.112 2.52.315 3.747.612v41.195z"/><path fill="#07456B" d="M24.36.697c1.223-.172 2.54-.332 3.966-.48C29.75.078 31.07 0 32.286 0c1.17 0 2.434.076 3.804.22 1.36.146 2.623.306 3.79.478l12.38 32.44L65.08.7c1.158-.173 2.336-.333 3.53-.48C69.8.076 70.977 0 72.135 0c1.225 0 2.48.076 3.755.22 1.28.146 2.532.306 3.75.478L82.6 62.95c-.926.178-1.956.355-3.097.525-1.13.178-2.63.264-4.484.264-2.04 0-4.445-.265-7.24-.79l-1.214-36.09-9.602 23.795c-1.044.178-2.09.325-3.135.44s-2.003.173-2.87.173c-.878 0-1.78-.04-2.71-.13-.928-.09-1.89-.25-2.88-.483l-8.546-23.443-.96 35.738c-2.438.525-4.76.79-6.973.79-2.033 0-4.39-.265-7.064-.79L24.36.697zM87.658 40.894c0-3.544.487-6.788 1.44-9.724.96-2.935 2.382-5.447 4.27-7.537 1.89-2.1 4.235-3.71 7.022-4.848 2.786-1.13 6.016-1.692 9.676-1.692 3.724 0 6.98.564 9.768 1.692 2.79 1.14 5.125 2.748 7.016 4.848 1.886 2.09 3.32 4.603 4.272 7.537.96 2.935 1.44 6.18 1.44 9.724 0 3.485-.48 6.664-1.44 9.555-.95 2.87-2.386 5.338-4.272 7.406-1.89 2.06-4.227 3.646-7.016 4.744-2.787 1.105-6.044 1.66-9.768 1.66-3.66 0-6.89-.555-9.676-1.66-2.787-1.098-5.133-2.686-7.02-4.744-1.89-2.068-3.312-4.536-4.273-7.407-.95-2.892-1.44-6.07-1.44-9.556zm29.993 0c0-3.724-.626-6.57-1.874-8.546-1.244-1.973-3.146-2.963-5.71-2.963-2.553 0-4.442.99-5.667 2.963-1.223 1.975-1.827 4.822-1.827 8.546 0 3.663.604 6.487 1.826 8.455 1.224 1.98 3.113 2.97 5.667 2.97 2.562 0 4.465-.988 5.71-2.97 1.247-1.97 1.874-4.793 1.874-8.456zM156.28 17.262c2.555 0 5.118.226 7.68.656 2.553.436 4.86 1.35 6.927 2.748 2.068 1.393 3.747 3.4 5.056 6.018 1.307 2.614 1.968 6.074 1.968 10.37v26.073c-1.517.293-2.88.48-4.103.57-1.226.088-2.303.125-3.23.125-.983 0-2.09-.037-3.306-.125-1.22-.092-2.594-.277-4.1-.57v-24.5c0-3.08-.583-5.29-1.743-6.627-1.168-1.338-2.943-2.006-5.314-2.006-.644 0-1.326.056-2.055.172-.726.116-1.176.23-1.356.348v32.613c-1.506.293-2.87.48-4.092.57-1.222.088-2.3.125-3.23.125-.99 0-2.09-.037-3.312-.125-1.225-.092-2.584-.277-4.093-.57v-42.81c2.025-.693 4.494-1.384 7.403-2.05 2.912-.666 6.543-1.005 10.902-1.005zM255.768 18.138c.465-.116 1.35-.235 2.66-.35 1.31-.114 2.717-.175 4.227-.175 1.922 0 3.63.06 5.147.176 1.514.112 2.59.232 3.23.348l-16.834 29.205v15.784c-1.512.232-2.873.398-4.094.525-1.227.117-2.324.17-3.316.17-.99 0-2.09-.053-3.312-.17-1.225-.127-2.56-.293-4.01-.525V47.343l-16.742-29.205c.64-.116 1.756-.235 3.357-.35 1.595-.114 3.36-.175 5.274-.175 1.516 0 2.994.06 4.447.176 1.452.112 2.407.232 2.876.348l8.547 17.177 8.545-17.177zM273.47 47.607c1.157 0 2.35.06 3.577.176 1.215.117 2.498.266 3.832.434.23 1.34.41 2.615.522 3.84.117 1.216.18 2.41.18 3.566 0 1.164-.062 2.363-.18 3.58-.113 1.22-.29 2.498-.523 3.836-1.335.235-2.618.403-3.833.52-1.227.116-2.42.18-3.578.18-1.16 0-2.354-.063-3.573-.18-1.23-.116-2.502-.284-3.836-.52-.24-1.34-.41-2.616-.522-3.837-.125-1.217-.18-2.416-.18-3.58 0-1.157.055-2.35.18-3.566.113-1.225.283-2.5.523-3.84 1.335-.168 2.608-.316 3.837-.434 1.218-.115 2.412-.176 3.572-.176zM307.21 17.262c2.386 0 4.74.19 7.067.572 2.326.38 4.475 1.146 6.45 2.307 1.517-.747 3.282-1.424 5.317-2.002 2.037-.58 4.326-.876 6.89-.876 2.267 0 4.606.226 7.023.656 2.406.436 4.588 1.35 6.53 2.748 1.952 1.393 3.556 3.4 4.8 6.018 1.254 2.614 1.875 6.074 1.875 10.37v26.073c-1.508.293-2.873.48-4.096.57-1.225.088-2.3.125-3.23.125-.99 0-2.09-.037-3.31-.125-1.224-.092-2.587-.277-4.095-.57v-24.5c0-3.08-.526-5.29-1.57-6.627-1.056-1.338-2.76-2.006-5.15-2.006-.814 0-1.607.088-2.39.265-.79.17-1.33.314-1.62.432.527 2.037.78 4.36.78 6.975v25.46c-1.505.294-2.868.48-4.093.57-1.217.09-2.297.126-3.23.126-.99 0-2.09-.037-3.31-.125-1.226-.092-2.583-.277-4.097-.57v-24.5c0-3.08-.496-5.29-1.484-6.627-.984-1.337-2.672-2.005-5.057-2.005-.644 0-1.315.056-2.05.172-.73.116-1.17.23-1.348.348v32.613c-1.512.293-2.88.48-4.103.57-1.214.088-2.3.125-3.23.125-.98 0-2.09-.037-3.305-.125-1.227-.092-2.596-.277-4.105-.57v-42.81c2.04-.694 4.477-1.385 7.332-2.05 2.844-.667 6.45-1.006 10.81-1.006zM385.426 18.138c.465-.116 1.353-.235 2.654-.35 1.31-.114 2.72-.175 4.234-.175 1.92 0 3.63.06 5.143.176 1.516.112 2.582.232 3.225.348l-16.828 29.205v15.784c-1.51.232-2.87.398-4.094.525-1.225.117-2.332.17-3.314.17-.99 0-2.088-.053-3.31-.17-1.226-.127-2.565-.293-4.013-.525V47.343L352.38 18.138c.634-.116 1.755-.235 3.35-.35 1.604-.114 3.358-.175 5.28-.175 1.51 0 2.995.06 4.442.176 1.455.112 2.418.232 2.88.348l8.546 17.177 8.548-17.177zM7.37.326c1.06 0 2.145.055 3.25.153 1.11.106 2.267.24 3.483.395.21 1.22.37 2.385.473 3.49.107 1.11.163 2.19.163 3.252 0 1.053-.057 2.136-.164 3.24-.102 1.12-.264 2.277-.473 3.487-1.217.215-2.374.372-3.482.48-1.105.1-2.19.152-3.25.152s-2.14-.052-3.242-.153c-1.115-.107-2.276-.265-3.492-.48-.21-1.21-.37-2.367-.473-3.485C.055 9.753 0 8.67 0 7.618c0-1.062.055-2.144.163-3.252.1-1.106.264-2.27.473-3.49C1.852.72 3.013.585 4.128.478 5.23.38 6.31.325 7.368.325zM223.46 29.6c-.9-2.586-2.187-4.79-3.872-6.623-1.69-1.828-3.742-3.267-6.15-4.318-.65-.282-1.328-.52-2.025-.724.002-.123.008-.25.008-.372 0-1.05-.044-2.136-.155-3.25-.11-1.11-.266-2.27-.47-3.484-1.226-.154-2.382-.287-3.493-.398-1.106-.107-2.19-.162-3.244-.162-1.06 0-2.145.055-3.25.162-1.116.11-2.276.244-3.488.398-.215 1.213-.368 2.373-.476 3.483-.098 1.115-.152 2.2-.152 3.25 0 .294.014.593.02.89-.435.157-.863.324-1.278.51-2.79 1.257-5.113 2.952-6.98 5.105-1.86 2.15-3.25 4.683-4.18 7.585-.928 2.91-1.395 6.014-1.395 9.328 0 3.374.448 6.487 1.348 9.326.896 2.86 2.296 5.312 4.186 7.37 1.89 2.07 4.328 3.677 7.323 4.838.312.12.656.21.98.317-.01.354-.025.708-.025 1.055 0 1.06.055 2.14.152 3.254.108 1.104.262 2.265.476 3.48 1.212.21 2.372.374 3.487.472 1.106.105 2.19.162 3.25.162 1.054 0 2.14-.057 3.245-.162 1.11-.098 2.267-.262 3.492-.473.205-1.216.36-2.376.47-3.48.108-1.083.153-2.13.155-3.158 3.704-.405 7.358-1.263 10.952-2.596-.053-2.27-.385-4.45-1.004-6.54-.604-2.09-1.318-3.895-2.14-5.404-2.03.812-4.093 1.426-6.185 1.826-2.096.412-3.985.61-5.675.61-2.606 0-4.72-.49-6.314-1.477-1.596-.99-2.72-2.668-3.36-5.063h26.514c.117-.81.248-1.84.39-3.094.145-1.248.22-2.655.22-4.23-.002-3.017-.455-5.826-1.357-8.413zm-25.94 5.714c.235-2.438 1.018-4.242 2.355-5.404 1.34-1.16 2.936-1.75 4.8-1.75 2.144 0 3.792.69 4.924 2.053 1.128 1.37 1.755 3.064 1.872 5.1h-13.95z"/></svg>