<?xml version="1.0" encoding="utf-8"?>
<!-- Generator: Adobe Illustrator 17.0.0, SVG Export Plug-In . SVG Version: 6.00 Build 0)  -->
<!DOCTYPE svg PUBLIC "-//W3C//DTD SVG 1.1//EN" "http://www.w3.org/Graphics/SVG/1.1/DTD/svg11.dtd">
<svg version="1.1" id="Layer_1" xmlns="http://www.w3.org/2000/svg" xmlns:xlink="http://www.w3.org/1999/xlink" x="0px" y="0px"
	 width="400.682px" height="71.254px" viewBox="0 0 400.682 71.254" enable-background="new 0 0 400.682 71.254"
	 xml:space="preserve">
<g>
	<path fill="#1EA0CA" d="M14.739,63.127c-1.51,0.232-2.88,0.398-4.101,0.525c-1.219,0.117-2.322,0.17-3.312,0.17
		c-0.987,0-2.096-0.053-3.315-0.17C2.795,63.525,1.454,63.359,0,63.127V21.932c1.277-0.297,2.546-0.5,3.794-0.613
		c1.254-0.118,2.452-0.176,3.613-0.176c1.108,0,2.302,0.058,3.585,0.176c1.276,0.113,2.521,0.316,3.747,0.613V63.127z"/>
	<path fill="#07456B" d="M24.36,0.697c1.223-0.172,2.54-0.332,3.966-0.479C29.751,0.076,31.071,0,32.287,0
		c1.17,0,2.433,0.076,3.803,0.219c1.361,0.147,2.623,0.307,3.791,0.479L52.26,33.139L65.079,0.697
		c1.159-0.172,2.337-0.332,3.53-0.479C69.799,0.076,70.978,0,72.136,0c1.225,0,2.479,0.076,3.755,0.219
		c1.278,0.147,2.531,0.307,3.748,0.479l2.963,62.252c-0.926,0.178-1.956,0.355-3.097,0.525c-1.129,0.178-2.629,0.264-4.484,0.264
		c-2.04,0-4.446-0.264-7.242-0.789l-1.213-36.09l-9.602,23.795c-1.044,0.178-2.09,0.325-3.135,0.441s-2.002,0.172-2.87,0.172
		c-0.877,0-1.779-0.041-2.71-0.131c-0.927-0.088-1.89-0.25-2.88-0.482l-8.545-23.443l-0.961,35.738
		c-2.437,0.525-4.76,0.789-6.972,0.789c-2.034,0-4.392-0.264-7.065-0.789L24.36,0.697z"/>
	<path fill="#07456B" d="M87.658,40.894c0-3.544,0.487-6.788,1.439-9.724c0.961-2.935,2.383-5.447,4.272-7.537
		c1.889-2.1,4.234-3.709,7.021-4.848c2.786-1.129,6.016-1.692,9.676-1.692c3.724,0,6.98,0.564,9.768,1.692
		c2.789,1.139,5.125,2.748,7.016,4.848c1.886,2.09,3.32,4.603,4.272,7.537c0.961,2.935,1.439,6.18,1.439,9.724
		c0,3.485-0.479,6.664-1.439,9.555c-0.951,2.871-2.386,5.339-4.272,7.407c-1.891,2.059-4.227,3.646-7.016,4.744
		c-2.787,1.105-6.044,1.66-9.768,1.66c-3.66,0-6.89-0.555-9.676-1.66c-2.787-1.098-5.133-2.686-7.021-4.744
		c-1.89-2.068-3.311-4.536-4.272-7.407C88.146,47.558,87.658,44.379,87.658,40.894z M117.651,40.894
		c0-3.724-0.627-6.571-1.875-8.546c-1.244-1.973-3.146-2.963-5.709-2.963c-2.554,0-4.443,0.99-5.668,2.963
		c-1.222,1.975-1.826,4.822-1.826,8.546c0,3.663,0.604,6.487,1.826,8.455c1.225,1.982,3.114,2.972,5.668,2.972
		c2.562,0,4.465-0.989,5.709-2.972C117.024,47.381,117.651,44.557,117.651,40.894z"/>
	<path fill="#07456B" d="M156.28,17.262c2.555,0,5.118,0.226,7.679,0.656c2.554,0.436,4.861,1.35,6.928,2.748
		c2.068,1.393,3.747,3.401,5.056,6.018c1.307,2.614,1.968,6.074,1.968,10.37v26.073c-1.518,0.293-2.882,0.479-4.104,0.57
		c-1.226,0.088-2.303,0.125-3.229,0.125c-0.984,0-2.09-0.037-3.307-0.125c-1.221-0.092-2.595-0.277-4.102-0.57v-24.5
		c0-3.08-0.582-5.289-1.742-6.627c-1.168-1.338-2.943-2.006-5.314-2.006c-0.644,0-1.326,0.056-2.055,0.172
		c-0.726,0.116-1.176,0.229-1.356,0.348v32.613c-1.506,0.293-2.87,0.479-4.092,0.57c-1.222,0.088-2.299,0.125-3.231,0.125
		c-0.989,0-2.089-0.037-3.311-0.125c-1.225-0.092-2.584-0.277-4.093-0.57V20.318c2.025-0.694,4.494-1.385,7.403-2.051
		C148.29,17.601,151.921,17.262,156.28,17.262z"/>
	<path fill="#07456B" d="M255.768,18.138c0.465-0.116,1.351-0.235,2.66-0.349c1.311-0.115,2.717-0.176,4.227-0.176
		c1.922,0,3.631,0.061,5.147,0.176c1.514,0.113,2.59,0.233,3.23,0.349l-16.834,29.205v15.784c-1.512,0.232-2.873,0.398-4.094,0.525
		c-1.227,0.117-2.324,0.17-3.316,0.17c-0.99,0-2.09-0.053-3.312-0.17c-1.225-0.127-2.561-0.293-4.01-0.525V47.343l-16.742-29.205
		c0.641-0.116,1.756-0.235,3.357-0.349c1.594-0.115,3.359-0.176,5.273-0.176c1.516,0,2.994,0.061,4.447,0.176
		c1.451,0.113,2.406,0.233,2.875,0.349l8.547,17.177L255.768,18.138z"/>
	<path fill="#07456B" d="M273.469,47.607c1.158,0,2.352,0.061,3.578,0.176c1.215,0.117,2.498,0.266,3.832,0.434
		c0.232,1.341,0.41,2.615,0.523,3.84c0.117,1.216,0.18,2.409,0.18,3.566c0,1.164-0.062,2.363-0.18,3.58
		c-0.113,1.221-0.291,2.498-0.523,3.836c-1.334,0.236-2.617,0.404-3.832,0.52c-1.227,0.117-2.42,0.18-3.578,0.18
		c-1.16,0-2.353-0.062-3.572-0.18c-1.229-0.115-2.502-0.283-3.836-0.52c-0.24-1.338-0.41-2.615-0.523-3.836
		c-0.125-1.217-0.18-2.416-0.18-3.58c0-1.157,0.055-2.351,0.18-3.566c0.113-1.225,0.283-2.499,0.523-3.84
		c1.334-0.168,2.607-0.316,3.836-0.434C271.115,47.668,272.309,47.607,273.469,47.607z"/>
	<path fill="#07456B" d="M307.211,17.262c2.385,0,4.738,0.191,7.066,0.572c2.326,0.38,4.475,1.146,6.451,2.307
		c1.516-0.748,3.281-1.425,5.316-2.003c2.037-0.58,4.326-0.876,6.891-0.876c2.266,0,4.605,0.226,7.022,0.656
		c2.406,0.436,4.588,1.35,6.529,2.748c1.953,1.393,3.557,3.401,4.801,6.018c1.254,2.614,1.875,6.074,1.875,10.37v26.073
		c-1.508,0.293-2.873,0.479-4.096,0.57c-1.225,0.088-2.299,0.125-3.229,0.125c-0.99,0-2.09-0.037-3.312-0.125
		c-1.223-0.092-2.586-0.277-4.094-0.57v-24.5c0-3.08-0.527-5.289-1.572-6.627c-1.055-1.338-2.76-2.006-5.149-2.006
		c-0.814,0-1.607,0.088-2.389,0.265c-0.791,0.171-1.332,0.315-1.621,0.433c0.527,2.037,0.781,4.359,0.781,6.975v25.461
		c-1.506,0.293-2.869,0.479-4.094,0.57c-1.217,0.088-2.297,0.125-3.229,0.125c-0.99,0-2.09-0.037-3.312-0.125
		c-1.225-0.092-2.582-0.277-4.096-0.57v-24.5c0-3.08-0.496-5.289-1.484-6.627c-0.984-1.338-2.672-2.006-5.057-2.006
		c-0.643,0-1.314,0.056-2.049,0.172c-0.73,0.116-1.17,0.229-1.348,0.348v32.613c-1.512,0.293-2.881,0.479-4.103,0.57
		c-1.213,0.088-2.299,0.125-3.229,0.125c-0.98,0-2.09-0.037-3.305-0.125c-1.227-0.092-2.596-0.277-4.105-0.57V20.318
		c2.039-0.694,4.477-1.385,7.332-2.051C299.246,17.601,302.853,17.262,307.211,17.262z"/>
	<path fill="#07456B" d="M385.426,18.138c0.465-0.116,1.353-0.235,2.654-0.349c1.309-0.115,2.719-0.176,4.234-0.176
		c1.92,0,3.631,0.061,5.143,0.176c1.516,0.113,2.582,0.233,3.225,0.349l-16.828,29.205v15.784c-1.51,0.232-2.871,0.398-4.094,0.525
		c-1.225,0.117-2.332,0.17-3.314,0.17c-0.99,0-2.088-0.053-3.311-0.17c-1.225-0.127-2.564-0.293-4.012-0.525V47.343l-16.744-29.205
		c0.635-0.116,1.756-0.235,3.351-0.349c1.604-0.115,3.358-0.176,5.281-0.176c1.51,0,2.994,0.061,4.441,0.176
		c1.455,0.113,2.418,0.233,2.881,0.349l8.545,17.177L385.426,18.138z"/>
	<g>
		<path fill="#07456B" d="M7.369,0.326c1.06,0,2.146,0.055,3.252,0.153c1.108,0.107,2.266,0.241,3.482,0.396
			c0.209,1.221,0.371,2.385,0.473,3.491c0.107,1.108,0.163,2.19,0.163,3.251c0,1.053-0.056,2.136-0.163,3.241
			c-0.102,1.118-0.264,2.276-0.473,3.486c-1.217,0.215-2.374,0.372-3.482,0.479c-1.106,0.102-2.192,0.153-3.252,0.153
			c-1.059,0-2.139-0.052-3.241-0.153c-1.115-0.107-2.276-0.265-3.492-0.479c-0.209-1.21-0.371-2.368-0.473-3.486
			C0.055,9.753,0,8.67,0,7.617c0-1.061,0.055-2.143,0.163-3.251c0.101-1.106,0.264-2.27,0.473-3.491
			c1.216-0.154,2.377-0.288,3.492-0.396C5.23,0.381,6.31,0.326,7.369,0.326z"/>
	</g>
	<path fill="#07456B" d="M223.461,29.6c-0.9-2.586-2.188-4.789-3.873-6.623c-1.689-1.828-3.742-3.267-6.15-4.318
		c-0.65-0.281-1.328-0.518-2.025-0.723c0.002-0.123,0.008-0.25,0.008-0.372c0-1.051-0.045-2.136-0.156-3.251
		c-0.109-1.109-0.266-2.27-0.471-3.483c-1.225-0.154-2.381-0.287-3.492-0.398c-1.106-0.107-2.191-0.162-3.244-0.162
		c-1.061,0-2.145,0.055-3.251,0.162c-1.115,0.111-2.275,0.244-3.487,0.398c-0.215,1.213-0.368,2.373-0.476,3.483
		c-0.098,1.115-0.152,2.2-0.152,3.251c0,0.293,0.014,0.592,0.021,0.889c-0.436,0.157-0.864,0.324-1.279,0.51
		c-2.791,1.257-5.113,2.952-6.979,5.105c-1.86,2.151-3.251,4.683-4.18,7.585c-0.929,2.91-1.396,6.014-1.396,9.328
		c0,3.373,0.449,6.486,1.349,9.325c0.896,2.859,2.296,5.312,4.186,7.37c1.89,2.069,4.328,3.677,7.323,4.838
		c0.312,0.121,0.656,0.209,0.981,0.317c-0.012,0.353-0.026,0.707-0.026,1.054c0,1.061,0.055,2.139,0.152,3.254
		c0.108,1.105,0.262,2.266,0.476,3.48c1.212,0.211,2.372,0.375,3.487,0.473c1.106,0.105,2.191,0.162,3.251,0.162
		c1.053,0,2.139-0.057,3.244-0.162c1.111-0.098,2.267-0.262,3.492-0.473c0.205-1.215,0.361-2.375,0.471-3.48
		c0.107-1.082,0.152-2.128,0.154-3.157c3.705-0.405,7.359-1.263,10.953-2.596c-0.053-2.271-0.385-4.45-1.004-6.54
		c-0.604-2.09-1.318-3.895-2.139-5.404c-2.031,0.812-4.094,1.426-6.186,1.826c-2.096,0.412-3.985,0.609-5.675,0.609
		c-2.606,0-4.72-0.49-6.314-1.476c-1.596-0.991-2.719-2.669-3.359-5.064h26.513c0.117-0.81,0.248-1.84,0.389-3.094
		c0.146-1.248,0.221-2.655,0.221-4.229C224.816,34.996,224.363,32.187,223.461,29.6z M197.521,35.314
		c0.234-2.438,1.017-4.242,2.354-5.404c1.339-1.16,2.936-1.75,4.801-1.75c2.143,0,3.791,0.691,4.923,2.053
		c1.129,1.369,1.756,3.064,1.873,5.101H197.521z"/>
</g>
</svg>
