<?xml version="1.0" encoding="UTF-8"?>
<svg width="48px" height="16px" viewBox="0 0 48 16" version="1.1" xmlns="http://www.w3.org/2000/svg" xmlns:xlink="http://www.w3.org/1999/xlink">
    <!-- Generator: Sketch 40.3 (33839) - http://www.bohemiancoding.com/sketch -->
    <title>footerIcon</title>
    <desc>Created with Sketch.</desc>
    <defs></defs>
    <g id="Symbols" stroke="none" stroke-width="1" fill="none" fill-rule="evenodd">
        <g id="footerIcon" fill="#FFFFFF">
            <path d="M28.4384,3.2544 L26.1296,3.2544 C25.856,3.2544 25.552,3.6144 25.552,4.0928 L25.552,5.76 L28.44,5.76 L28.0032,8.1376 L25.552,8.1376 L25.552,15.2752 L22.8272,15.2752 L22.8272,8.1376 L20.3552,8.1376 L20.3552,5.76 L22.8272,5.76 L22.8272,4.3616 C22.8272,2.3552 24.2192,0.7248 26.1296,0.7248 L28.4384,0.7248 L28.4384,3.2544 L28.4384,3.2544 Z" id="Shape"></path>
            <path d="M47.9518756,4.70160889 C47.9385835,4.03794562 47.8128517,3.38134093 47.5800267,2.75971556 C47.3791461,2.22590258 47.0642447,1.7423311 46.65728,1.34272 C46.2576689,0.935755329 45.7740974,0.620853869 45.2402844,0.419973333 C44.6186591,0.187148278 43.9620544,0.0614164887 43.2983911,0.0481244444 C42.4450933,0.00922666667 42.1726844,0 40,0 C37.8273156,0 37.5549067,0.00922666667 36.7016089,0.0481244444 C36.0379456,0.0614164887 35.3813409,0.187148278 34.7597156,0.419973333 C34.2259026,0.620853869 33.7423311,0.935755329 33.34272,1.34272 C32.9357553,1.7423311 32.6208539,2.22590258 32.4199733,2.75971556 C32.1871483,3.38134093 32.0614165,4.03794562 32.0481244,4.70160889 C32.0092267,5.55490667 32,5.82731556 32,8 C32,10.1726844 32.0092267,10.4450933 32.0481244,11.2983911 C32.0614165,11.9620544 32.1871483,12.6186591 32.4199733,13.2402844 C32.6208539,13.7740974 32.9357553,14.2576689 33.34272,14.65728 C33.7423166,15.0642624 34.2258922,15.3791666 34.7597156,15.5800267 C35.3813409,15.8128517 36.0379456,15.9385835 36.7016089,15.9518756 C37.5549067,15.9908356 37.8273156,16 40,16 C42.1726844,16 42.4450933,15.9908356 43.2983911,15.9518756 C43.9620544,15.9385835 44.6186591,15.8128517 45.2402844,15.5800267 C46.3148928,15.1644167 47.1644079,14.3149017 47.5800178,13.2402933 C47.8128428,12.618668 47.9385746,11.9620633 47.9518667,11.2984 C47.9907733,10.4450933 48,10.1726844 48,8 C48,5.82731556 47.9907733,5.55490667 47.9518756,4.70160889 L47.9518756,4.70160889 Z M46.5119378,11.2326933 C46.5059335,11.7399777 46.4127415,12.2424519 46.2364356,12.7181511 C45.9673304,13.4158648 45.4158632,13.9673353 44.7181511,14.2364444 C44.2424502,14.4127442 43.7399771,14.505936 43.2326933,14.5119467 C42.3892178,14.5504 42.1362311,14.5585422 40,14.5585422 C37.8637689,14.5585422 37.6107822,14.5504 36.7673067,14.5119378 C36.2600234,14.50593 35.7575503,14.4127412 35.2818489,14.2364444 C34.9343558,14.1082277 34.6200264,13.9037412 34.3619822,13.6380267 C34.0962634,13.3799809 33.8917737,13.0656482 33.7635556,12.7181511 C33.5872496,12.2424519 33.4940576,11.7399777 33.4880533,11.2326933 C33.4496,10.3891022 33.4414578,10.1361244 33.4414578,8 C33.4414578,5.86387556 33.4496,5.61089778 33.4880622,4.76730667 C33.49407,4.26002344 33.5872588,3.75755029 33.7635556,3.28184889 C33.8917723,2.9343558 34.0962588,2.62002635 34.3619733,2.36198222 C34.6200191,2.09626337 34.9343518,1.89177371 35.2818489,1.76355556 C35.7575498,1.58725575 36.2600229,1.49406396 36.7673067,1.48805333 C37.6108978,1.4496 37.8638756,1.44145778 40,1.44145778 C42.1361244,1.44145778 42.3891022,1.4496 43.2326933,1.48806222 C43.7399771,1.49407285 44.2424502,1.58726464 44.7181511,1.76356444 C45.0656442,1.89178118 45.3799736,2.0962677 45.6380178,2.36198222 C45.9037355,2.62002545 46.1082251,2.93435496 46.2364444,3.28184889 C46.4127442,3.75754975 46.505936,4.26002292 46.5119467,4.76730667 C46.5504089,5.61086222 46.5585511,5.86392889 46.5585511,8 C46.5585511,10.1360711 46.5504,10.3891022 46.5119378,11.2326933 L46.5119378,11.2326933 Z M40,3.89187556 C37.7311455,3.89187556 35.8918756,5.73114552 35.8918756,8 C35.8918756,10.2688545 37.7311455,12.1081244 40,12.1081244 C42.2688545,12.1081244 44.1081244,10.2688545 44.1081244,8 C44.1080999,5.73115569 42.2688443,3.8919001 40,3.89187556 L40,3.89187556 Z M40,10.6666667 C38.5272407,10.6666667 37.3333333,9.47275933 37.3333333,8 C37.3333333,6.52724067 38.5272407,5.33333333 40,5.33333333 C41.4727593,5.33333333 42.6666667,6.52724067 42.6666667,8 C42.6666667,8.70724397 42.3857151,9.38552107 41.8856181,9.88561808 C41.3855211,10.3857151 40.707244,10.6666667 40,10.6666667 L40,10.6666667 Z M45.2304178,3.7296 C45.2304178,4.25979336 44.8006111,4.6896 44.2704178,4.6896 C43.7402244,4.6896 43.3104178,4.25979336 43.3104178,3.7296 C43.3104178,3.19940664 43.7402244,2.7696 44.2704178,2.7696 C44.8006111,2.7696 45.2304178,3.19940664 45.2304178,3.7296 L45.2304178,3.7296 Z" id="Shape"></path>
            <path d="M14.3617391,4.73652174 C14.3686957,4.8773913 14.3713043,5.02 14.3713043,5.16086957 C14.3713043,9.5 11.0695652,14.5017391 5.03217391,14.5017391 C3.1773913,14.5017391 1.45304348,13.9582609 0,13.026087 C0.257391304,13.0565217 0.51826087,13.0721739 0.782608696,13.0721739 C2.32173913,13.0721739 3.73652174,12.5469565 4.85913043,11.6678261 C3.42347826,11.6408696 2.21043478,10.6930435 1.79304348,9.38869565 C1.99304348,9.42608696 2.19913043,9.44608696 2.41043478,9.44608696 C2.71043478,9.44608696 3.00086957,9.40695652 3.27565217,9.33217391 C1.77391304,9.02956522 0.642608696,7.70347826 0.642608696,6.11217391 L0.642608696,6.07130435 C1.08521739,6.3173913 1.59217391,6.46521739 2.12956522,6.4826087 C1.24869565,5.89304348 0.668695652,4.88956522 0.668695652,3.74956522 C0.668695652,3.14869565 0.830434783,2.58434783 1.11391304,2.09913043 C2.73217391,4.08608696 5.15217391,5.39217391 7.88,5.52956522 C7.82434783,5.28869565 7.79565217,5.03913043 7.79565217,4.78086957 C7.79565217,2.96869565 9.26434783,1.5 11.0773913,1.5 C12.0217391,1.5 12.8747826,1.8973913 13.473913,2.53565217 C14.2208696,2.38782609 14.9234783,2.11478261 15.5582609,1.73913043 C15.3130435,2.50521739 14.7921739,3.14869565 14.1147826,3.55478261 C14.7791304,3.47478261 15.4104348,3.3 16,3.03826087 C15.56,3.6973913 15.0034783,4.27478261 14.3617391,4.73652174 L14.3617391,4.73652174 Z" id="Shape"></path>
        </g>
    </g>
</svg>