<svg width="340" height="400" viewBox="0 0 340 400" xmlns="http://www.w3.org/2000/svg"><title>sprite</title><g fill="none" fill-rule="evenodd"><path d="M35.11 3.477h-3.173c-.376 0-.794.495-.794 1.152v2.29h3.97l-.6 3.27h-3.37V20h-3.745v-9.81H24V6.92h3.398V5c0-2.76 1.913-5 4.54-5h3.173v3.477zM59.94 5.877c-.017-.83-.174-1.65-.465-2.427-.25-.668-.645-1.272-1.153-1.772-.5-.508-1.104-.902-1.772-1.153-.777-.29-1.597-.448-2.427-.465C53.056.012 52.716 0 50 0s-3.056.012-4.123.06c-.83.017-1.65.174-2.427.465-.668.25-1.272.645-1.772 1.153-.508.5-.902 1.104-1.153 1.772-.29.777-.448 1.597-.465 2.427C40.012 6.944 40 7.284 40 10s.012 3.056.06 4.123c.017.83.174 1.65.465 2.427.25.668.645 1.272 1.153 1.772.5.508 1.104.902 1.772 1.153.777.29 1.597.448 2.427.465 1.067.05 1.407.06 4.123.06s3.056-.01 4.123-.06c.83-.017 1.65-.174 2.427-.465 1.344-.52 2.406-1.58 2.925-2.925.29-.777.448-1.597.465-2.427.048-1.067.06-1.407.06-4.123s-.012-3.056-.06-4.123zm-1.8 8.164c-.008.635-.124 1.263-.344 1.858-.337.872-1.026 1.56-1.898 1.898-.595.22-1.223.336-1.857.344-1.053.048-1.37.058-4.04.058s-2.987-.01-4.04-.058c-.635-.008-1.263-.124-1.858-.344-.434-.16-.827-.416-1.15-.748-.332-.323-.587-.716-.748-1.15-.22-.595-.336-1.223-.344-1.857-.048-1.054-.058-1.37-.058-4.04s.01-2.986.058-4.04c.008-.635.124-1.263.344-1.858.16-.434.416-.827.748-1.15.323-.332.716-.587 1.15-.748.595-.22 1.223-.336 1.857-.344 1.054-.048 1.37-.058 4.04-.058s2.986.01 4.04.058c.635.008 1.263.124 1.858.344.434.16.827.416 1.15.748.332.323.587.716.748 1.15.22.595.336 1.223.344 1.857.048 1.054.058 1.37.058 4.04s-.01 2.986-.058 4.04zM50 4.866c-2.836 0-5.135 2.3-5.135 5.135 0 2.836 2.3 5.135 5.135 5.135 2.836 0 5.135-2.3 5.135-5.135 0-2.836-2.3-5.135-5.135-5.135zm0 8.468c-1.84 0-3.333-1.492-3.333-3.333 0-1.84 1.492-3.333 3.333-3.333 1.84 0 3.333 1.492 3.333 3.333 0 .884-.35 1.732-.976 2.357-.625.625-1.473.976-2.357.976zm6.538-8.67c0 .662-.537 1.2-1.2 1.2-.663 0-1.2-.538-1.2-1.2 0-.664.537-1.2 1.2-1.2.663 0 1.2.536 1.2 1.2zM17.952 5.546c.01.176.012.354.012.53 0 5.424-4.127 11.676-11.674 11.676-2.318 0-4.474-.68-6.29-1.844.322.038.648.057.978.057 1.924 0 3.693-.656 5.096-1.755-1.795-.034-3.31-1.22-3.833-2.85.25.048.51.073.773.073.375 0 .738-.05 1.082-.143C2.217 10.912.803 9.254.803 7.265v-.05c.554.307 1.187.492 1.86.513C1.56 6.99.835 5.738.835 4.312c0-.75.202-1.457.556-2.063C3.415 4.732 6.44 6.364 9.85 6.536c-.07-.3-.105-.613-.105-.936 0-2.264 1.835-4.1 4.102-4.1 1.18 0 2.246.497 2.995 1.295.934-.185 1.812-.527 2.606-.996-.307.957-.958 1.76-1.805 2.268.83-.1 1.62-.318 2.357-.645-.55.824-1.246 1.545-2.048 2.123z" fill="#FFF"/><g transform="translate(5 23)"><path d="M1.5 65.014c0 2.318 1.884 4.204 4.2 4.204h55.64c2.324 0 4.2-1.88 4.2-4.204v-46.43c0-2.317-1.882-4.203-4.2-4.203H5.7c-2.323 0-4.2 1.88-4.2 4.205v46.43zM5.7 12.88h55.64c3.15 0 5.7 2.56 5.7 5.705v46.43c0 3.15-2.545 5.703-5.7 5.703H5.7c-3.147 0-5.7-2.56-5.7-5.704v-46.43c0-3.15 2.546-5.703 5.7-5.703z" fill="#4A4A4A"/><path d="M30.23 43.056c.635 1.098 2.04 1.472 3.146.834l28.11-16.23c1.107-.64 1.484-2.04.85-3.14l-12.4-21.476c-.634-1.1-2.04-1.472-3.145-.835L18.68 18.44c-1.107.638-1.483 2.04-.848 3.14l12.4 21.476zM17.93 17.14L46.04.91c1.822-1.05 4.145-.434 5.195 1.384l12.4 21.477c1.047 1.816.428 4.135-1.4 5.19l-28.11 16.23c-1.82 1.05-4.143.434-5.193-1.384l-12.4-21.477c-1.047-1.816-.428-4.135 1.4-5.19z" fill="#4A4A4A"/><path d="M30.23 43.056c.635 1.098 2.04 1.472 3.146.834l28.11-16.23c1.107-.64 1.484-2.04.85-3.14l-12.4-21.476c-.634-1.1-2.04-1.472-3.145-.835L18.68 18.44c-1.107.638-1.483 2.04-.848 3.14l12.4 21.476z" fill="#FFF"/><path fill="#FFF" d="M11.56 19.82H65.5v29.305H11.56z"/><path fill="#4A4A4A" d="M65.715 20.25h.75v-1.5H5.24v1.5h.75M44.014 51.655c0 1.265 1.035 2.3 2.307 2.3h20.185c1.28 0 2.307-1.028 2.307-2.3V38.8c0-1.265-1.036-2.3-2.307-2.3H46.32c-1.278 0-2.306 1.027-2.306 2.3v12.855zM46.32 35h20.185c2.102 0 3.807 1.71 3.807 3.8v12.855c0 2.098-1.698 3.8-3.807 3.8H46.32c-2.102 0-3.806-1.71-3.806-3.8V38.8c0-2.1 1.697-3.8 3.807-3.8z"/><path d="M44.014 51.655c0 1.265 1.035 2.3 2.307 2.3h20.185c1.28 0 2.307-1.028 2.307-2.3V38.8c0-1.265-1.036-2.3-2.307-2.3H46.32c-1.278 0-2.306 1.027-2.306 2.3v12.855z" fill="#FFF"/><ellipse fill="#4A4A4A" cx="54.369" cy="45.227" rx="3.679" ry="3.682"/></g><path fill="none" d="M78 19h81.797v82H78z"/><path d="M137.443 23.368c3.335 0 6.067 2.738 6.067 6.083v61.5c0 3.346-2.732 6.084-6.067 6.084h-35.786c-3.334 0-6.066-2.738-6.066-6.083v-61.5c0-3.344 2.733-6.082 6.067-6.082h35.786zM94.09 29.45v61.5c0 4.173 3.403 7.584 7.567 7.584h35.786c4.164 0 7.567-3.41 7.567-7.583v-61.5c0-4.17-3.403-7.582-7.567-7.582h-35.786c-4.164 0-7.566 3.41-7.566 7.583z" fill="#4A4A4A"/><path d="M107.52 52.765c-2.385 0-4.26 1.88-4.26 4.27 0 2.392 1.875 4.27 4.26 4.27 2.387 0 4.26-1.878 4.26-4.27 0-2.39-1.703-4.27-4.26-4.27zm12.03 0c-2.386 0-4.26 1.88-4.26 4.27 0 2.392 1.874 4.27 4.26 4.27 2.386 0 4.26-1.878 4.26-4.27 0-2.39-1.704-4.27-4.26-4.27zm12.03 0c-2.387 0-4.26 1.88-4.26 4.27 0 2.392 1.873 4.27 4.26 4.27 2.385 0 4.26-1.878 4.26-4.27 0-2.39-1.705-4.27-4.26-4.27zm-24.06 12.06c-2.385 0-4.26 1.878-4.26 4.27 0 2.39 1.875 4.27 4.26 4.27 2.387 0 4.26-1.88 4.26-4.27 0-2.392-1.703-4.27-4.26-4.27zm12.03 0c-2.386 0-4.26 1.878-4.26 4.27 0 2.39 1.874 4.27 4.26 4.27 2.386 0 4.26-1.88 4.26-4.27 0-2.392-1.704-4.27-4.26-4.27zm12.03 0c-2.387 0-4.26 1.878-4.26 4.27 0 2.39 1.873 4.27 4.26 4.27 2.385 0 4.26-1.88 4.26-4.27 0-2.392-1.705-4.27-4.26-4.27zM107.52 76.88c-2.385 0-4.26 1.88-4.26 4.27 0 2.393 1.875 4.272 4.26 4.272 2.387 0 4.26-1.88 4.26-4.27 0-2.392-1.703-4.272-4.26-4.272zm12.03 0c-2.386 0-4.26 1.88-4.26 4.27 0 2.393 1.874 4.272 4.26 4.272 2.386 0 4.26-1.88 4.26-4.27 0-2.392-1.704-4.272-4.26-4.272zm12.03 0c-2.387 0-4.26 1.88-4.26 4.27 0 2.393 1.873 4.272 4.26 4.272 2.385 0 4.26-1.88 4.26-4.27 0-2.392-1.705-4.272-4.26-4.272zM133.935 33.015c.608 0 .954.347.954.958v6.833c0 .612-.347.96-.955.96h-28.97c-.608 0-.954-.348-.954-.96v-6.833c0-.61.347-.958.955-.958h28.97zm-31.424.958v6.833c0 1.44 1.018 2.46 2.455 2.46h28.97c1.437 0 2.454-1.02 2.454-2.46v-6.833c0-1.44-1.018-2.458-2.455-2.458h-28.97c-1.437 0-2.454 1.02-2.454 2.458z" fill="#4A4A4A"/><path fill="#4A4A4A" d="M82.07 97.07l-.53.532 1.06 1.06.53-.53 75.003-75.003.53-.532-1.06-1.06-.53.53"/><g transform="translate(183 46)" fill="#4A4A4A"><circle cx="4.586" cy="4.621" r="3.724"/><ellipse cx="31.897" cy="4.621" rx="3.724" ry="3.724"/><path d="M17.52 24.915c5.484 0 12.413-4.966 9.93-6.207-2.482-1.24-4.446 1.543-9.93 1.543-5.485 0-7.45-3.085-9.932-1.542s4.447 6.207 9.93 6.207z"/></g><path d="M220.612 83.892l.43-.77h9.952c1.934 0 3.506-1.57 3.506-3.493V34.99c0-1.93-1.564-3.492-3.506-3.492h-61.988c-1.934 0-3.506 1.57-3.506 3.492V79.63c0 1.93 1.564 3.49 3.506 3.49h42.229l.43.772 4.81 8.66c-.032-.058-.64-.06-.674 0l4.812-8.66zm-3.5 9.39c-.54.97-1.41.967-1.948 0l-4.812-8.66h-41.346c-2.772 0-5.006-2.236-5.006-4.993V34.99c0-2.75 2.24-4.992 5.006-4.992h61.988c2.772 0 5.006 2.235 5.006 4.992V79.63c0 2.748-2.24 4.99-5.006 4.99h-9.07l-4.812 8.66z" fill="#4A4A4A"/><g fill="#4A4A4A"><path d="M284.375 55.244V25c15.43.29 29.83 11.576 31.886 27.205.442 2.75.588 6.222.295 8.827l-32.18-5.788z"/><path d="M276.886 93.667c-17.08 0-31.136-14.283-31.136-31.375 0-16.804 13.18-30.52 29.98-30.94l-.77-.75v32.465l.622.11 32.62 5.642-.613-.848c-2.163 14.76-15.144 25.695-30.704 25.695zm32.293-26.2l-.722-.126-32.62-5.642.622.74V29.83l-.77.02c-17.615.44-31.44 14.827-31.44 32.44 0 17.915 14.722 32.875 32.636 32.875 16.296 0 29.916-11.47 32.187-26.978l.106-.724z"/></g><path d="M120.395 2.277c-.476-.474-.478-1.245 0-1.72l.203-.203c.474-.47 1.253-.474 1.73 0L130 7.982l-1.933 1.923-5.762 5.727c-.496.493-1.298.494-1.796 0l-.137-.136c-.496-.493-.498-1.29 0-1.785l5.76-5.73-5.738-5.703z" fill="#FFF"/><path d="M70.395 2.277c-.476-.474-.478-1.245 0-1.72l.203-.203c.474-.47 1.253-.474 1.73 0L80 7.982l-1.933 1.923-5.762 5.727c-.496.493-1.298.494-1.796 0l-.137-.136c-.496-.493-.498-1.29 0-1.785l5.76-5.73-5.738-5.703z" fill="#ED2D23"/><path d="M114.723.395c.474-.476 1.245-.478 1.72 0l.203.203c.47.474.474 1.253 0 1.73L109.018 10l-1.923-1.933-5.727-5.762c-.493-.496-.494-1.298 0-1.796l.136-.137c.493-.496 1.29-.498 1.785 0l5.73 5.76 5.703-5.738z" fill="#C6C6C6"/><path d="M84.05 4.82c.252.24.648.24.9 0l3.84-3.66c.267-.253.28-.678.03-.948-.248-.27-.665-.284-.93-.03L84.05 3.84h.9L81.11.18c-.265-.252-.682-.238-.93.032-.25.27-.237.695.03.948l3.84 3.66z" fill="#000"/><path d="M12 122.187L8.785 124l-1.88-3.178-3.69-.037-.037-3.69L0 115.214 1.813 112 0 108.785l3.178-1.88.037-3.69 3.69-.037L8.786 100 12 101.813 15.215 100l1.88 3.178 3.69.037.037 3.69 3.178 1.88L22.187 112 24 115.215l-3.178 1.88-.037 3.69-3.69.037-1.88 3.178L12 122.187zm0-7.344l-3.708 2.57 1.298-4.32L6 110.358l4.51-.1L12 106l1.49 4.26 4.51.1-3.59 2.732 1.298 4.32-3.708-2.57z" fill="#ED3422"/><path d="M130.057 143.783c-.223-.11-1.318-.65-1.522-.724-.205-.076-.353-.113-.502.11-.148.223-.575.725-.705.874-.13.148-.26.167-.483.055-.223-.112-.94-.347-1.792-1.106-.662-.59-1.11-1.32-1.24-1.544-.13-.223-.013-.344.1-.455.1-.1.22-.26.333-.39.11-.13.148-.223.223-.372.073-.148.036-.278-.02-.39-.056-.11-.5-1.208-.687-1.654-.18-.436-.364-.377-.5-.384-.13-.006-.28-.008-.428-.008-.15 0-.39.056-.594.28-.204.222-.78.76-.78 1.858 0 1.097.8 2.156.91 2.305.112.15 1.572 2.4 3.807 3.365.53.23.946.367 1.27.47.534.17 1.02.145 1.403.088.428-.064 1.318-.54 1.504-1.06.186-.52.186-.966.13-1.06-.056-.092-.204-.148-.427-.26m-4.065 5.55h-.003c-1.33 0-2.636-.357-3.773-1.032l-.27-.16-2.806.736.75-2.735-.177-.28c-.74-1.18-1.133-2.543-1.133-3.943.002-4.087 3.327-7.41 7.415-7.41 1.98 0 3.84.772 5.24 2.173 1.4 1.4 2.17 3.262 2.168 5.243-.002 4.086-3.326 7.41-7.41 7.41m6.306-13.718c-1.684-1.685-3.923-2.614-6.308-2.615-4.915 0-8.915 4-8.917 8.916 0 1.572.41 3.106 1.19 4.458l-1.265 4.62 4.727-1.24c1.302.71 2.77 1.086 4.26 1.086h.005c4.914 0 8.915-4 8.917-8.917 0-2.382-.927-4.623-2.61-6.308" fill="#979797"/><path d="M130.057 179.783c-.223-.11-1.318-.65-1.522-.724-.205-.076-.353-.113-.502.11-.148.223-.575.725-.705.874-.13.148-.26.167-.483.055-.223-.112-.94-.347-1.792-1.106-.662-.59-1.11-1.32-1.24-1.544-.13-.223-.013-.344.1-.455.1-.1.22-.26.333-.39.11-.13.148-.223.223-.372.073-.148.036-.278-.02-.39-.056-.11-.5-1.208-.687-1.654-.18-.436-.364-.377-.5-.384-.13-.006-.28-.008-.428-.008-.15 0-.39.056-.594.28-.204.222-.78.76-.78 1.858 0 1.097.8 2.156.91 2.305.112.15 1.572 2.4 3.807 3.365.53.23.946.367 1.27.47.534.17 1.02.145 1.403.088.428-.064 1.318-.54 1.504-1.06.186-.52.186-.966.13-1.06-.056-.092-.204-.148-.427-.26m-4.065 5.55h-.003c-1.33 0-2.636-.357-3.773-1.032l-.27-.16-2.806.736.75-2.735-.177-.28c-.74-1.18-1.133-2.543-1.133-3.943.002-4.087 3.327-7.41 7.415-7.41 1.98 0 3.84.772 5.24 2.173 1.4 1.4 2.17 3.262 2.168 5.243-.002 4.086-3.326 7.41-7.41 7.41m6.306-13.718c-1.684-1.685-3.923-2.614-6.308-2.615-4.915 0-8.915 4-8.917 8.916 0 1.572.41 3.106 1.19 4.458l-1.265 4.62 4.727-1.24c1.302.71 2.77 1.086 4.26 1.086h.005c4.914 0 8.915-4 8.917-8.917 0-2.382-.927-4.623-2.61-6.308" fill="#FFF"/><path d="M98.58 140.742v-2.42h-1.73v2.42h-2.492v1.73h2.49v2.49h1.73v-2.49H101v-1.73h-2.42zm-12.593-.138v2.767l3.778-.003c-.592 1.794-1.512 2.77-3.778 2.77-2.292 0-4.08-1.857-4.08-4.15 0-2.292 1.788-4.15 4.08-4.15 1.212 0 1.995.426 2.713 1.02.575-.575.527-.657 1.99-2.038-1.242-1.13-2.892-1.82-4.703-1.82-3.86 0-6.987 3.128-6.987 6.987 0 3.86 3.128 6.988 6.987 6.988 5.77 0 7.18-5.023 6.71-8.37h-6.71z" fill="#969696"/><path d="M98.58 176.742v-2.42h-1.73v2.42h-2.492v1.73h2.49v2.49h1.73v-2.49H101v-1.73h-2.42zm-12.593-.138v2.767l3.778-.003c-.592 1.794-1.512 2.77-3.778 2.77-2.292 0-4.08-1.857-4.08-4.15 0-2.292 1.788-4.15 4.08-4.15 1.212 0 1.995.426 2.713 1.02.575-.575.527-.657 1.99-2.038-1.242-1.13-2.892-1.82-4.703-1.82-3.86 0-6.987 3.128-6.987 6.987 0 3.86 3.128 6.988 6.987 6.988 5.77 0 7.18-5.023 6.71-8.37h-6.71z" fill="#FFF"/><path d="M61.157 139.14c.008.16.01.32.01.478 0 4.882-3.714 10.51-10.506 10.51-2.085 0-4.025-.612-5.66-1.66.29.033.583.05.88.05 1.732 0 3.324-.59 4.587-1.58-1.616-.03-2.98-1.096-3.45-2.563.225.042.457.064.695.064.337 0 .664-.045.973-.13-1.69-.34-2.962-1.83-2.962-3.62v-.047c.498.277 1.068.443 1.673.462-.99-.663-1.644-1.792-1.644-3.074 0-.675.182-1.31.5-1.856 1.822 2.235 4.544 3.705 7.613 3.86-.063-.272-.095-.552-.095-.843 0-2.038 1.652-3.69 3.692-3.69 1.062 0 2.022.447 2.696 1.165.84-.166 1.63-.473 2.345-.896-.276.86-.862 1.585-1.624 2.042.747-.09 1.457-.287 2.12-.58-.495.74-1.12 1.39-1.843 1.91z" fill="#979797"/><path d="M61.157 175.14c.008.16.01.32.01.478 0 4.882-3.714 10.51-10.506 10.51-2.085 0-4.025-.612-5.66-1.66.29.033.583.05.88.05 1.732 0 3.324-.59 4.587-1.58-1.616-.03-2.98-1.096-3.45-2.563.225.042.457.064.695.064.337 0 .664-.045.973-.13-1.69-.34-2.962-1.83-2.962-3.62v-.047c.498.277 1.068.443 1.673.462-.99-.663-1.644-1.792-1.644-3.074 0-.675.182-1.31.5-1.856 1.822 2.235 4.544 3.705 7.613 3.86-.063-.272-.095-.552-.095-.843 0-2.038 1.652-3.69 3.692-3.69 1.062 0 2.022.447 2.696 1.165.84-.166 1.63-.473 2.345-.896-.276.86-.862 1.585-1.624 2.042.747-.09 1.457-.287 2.12-.58-.495.74-1.12 1.39-1.843 1.91z" fill="#FFF"/><path d="M22.498 136.13h-2.856c-.338 0-.714.444-.714 1.036v2.062H22.5l-.54 2.94h-3.032V151h-3.37v-8.83H12.5v-2.94h3.058v-1.73c0-2.48 1.72-4.498 4.084-4.498h2.856v3.13z" fill="#979797"/><path d="M22.498 172.13h-2.856c-.338 0-.714.444-.714 1.036v2.062H22.5l-.54 2.94h-3.032V187h-3.37v-8.83H12.5v-2.94h3.058v-1.73c0-2.48 1.72-4.498 4.084-4.498h2.856v3.13z" fill="#FFF"/><path d="M19.352 212.556c-.49-.447-.616-1.167-.307-1.754.93-1.764 1.352-3.838 1.074-6.027-.554-4.346-3.983-7.925-8.308-8.634-6.91-1.133-12.8 4.753-11.673 11.662.703 4.32 4.27 7.748 8.61 8.313 2.184.283 4.254-.133 6.02-1.055.58-.304 1.29-.18 1.736.3l5.463 5.9c.953 1.03 2.66.954 3.558-.174.776-.974.555-2.416-.367-3.253l-5.808-5.277zM2.602 206.1c0-4.14 3.357-7.5 7.5-7.5 4.14 0 7.5 3.36 7.5 7.5 0 4.144-3.36 7.5-7.5 7.5-4.143 0-7.5-3.356-7.5-7.5z" fill="#5C5C5C"/><path d="M40.312 266.793s-2.025-1.978-4.322-1.978c-2.293 0-4.33 1.978-4.33 1.978L16.62 279.39l12.58-15.062s1.984-2.03 1.984-4.322c0-2.29-1.983-4.332-1.983-4.332l-12.58-15.03 15.036 12.574s2.037 1.975 4.33 1.975c2.297 0 4.322-1.975 4.322-1.975l15.048-12.574-12.58 15.03s-1.984 2.043-1.984 4.332c0 2.293 1.985 4.322 1.985 4.322l12.586 15.06-15.054-12.595zm22.032-6.798v-.005c0-4.072.18-7.715 3.192-14.13.888-1.853 2.81-4.58-.03-7.75-2.3-2.286-4.95-1.91-6.725-.895 1.023-1.772 1.41-4.396-.887-6.72-3.176-2.846-5.898-.912-7.75-.03-6.433 3.036-10.057 3.198-14.153 3.198-4.083 0-7.72-.162-14.14-3.2-1.847-.88-4.57-2.814-7.747.03-2.294 2.326-1.91 4.95-.887 6.722-1.783-1.015-4.414-1.39-6.715.896-2.855 3.17-.915 5.897-.045 7.75 3.026 6.415 3.178 10.044 3.178 14.135 0 4.08-.152 7.73-3.178 14.138-.87 1.866-2.81 4.584.046 7.762 2.302 2.282 4.933 1.913 6.716.902-1.022 1.776-1.413 4.388.887 6.703 3.176 2.843 5.9.912 7.748.04 6.43-3.028 10.057-3.2 14.14-3.2 4.096 0 7.745.172 14.153 3.2 1.852.872 4.574 2.803 7.75-.04 2.296-2.315 1.91-4.927.888-6.703 1.775 1.01 4.426 1.396 6.726-.902 2.84-3.178.918-5.896.03-7.745-3.012-6.425-3.192-10.06-3.192-14.155z" fill="#ED2D23"/><path d="M75 328c-7.732 0-14-6.268-14-14s6.268-14 14-14 14 6.268 14 14c0 3.222-1.09 6.19-2.918 8.556l-.035 4.344c-.005.682-.556 1.124-1.22.988l-4.53-.924C78.66 327.632 76.873 328 75 328zM92 330v-30l22 15" fill="#FFF"/><path d="M80.1 324.882l.596.122 4.53.925c-.565-.117-1.174.375-1.18.954l.036-4.344.006-.674.412-.533c1.612-2.086 2.5-4.64 2.5-7.333 0-6.627-5.373-12-12-12s-12 5.373-12 12 5.373 12 12 12c1.58 0 3.112-.304 4.54-.888l.56-.23zM75 328c-7.732 0-14-6.268-14-14s6.268-14 14-14 14 6.268 14 14c0 3.222-1.09 6.19-2.918 8.556l-.035 4.344c-.005.682-.556 1.124-1.22.988l-4.53-.924C78.66 327.632 76.873 328 75 328z" fill="#F7A521"/><path d="M75.8 307c-.982 0-1.578.902-1.578 1.7 0 .797.497 1.255 1.18 1.255.682 0 1.598-.613 1.598-1.66 0-1.05-.854-1.295-1.2-1.295zm1.138 10.6c.095.144.08.35-.04.467-.987.963-2.142 1.655-2.813 1.84-.72.2-1.297.136-1.353-.77-.057-.906.91-4.783.97-5.193.053-.346-.64.012-1.213.346-.168.097-.377.015-.458-.17-.067-.156-.026-.343.1-.446.99-.814 2.226-1.584 3.274-1.89.602-.175.95.04.97.845.02.805-.974 4.49-1.05 4.986-.114.73.64.274 1.186-.104.14-.098.327-.06.426.088z" fill="#666"/><g transform="translate(5 300)" fill="#666"><path d="M1.5 25.004c0 .82.673 1.496 1.494 1.496h14.012c.823 0 1.494-.67 1.494-1.496V2.996c0-.82-.673-1.496-1.494-1.496H2.994C2.17 1.5 1.5 2.17 1.5 2.996v22.008zM2.994 0h14.012C18.66 0 20 1.35 20 2.996v22.008C20 26.658 18.657 28 17.006 28H2.994C1.34 28 0 26.65 0 25.004V2.996C0 1.342 1.343 0 2.994 0z"/><rect y="20" width="17" height="1.5" rx=".75"/><rect x="8" y="23" width="4" height="2" rx="1"/></g><g fill="#666"><path d="M34.5 320.007c0 .817.673 1.493 1.49 1.493h18.02c.82 0 1.49-.67 1.49-1.493v-12.014c0-.817-.673-1.493-1.49-1.493H35.99c-.82 0-1.49.67-1.49 1.493v12.014zM35.99 305h18.02c1.65 0 2.99 1.353 2.99 2.993v12.014c0 1.653-1.342 2.993-2.99 2.993H35.99c-1.65 0-2.99-1.353-2.99-2.993v-12.014c0-1.653 1.342-2.993 2.99-2.993z"/><path d="M42.935 313.993c1.157.84 2.972.842 4.12.007l8.79-6.393c.336-.244.41-.713.166-1.048-.242-.336-.71-.41-1.046-.167l-8.79 6.393c-.623.453-1.726.452-2.357-.007l-6.497-4.726c-.335-.243-.804-.17-1.047.166-.244.335-.17.804.165 1.047l6.497 4.726z"/></g><g fill="#111"><path d="M86.614 233.995v52.01c0 1.925 1.572 3.495 3.508 3.495h34.58c1.94 0 3.51-1.566 3.51-3.495v-52.01c0-1.925-1.574-3.495-3.51-3.495h-34.58c-1.938 0-3.508 1.566-3.508 3.495zm-1.5 0c0-2.76 2.242-4.995 5.008-4.995h34.58c2.767 0 5.01 2.243 5.01 4.995v52.01c0 2.76-2.244 4.995-5.01 4.995h-34.58c-2.766 0-5.008-2.243-5.008-4.995v-52.01z"/><path d="M93.14 239.615v4.875c0 .835.667 1.5 1.496 1.5h25.552c.83 0 1.496-.668 1.496-1.5v-4.875c0-.835-.666-1.5-1.496-1.5H94.636c-.83 0-1.496.668-1.496 1.5zm-1.5 0c0-1.657 1.336-3 2.996-3h25.552c1.655 0 2.996 1.333 2.996 3v4.875c0 1.658-1.335 3-2.996 3H94.636c-1.654 0-2.996-1.333-2.996-3v-4.875zM95.583 259.456c2.178 0 3.943-1.704 3.943-3.807 0-2.103-1.765-3.808-3.943-3.808-2.177 0-3.943 1.705-3.943 3.807s1.766 3.806 3.943 3.806zm11.83 0c2.177 0 3.942-1.704 3.942-3.807 0-2.103-1.765-3.808-3.943-3.808-2.177 0-3.943 1.705-3.943 3.807s1.765 3.806 3.942 3.806zm11.828 0c2.18 0 3.944-1.704 3.944-3.807 0-2.103-1.765-3.808-3.943-3.808-2.176 0-3.942 1.705-3.942 3.807s1.766 3.806 3.943 3.806zM95.583 271.42c2.178 0 3.943-1.703 3.943-3.806 0-2.103-1.765-3.807-3.943-3.807-2.177 0-3.943 1.704-3.943 3.807 0 2.103 1.766 3.807 3.943 3.807zm11.83 0c2.177 0 3.942-1.703 3.942-3.806 0-2.103-1.765-3.807-3.943-3.807-2.177 0-3.943 1.704-3.943 3.807 0 2.103 1.765 3.807 3.942 3.807zm11.828 0c2.18 0 3.944-1.703 3.944-3.806 0-2.103-1.765-3.807-3.943-3.807-2.176 0-3.942 1.704-3.942 3.807 0 2.103 1.766 3.807 3.943 3.807zM95.583 282.298c2.178 0 3.943-1.704 3.943-3.807 0-2.1-1.765-3.806-3.943-3.806-2.177 0-3.943 1.705-3.943 3.807 0 2.104 1.766 3.808 3.943 3.808zm11.83 0c2.177 0 3.942-1.704 3.942-3.807 0-2.1-1.765-3.806-3.943-3.806-2.177 0-3.943 1.705-3.943 3.807 0 2.104 1.765 3.808 3.942 3.808zm11.828 0c2.18 0 3.944-1.704 3.944-3.807 0-2.1-1.765-3.806-3.943-3.806-2.176 0-3.942 1.705-3.942 3.807 0 2.104 1.766 3.808 3.943 3.808z"/><path d="M137.74 228.6L77.1 290.35l1.072 1.05 60.64-61.75"/></g><path d="M45.352 212.556c-.49-.447-.616-1.167-.307-1.754.93-1.764 1.352-3.838 1.074-6.027-.554-4.346-3.983-7.925-8.308-8.634-6.91-1.133-12.8 4.753-11.673 11.662.703 4.32 4.27 7.748 8.61 8.313 2.184.283 4.254-.133 6.02-1.055.58-.304 1.29-.18 1.736.3l5.463 5.9c.953 1.03 2.66.954 3.558-.174.776-.974.555-2.416-.367-3.253l-5.808-5.277zm-16.75-6.455c0-4.14 3.357-7.5 7.5-7.5 4.14 0 7.5 3.36 7.5 7.5 0 4.144-3.36 7.5-7.5 7.5-4.143 0-7.5-3.356-7.5-7.5z" fill="#FFF"/><path d="M94.3 5.37c.393.36 1.007.36 1.4 0l3.976-3.64c.413-.377.434-1.01.047-1.414-.387-.403-1.036-.423-1.45-.045L94.3 3.91h1.4L91.727.27c-.413-.377-1.062-.357-1.45.046-.386.403-.365 1.037.048 1.415L94.3 5.37z" fill="#ED2D23"/></g></svg>