<svg width="159" height="68" viewBox="0 0 159 68" xmlns="http://www.w3.org/2000/svg"><title>favful-logo</title><desc>Created with Sketch.</desc><g fill="none" fill-rule="evenodd"><g fill="#FF8A8A"><g><g><path d="M129.237 46.578c0 2.608.526 4.912 1.228 5.397.527.364 1.405 1.335 1.58 1.76.234.545 1.112 1.03 2.166 1.15-.058-.302-.058-.363-.058-1.757 0-5.095 1.756-12.98 5.033-22.44 3.862-11.098 8.25-19.285 14.337-26.745-.644-1.03-4.68-3.456-6.554-3.82-4.038 5.094-8.25 14.13-13.05 27.715-2.984 8.49-4.68 15.222-4.68 18.74zm-12.31 2.547c1.813 1.273 4.505 2.365 5.56 2.365 0 0 .233-.06.233-.243 0-.788-1.288-2.122-1.288-5.58 0-6.367 4.506-13.16 7.374-20.255-.702-.91-3.512-1.94-5.56-1.94-2.633 2.607-3.862 6.125-4.564 8.126-1.287 3.578-4.155 7.278-5.735 9.522-3.22 4.548-4.8 6.55-5.97 7.035-.116-.122-.41-.486-.41-1.092 0-2.123 1.698-7.642 2.46-9.46 3.51-8.613 6.73-13.222 7.43-14.01-1.17-1.395-3.86-1.88-5.207-1.88-4.916 3.7-9.07 13.948-10.475 20.074-.35 1.698-.468 2.91-.468 5.155.643 2.85 3.92 4.61 6.378 4.73.527-.06 1.522-.788 2.517-1.88 1.287-1.577 5.5-7.823 6.144-7.763-.175.545-.292 1.273-.292 2.183 0 1.395.41 3.638 1.872 4.912zm-32.09 18.86c1.228-6.852 5.91-22.56 11.762-40.753l6.436.363c-.06-1.516-.41-3.214-.76-3.578l-4.916.182c3.335-10.37 7.373-17.528 9.948-17.528-.234 1.577-.293 2.123-.293 2.608 0 .91.117 1.335.41 2.062.176.788.292 1.577.35 2.487.06 1.272.235 1.758.703 1.758 1.054-.85 2.107-2.79 3.102-5.822.468-1.88 1.23-4.003 1.873-5.155-.76-.545-1.405-.788-1.815-.788-.82 0-2.224.546-2.926 1.092-.468 0-1.404-.182-2.34-.182-6.38 0-12.64 7.702-16.327 19.953-2.868.424-5.618 1.03-6.38 1.334 0 .484.235 1.15.528 1.454 1.404-.242 2.633-.303 5.208-.303-5.56 20.317-7.022 27.534-8.31 35.843 1.23.728 1.815 1.516 1.99 2.668.176 1.093.76 1.88 1.756 2.306zM59.24 28.99c0 1.456.176 4.488.176 7.157 0 9.157-2.107 11.522-2.107 13.524 0 1.456 1.23 2.912 3.278 3.7 5.267-3.335 8.66-6.67 12.406-11.22 3.687-4.366 9.832-12.37 10.124-19.285-.468-.546-2.633-1.395-3.628-1.395-1.463 5.762-4.038 11.22-5.91 14.555-2.75 4.73-6.79 10.007-9.07 11.826-.118 0-.177 0-.177-.24 1.288-4.307 1.463-8.31 1.58-13.83.117-5.457.235-6.488.878-9.156-.642-.607-2.223-.85-3.334-.85-3.57 0-4.214 2.245-4.214 5.216zm-9.21-3.032c-1.696 3.64-4.036 8.187-5.675 11.038-4.213 7.277-7.022 10.673-9.304 11.16-.527-.184-.82-.608-.82-1.457 0-7.46 7.666-18.195 13.928-19.226-.175-1.516-2.808-4.366-4.388-4.79-6.32.363-14.747 12.735-14.747 21.77 0 4.186 1.99 7.218 4.857 7.34 3.628-.607 8.778-6.672 11.938-14.07-1.463 3.94-2.224 7.216-2.224 9.46 0 3.032 1.054 4.488 3.16 4.488 1.17 0 2.868-.485 3.804-1.09-1.053-.608-1.52-2.185-1.52-4.43 0-4.123 2.164-11.28 5.324-18.07.058-.79-2.692-2.124-4.33-2.124zm-26.06-.788c-1.873 0-4.8.364-7.843.85 4.388-10.25 5.5-12.676 6.437-14.132 2.984-.485 6.26-.91 10.182-.91 1.17 0 2.574.06 5.032.304-.76-3.518-2.224-5.58-4.038-5.58-2.633 0-10.3 1.334-20.072 1.334-2.34 0-3.57-.06-5.033-.303-.294.607-.528 1.698-.528 2.305 0 2.365 1.99 3.942 4.975 3.942h.292c-.996 4.912-2.166 8.126-4.448 14.434-2.575.606-4.507 1.152-4.916 1.576.468 1.334 1.638 2.426 3.22 2.972C3.02 43.122 1.323 47.487.153 50.035c1.814 3.093 3.745 4.73 6.378 5.336 1.23-7.276 3.453-14.675 6.964-23.226 3.16-.425 6.847-1.274 10.3-1.274 1.697 0 2.926.122 3.92.303.235-.485.293-1.273.293-1.88 0-2.607-1.522-4.123-4.04-4.123z"/></g><path d="M150.933 51.81c-.1-.088-.933-.53-3.11-2.116-6.58-4.796-5.11-8.13-3.604-9.606 1.137-1.115 2.63-1.51 4.166-1.03 1.017.32 1.865 1.044 2.36 1.97.073.137.185.402.185.402.005 0 .117-.265.19-.403.495-.925 1.343-1.65 2.36-1.968 1.536-.483 3.03-.087 4.168 1.028 1.06 1.037 2.1 2.996.334 5.736-.745 1.155-1.988 2.448-3.94 3.87-2.175 1.587-3.01 2.028-3.11 2.116z"/></g></g></g></svg>