<svg width="22" height="14" viewBox="0 0 22 14" xmlns="http://www.w3.org/2000/svg"><title>icon-email</title><desc>Created with Sketch.</desc><g fill="none" fill-rule="evenodd"><g fill="#7C233D"><path d="M.733 1.303c.587.29 8.85 4.683 9.143 4.828.342.194.733.242 1.124.242.39 0 .83-.048 1.124-.24.294-.146 8.556-4.54 9.143-4.83C21.902.967 22.44 0 21.364 0H.684C-.44 0 .147.966.734 1.303zM21.51 3.717c-.634.338-8.994 4.635-9.386 4.828-.44.24-.733.24-1.124.24-.39 0-.684 0-1.124-.24-.392-.193-8.703-4.49-9.387-4.828-.49-.24-.49.05-.49.242v8.88C0 13.325.684 14 1.222 14h19.556c.538 0 1.222-.676 1.222-1.16V3.96c0-.194 0-.484-.49-.243z"/></g></g></svg>