<svg width="24" height="20" viewBox="0 0 24 20" xmlns="http://www.w3.org/2000/svg"><title>icon-subscribe</title><desc>Created with Sketch.</desc><g fill="none" fill-rule="evenodd"><g fill="#FF8A8A"><path d="M23.302.042C22.885.205.732 8.31.314 8.472c-.365.107-.47.485 0 .647l4.952 2.052 2.92 1.19S22.31 1.66 22.52 1.5c.157-.163.417.107.26.27-.155.16-10.268 11.507-10.268 11.507l-.574.7.782.434s6.047 3.35 6.464 3.62c.417.216.886 0 .99-.487.157-.54 3.702-16.532 3.806-16.91.104-.432-.21-.757-.678-.595zM8.132 19.708c0 .324.21.378.47.162.313-.324 3.7-3.457 3.7-3.457l-4.17-2.215v5.51z"/></g></g></svg>