<svg width="20" height="21" viewBox="0 0 20 21" xmlns="http://www.w3.org/2000/svg"><title>icon-instagram</title><desc>Created with Sketch.</desc><g fill="none" fill-rule="evenodd"><g fill="#7C233D"><g><path d="M10 16.688c-3.35 0-6.047-2.854-6.047-6.288 0-.435.047-.822.094-1.21H0l.05 8.524c0 1.79 1.395 3.29 3.116 3.29h13.767c1.72 0 3.116-1.5 3.116-3.29L20 9.19h-4.093c.093.388.14.775.14 1.21 0 3.434-2.745 6.288-6.047 6.288zM16.884 0H3.116C1.396 0 0 1.45 0 3.24v3.532h5.07c1.07-1.645 2.883-2.66 4.93-2.66 2.047 0 3.814 1.015 4.93 2.66H20v-3.53C20 1.45 18.605 0 16.884 0zm1.488 4.015c0 .29-.232.58-.558.58H16.14c-.28 0-.56-.29-.56-.58V2.273c0-.338.28-.58.56-.58h1.674c.326 0 .558.242.558.58v1.742zm-4.65 6.385c0-2.177-1.675-3.87-3.722-3.87-2.047 0-3.72 1.693-3.72 3.87 0 2.128 1.673 3.87 3.72 3.87s3.72-1.742 3.72-3.87z"/></g></g></g></svg>