<?xml version="1.0" encoding="UTF-8" standalone="no"?>
<svg width="248px" height="67px" viewBox="0 0 248 67" version="1.1" xmlns="http://www.w3.org/2000/svg" xmlns:xlink="http://www.w3.org/1999/xlink" xmlns:sketch="http://www.bohemiancoding.com/sketch/ns">
    <!-- Generator: Sketch 3.2.2 (9983) - http://www.bohemiancoding.com/sketch -->
    <title>icon-usp</title>
    <desc>Created with Sketch.</desc>
    <defs></defs>
    <g id="Page-1" stroke="none" stroke-width="1" fill="none" fill-rule="evenodd" sketch:type="MSPage">
        <g id="icon-usp" sketch:type="MSArtboardGroup">
            <g id="Imported-Layers-15" sketch:type="MSLayerGroup" transform="translate(63.000000, 1.000000)">
                <path d="M59.9135955,27.3391978 C59.8859775,26.8923675 59.8493537,26.4461353 59.7989209,26.0034921 C59.7965193,25.9837526 59.7965193,25.9640131 59.7935174,25.9436755 C59.7869131,25.8886442 59.7755056,25.8378 59.7695017,25.7827687 C59.7034588,25.2390354 59.619404,24.7000874 59.52094,24.1641303 C59.4987255,24.0438988 59.4771114,23.9230692 59.4536962,23.8052304 C56.8594077,10.6401849 44.6570656,0 29.9847159,0 C13.4241373,0 0,13.5544519 0,28.9955207 C0,44.4359914 13.4241373,55.9166002 29.9847159,55.9166002 C29.9847159,55.9166002 29.8748444,57.8319292 28.5822031,60.0977837 C27.6203771,61.7852113 26.1548232,63.2118383 26.1548232,63.2118383 C26.1548232,63.2118383 25.1089425,64.03013 25.5334188,64.7497242 C25.7507602,65.1199893 27.2421309,65.0153101 28.2525886,64.8442345 C29.6280838,64.6097533 40.2195774,62.9342891 48.2852271,55.0259304 C56.7873608,46.6892845 60.6400684,37.275939 59.9135955,27.3391978 L59.9135955,27.3391978 Z" id="Stroke-1" stroke="#FF8A8A" stroke-width="2" sketch:type="MSShapeGroup"></path>
                <path d="M28.3792233,28.0617857 L28.3792233,43.9277143 C28.3792233,44.9630893 27.5497087,45.8022321 26.5262136,45.8022321 L20.8640777,45.8022321 C19.8405825,45.8022321 19.011068,44.9630893 19.011068,43.9277143 L19.011068,28.0617857 L28.3792233,28.0617857 L28.3792233,28.0617857 Z M21.9842718,31.601625 C21.9842718,30.5986607 20.8291262,30.5986607 20.8291262,31.601625 L20.8291262,39.9818571 C20.8291262,40.9854107 21.9842718,40.9854107 21.9842718,39.9818571 L21.9842718,31.601625 L21.9842718,31.601625 Z M26.932233,22.1642143 L26.932233,17.642625 C26.932233,17.0975357 23.1021359,12.0886071 21.2456311,10.4327143 C20.6264078,9.88055357 20.3316505,10.6000714 20.3316505,10.7815714 L20.3316505,22.1642143 L26.932233,22.1642143 L26.932233,22.1642143 Z" id="Fill-2" fill="#FF8A8A" sketch:type="MSShapeGroup"></path>
                <path d="M40.4240777,26.9951786 L34.1258252,26.9951786 C33.2048544,26.9951786 32.4592233,27.7506429 32.4592233,28.6817143 L32.4592233,41.3607857 L42.0906796,41.3607857 L42.0906796,28.6817143 C42.0906796,27.7506429 41.3450485,26.9951786 40.4240777,26.9951786 L40.4240777,26.9951786 Z M35.344466,37.9517679 C35.344466,38.9022857 34.1887379,38.9022857 34.1887379,37.9517679 L34.1887379,30.1849821 C34.1887379,29.2350536 35.344466,29.2350536 35.344466,30.1849821 L35.344466,37.9517679 L35.344466,37.9517679 Z M42.0906796,42.8351786 L42.0906796,44.1151071 C42.0906796,45.0473571 41.3450485,45.8022321 40.4240777,45.8022321 L34.1258252,45.8022321 C33.2048544,45.8022321 32.4592233,45.0473571 32.4592233,44.1151071 L32.4592233,42.8351786 L42.0906796,42.8351786 L42.0906796,42.8351786 Z" id="Fill-3" fill="#FF8A8A" sketch:type="MSShapeGroup"></path>
                <path d="M19.6407767,23.5714286 L27.7961165,23.5714286 L27.7961165,27.1071429 L19.6407767,27.1071429 L19.6407767,23.5714286 Z" id="Fill-4" fill="#FF8A8A" sketch:type="MSShapeGroup"></path>
            </g>
            <g id="Imported-Layers-12" sketch:type="MSLayerGroup" transform="translate(186.000000, 1.000000)">
                <path d="M60.9135955,27.3395444 C60.8853772,26.8927182 60.8493537,26.4464901 60.7983205,26.003851 C60.7965193,25.9841117 60.7965193,25.9643724 60.7935174,25.9434367 C60.7869131,25.8884059 60.7755056,25.8381604 60.7695017,25.7831296 C60.7034588,25.2394013 60.619404,24.7004583 60.52094,24.1639079 C60.4987255,24.0436776 60.4771114,23.9234472 60.4536962,23.8056095 C57.8588073,10.6406851 45.6564652,0 30.9847159,0 C14.4241373,0 1,13.5549253 1,28.9952539 C1,44.4361807 14.4241373,55.9166838 30.9847159,55.9166838 C30.9847159,55.9166838 30.8748444,57.8319952 29.5822031,60.0978288 C28.6203771,61.7852409 27.1548232,63.2118547 27.1548232,63.2118547 C27.1548232,63.2118547 26.1089425,64.0301389 26.5328184,64.7497265 C26.7507602,65.1199882 28.2421309,65.01531 29.2525886,64.844236 C30.6280838,64.6097569 41.2195774,62.9343081 49.2852271,55.0260221 C57.7873608,46.689453 61.6400684,37.2755959 60.9135955,27.3395444 L60.9135955,27.3395444 Z" id="Stroke-1" stroke="#FF8A8A" stroke-width="2" sketch:type="MSShapeGroup"></path>
                <path d="M47.1479208,34.1489092 C47.1479208,31.1513279 43.4704808,28.720402 38.9335208,28.720402 C36.6429608,28.720402 34.5719208,29.3407474 33.0820008,30.3401568 C36.5354408,31.5963723 38.8989608,33.8448817 39.2439208,36.5047985 L47.1479208,36.5047985 L47.1479208,34.1489092 L47.1479208,34.1489092 Z M43.0442408,22.527945 C43.0442408,25.0688383 40.9975208,27.1284625 38.4727208,27.1284625 C35.9485608,27.1284625 33.9012008,25.0688383 33.9012008,22.527945 C33.9012008,19.9876987 35.9485608,17.9280744 38.4727208,17.9280744 C40.9975208,17.9280744 43.0442408,19.9876987 43.0442408,22.527945 L43.0442408,22.527945 Z M37.6535208,40.0438073 L15.1479208,40.0438073 L15.1479208,37.1523122 C15.1479208,33.4722864 20.1860008,30.489583 26.4010408,30.489583 C32.6154408,30.489583 37.6535208,33.4722864 37.6535208,37.1523122 L37.6535208,40.0438073 L37.6535208,40.0438073 Z M32.0272808,22.7051866 C32.0272808,25.8321412 29.5082408,28.3665658 26.4010408,28.3665658 C23.2932008,28.3665658 20.7741608,25.8321412 20.7741608,22.7051866 C20.7741608,19.5782319 23.2932008,17.0438073 26.4010408,17.0438073 C29.5082408,17.0438073 32.0272808,19.5782319 32.0272808,22.7051866 L32.0272808,22.7051866 Z" id="Fill-2" fill="#FF8A8A" sketch:type="MSShapeGroup"></path>
            </g>
            <g id="Imported-Layers-13" sketch:type="MSLayerGroup" transform="translate(1.000000, 1.000000)">
                <path d="M59.9135955,27.3395444 C59.8853772,26.8927182 59.8493537,26.4464901 59.7983205,26.003851 C59.7965193,25.9841117 59.7965193,25.9643724 59.7935174,25.9434367 C59.7869131,25.8884059 59.7755056,25.8381604 59.7695017,25.7831296 C59.7034588,25.2394013 59.619404,24.7004583 59.52094,24.1639079 C59.4987255,24.0436776 59.4771114,23.9234472 59.4536962,23.8056095 C56.8588073,10.6406851 44.6564652,0 29.9847159,0 C13.4241373,0 0,13.5549253 0,28.9952539 C0,44.4361807 13.4241373,55.9166838 29.9847159,55.9166838 C29.9847159,55.9166838 29.8748444,57.8319952 28.5822031,60.0978288 C27.6203771,61.7852409 26.1548232,63.2118547 26.1548232,63.2118547 C26.1548232,63.2118547 25.1089425,64.0301389 25.5328184,64.7497265 C25.7507602,65.1199882 27.2421309,65.01531 28.2525886,64.844236 C29.6280838,64.6097569 40.2195774,62.9343081 48.2852271,55.0260221 C56.7873608,46.689453 60.6400684,37.2755959 59.9135955,27.3395444 L59.9135955,27.3395444 Z" id="Stroke-2" stroke="#FF8A8A" stroke-width="2" sketch:type="MSShapeGroup"></path>
                <g id="Group" transform="translate(8.000000, 20.000000)" fill="#FF8A8A" sketch:type="MSShapeGroup">
                    <path d="M14.01837,15.7743945 C14.16721,15.8991743 14.37095,16.0362477 14.61495,16.1763945 C14.32825,16.2390917 14.01715,16.4579174 13.41508,16.8679083 C12.53729,17.4684495 10.93238,18.242945 9.73617,18.715633 C11.75466,18.445789 15.14077,16.8261101 19.24607,17.7936147 L19.51203,17.8489358 C19.28206,17.7794771 19.06978,17.7124771 18.8636,17.6460917 C21.21759,18.129844 24.28589,18.3591193 27.90624,17.8876606 C20.45387,17.7733303 14.46245,15.4277156 12.28841,10.5041376 C13.49987,9.81385321 15.22373,8.88445872 17.41973,8.05402752 C17.67837,7.95629358 17.94128,7.8567156 18.20602,7.75836697 C18.20236,7.79217431 18.19626,7.82352294 18.1926,7.8567156 C17.98825,10.0001009 18.62387,12.1066055 19.98478,13.7766881 C21.34996,15.4393945 23.27207,16.468367 25.40341,16.6798165 C29.807,17.105789 33.73967,13.8510642 34.16118,9.41738532 C34.28379,8.14131193 34.10384,6.88429358 33.65854,5.72377982 C34.81998,6.03542202 35.96251,6.50011927 37.07088,7.15966972 C40.29473,8.82606422 43.10378,11.7248899 43.10378,11.7248899 C38.25977,3.81458716 27.74337,0.918834862 20.81255,2.31784404 C14.58506,3.57670642 13.47608,5.16749541 10.80367,6.70788073 C7.25225,8.75476147 6.4135,10.0166972 0.40378,7.79094495 C0.6734,8.11856881 0.72464,8.14868807 0.81248,8.24580734 C4.09977,9.91588991 10.55357,11.4667248 10.55357,11.4667248 C10.57126,11.4587339 10.59261,11.4476697 10.61213,11.4390642 C11.14954,12.6229358 12.17129,14.2364679 14.01837,15.7743945 L14.01837,15.7743945 Z M19.90121,8.03927523 C19.93354,7.71411009 19.99515,7.39816514 20.07262,7.08959633 C21.28469,6.67468807 22.54495,6.28436697 23.83449,5.96719266 C23.1824,6.54622018 22.73466,7.36497248 22.64255,8.30604587 C22.45711,10.2785505 23.89122,12.0273119 25.842,12.214789 C26.96867,12.3254312 28.02214,11.8896239 28.74743,11.1249633 C28.34971,11.0180092 27.99347,10.7936514 27.72751,10.4654128 C27.38347,10.0455872 27.22365,9.51757798 27.27977,8.97850459 C27.37859,7.89052294 28.33324,7.08590826 29.41111,7.15844037 C29.02986,6.32616514 28.33873,5.6573945 27.47131,5.31747706 C28.82856,5.17610092 30.19496,5.15827523 31.54733,5.31624771 C32.24578,6.4583211 32.59836,7.82782569 32.45989,9.2637156 C32.125,12.7563211 29.04328,15.3170734 25.57238,14.9783853 C22.10575,14.6390826 19.56144,11.5331101 19.90121,8.03927523 L19.90121,8.03927523 Z" id="Fill-2"></path>
                    <path d="M20.44228,2.49487156 C20.44228,2.49487156 16.60782,2.09102752 14.43317,0.764550459 C14.43317,0.764550459 15.9783,2.49487156 18.21029,3.24416514 C20.44228,3.99407339 20.44228,2.49487156 20.44228,2.49487156" id="Fill-3"></path>
                    <path d="M17.42949,3.64001835 C17.42949,3.64001835 13.78169,3.25584404 11.71257,1.99390826 C11.71257,1.99390826 13.18267,3.64001835 15.30608,4.35304587 C17.42949,5.06668807 17.42949,3.64001835 17.42949,3.64001835" id="Fill-4"></path>
                    <path d="M14.77294,4.84417431 C14.77294,4.84417431 10.90066,4.58969725 8.66196,3.34189908 C8.66196,3.34189908 10.28334,5.02058716 12.55742,5.6862844 C14.8315,6.35198165 14.77294,4.84417431 14.77294,4.84417431" id="Fill-5"></path>
                    <path d="M12.5013,6.35505505 C12.5013,6.35505505 8.28437,5.91125688 5.89317,4.45262385 C5.89317,4.45262385 7.59202,6.35505505 10.04666,7.17933945 C12.5013,8.00423853 12.5013,6.35505505 12.5013,6.35505505" id="Fill-6"></path>
                    <path d="M10.08143,7.86347706 C10.08143,7.86347706 5.29354,7.62682569 2.50462,6.13868807 C2.50462,6.13868807 4.53836,8.16774312 7.36022,8.9403945 C10.18147,9.71304587 10.08143,7.86347706 10.08143,7.86347706" id="Fill-7"></path>
                </g>
            </g>
            <g id="Imported-Layers-14" sketch:type="MSLayerGroup" transform="translate(125.000000, 1.000000)">
                <path d="M59.9135955,27.3389768 C59.8859775,26.8921501 59.8493537,26.4465196 59.7989209,26.00388 C59.7965193,25.9841407 59.7965193,25.9644014 59.7935174,25.9434657 C59.7869131,25.8884349 59.7755056,25.8375911 59.7695017,25.7825602 C59.7034588,25.2394295 59.619404,24.6998877 59.52094,24.1639349 C59.4987255,24.0437044 59.4771114,23.9234739 59.4536962,23.8050379 C56.8594077,10.640697 44.6570656,0 29.9847159,0 C13.4241373,0 0,13.5543423 0,28.9952863 C0,44.4362303 13.4241373,55.9167463 29.9847159,55.9167463 C29.9847159,55.9167463 29.8748444,57.8320598 28.5822031,60.097896 C27.6203771,61.7847118 26.1548232,63.2119254 26.1548232,63.2119254 C26.1548232,63.2119254 25.1089425,64.0296123 25.5334188,64.7497989 C25.7507602,65.1200609 27.2421309,65.0153827 28.2525886,64.8437103 C29.6280838,64.6098291 40.2195774,62.9337802 48.2852271,55.0254855 C56.7873608,46.6895051 60.6400684,37.2756376 59.9135955,27.3389768 L59.9135955,27.3389768 Z" id="Stroke-1" stroke="#FF8A8A" stroke-width="2" sketch:type="MSShapeGroup"></path>
                <path d="M43.4062136,43.8870796 L43.4062136,44.0763186 C43.4062136,45.5855575 42.1852427,46.8091858 40.68,46.8091858 L31.5431068,46.8091858 C30.0384466,46.8091858 28.8180583,45.5855575 28.8180583,44.0763186 L28.8180583,43.8870796 L43.4062136,43.8870796 L43.4062136,43.8870796 Z M43.4062136,28.6632743 L43.4062136,43.1131858 L28.8180583,43.1131858 L28.8180583,28.6632743 C28.8180583,27.6341416 30.9728155,24.6682301 32.8205825,22.8885664 L32.8205825,22.0480885 L39.4031068,22.0480885 L39.4031068,22.8885664 C41.2497087,24.6682301 43.4062136,27.6341416 43.4062136,28.6632743 L43.4062136,28.6632743 Z M40.8500971,30.6911681 L37.4743689,30.6911681 C36.7223301,30.6911681 36.1118447,31.3026903 36.1118447,32.0561416 L36.1118447,39.6893628 C36.1118447,40.4428142 36.7223301,41.0549204 37.4743689,41.0549204 L40.8500971,41.0549204 C41.603301,41.0549204 42.2126214,40.4428142 42.2126214,39.6893628 L42.2126214,32.0561416 C42.2126214,31.3026903 41.603301,30.6911681 40.8500971,30.6911681 L40.8500971,30.6911681 Z M38.8706796,20.0529027 L33.3530097,20.0529027 C33.0314563,20.3017168 32.8205825,20.6866195 32.8205825,21.1258407 L32.8205825,21.4850442 L39.4031068,21.4850442 L39.4031068,21.1258407 C39.4031068,20.6866195 39.1916505,20.3017168 38.8706796,20.0529027 L38.8706796,20.0529027 Z M33.8091262,11.7608496 L35.6178641,11.7608496 L35.6178641,14.8213805 L34.3351456,14.8213805 C34.0654369,14.8213805 33.8464078,15.0404071 33.8464078,15.3102478 L33.8464078,19.2463009 L38.376699,19.2463009 L38.376699,15.3102478 C38.376699,15.0404071 38.1582524,14.8213805 37.8873786,14.8213805 L36.6052427,14.8213805 L36.6052427,11.7608496 L38.4250485,11.7608496 C38.6947573,11.7608496 38.9132039,11.5400708 38.9132039,11.2702301 L38.9132039,11.245115 C39.9058252,11.245115 40.7627184,11.8023186 41.2083495,12.6176814 C41.3283495,12.4996991 41.4466019,12.3793805 41.5654369,12.2608142 C41.0184466,11.3619292 40.0392233,10.7544956 38.9132039,10.7544956 L38.9132039,10.7282124 C38.9132039,10.4583717 38.6947573,10.2393451 38.4250485,10.2393451 L33.8091262,10.2393451 C33.5394175,10.2393451 33.3203883,10.4583717 33.3203883,10.7282124 L33.3203883,11.2702301 C33.3203883,11.5400708 33.5394175,11.7608496 33.8091262,11.7608496 L33.8091262,11.7608496 Z" id="Fill-2" fill="#FF8A8A" sketch:type="MSShapeGroup"></path>
                <path d="M26.8328155,41.3393628 C26.8170874,41.4818761 26.8007767,41.6191327 26.7792233,41.737115 L25.6770874,45.7806372 C25.5763107,46.3466018 25.0234951,46.8091858 24.4497087,46.8091858 L17.8590291,46.8091858 C17.2864078,46.8091858 16.7335922,46.3466018 16.6316505,45.7806372 L15.5306796,41.737115 C15.5091262,41.6191327 15.491068,41.4818761 15.4765049,41.3393628 L26.8328155,41.3393628 L26.8328155,41.3393628 Z M15.5341748,38.651469 L16.7056311,23.1052566 C16.7667961,22.5352035 17.2864078,22.0661947 17.8590291,22.0661947 L24.4497087,22.0661947 C25.0234951,22.0661947 25.5413592,22.5352035 25.6031068,23.1052566 L26.7757282,38.651469 L15.5341748,38.651469 L15.5341748,38.651469 Z M23.1856311,36.2071327 C23.1856311,36.4956637 23.3924272,36.7298761 23.6487379,36.7298761 L23.9376699,36.7298761 C24.1933981,36.7298761 24.4013592,36.4956637 24.4013592,36.2071327 L24.4013592,24.2541239 C24.4013592,23.9650088 24.1933981,23.7313805 23.9376699,23.7313805 L23.6487379,23.7313805 C23.3924272,23.7313805 23.1856311,23.9650088 23.1856311,24.2541239 L23.1856311,36.2071327 L23.1856311,36.2071327 Z M26.8170874,39.2051681 L15.491068,39.2051681 L15.4561165,39.6689204 C15.4374757,39.8499823 15.4281553,40.0678407 15.4269903,40.2967965 L26.8823301,40.2967965 C26.8805825,40.0678407 26.8724272,39.8499823 26.8526214,39.6689204 L26.8170874,39.2051681 L26.8170874,39.2051681 Z" id="Fill-3" fill="#FF8A8A" sketch:type="MSShapeGroup"></path>
                <path d="M42.5493204,15.2232212 C42.5493204,15.7926903 42.1293204,16.2225664 41.6108738,16.2225664 C41.0930097,16.2225664 40.6730097,15.7926903 40.6730097,15.2232212 C40.6730097,14.4662655 41.6108738,12.8647434 41.6108738,12.8647434 C41.6108738,12.8647434 42.5493204,14.4662655 42.5493204,15.2232212" id="Fill-4" fill="#FF8A8A" sketch:type="MSShapeGroup"></path>
            </g>
        </g>
    </g>
</svg>