<svg width="13" height="10" viewBox="0 0 13 10" xmlns="http://www.w3.org/2000/svg"><title>icon-heart</title><desc>Created with Sketch.</desc><g fill="none" fill-rule="evenodd"><g fill="#B04061"><path d="M6.5 10c-.08-.068-.758-.408-2.527-1.633C-1.373 4.664-.18 2.09 1.043.95 1.97.09 3.184-.216 4.43.156c.827.246 1.516.805 1.918 1.52.06.106.15.31.15.31.003 0 .095-.204.154-.31C7.054.96 7.742.4 8.57.155 9.817-.216 11.03.09 11.956.95c.86.8 1.707 2.313.27 4.43-.604.89-1.614 1.89-3.2 2.987C7.26 9.592 6.582 9.932 6.5 10z"/></g></g></svg>