<?xml version="1.0" encoding="UTF-8" standalone="no"?>
<svg width="32px" height="14px" viewBox="0 0 32 14" version="1.1" xmlns="http://www.w3.org/2000/svg" xmlns:xlink="http://www.w3.org/1999/xlink" xmlns:sketch="http://www.bohemiancoding.com/sketch/ns">
    <!-- Generator: Sketch 3.2.2 (9983) - http://www.bohemiancoding.com/sketch -->
    <title>icon-bottom-cta</title>
    <desc>Created with Sketch.</desc>
    <defs></defs>
    <g id="Page-1" stroke="none" stroke-width="1" fill="none" fill-rule="evenodd" sketch:type="MSPage">
        <g id="icon-bottom-cta" sketch:type="MSArtboardGroup" fill="#708EAB">
            <path d="M22.4372057,10.1629414 C21.5280159,9.25375168 20.9685145,8.44946844 18.9752908,10.0580349 C16.9820672,11.6666014 18.520696,12.7506353 19.3949169,13.6248562 C20.4090131,14.6389525 24.1856475,13.6598251 27.927313,9.91815957 C31.6689785,6.2114629 32.6131371,2.39985971 31.5990408,1.38576345 C30.7248199,0.511542541 29.6757548,-1.02708627 28.0671883,1.00110625 C26.4586219,2.99432994 27.2279363,3.55383132 28.137126,4.46302107 C28.7665651,5.09246013 27.4377493,6.70102661 26.0739647,8.06481123 C24.6752112,9.46356469 23.0666447,10.7923805 22.4372057,10.1629414 Z" id="📞" sketch:type="MSShapeGroup"></path>
            <path d="M17,0 L1,0 C0.448,0 0,0.448 0,1 L0,3 L18,3 L18,1 C18,0.448 17.552,0 17,0 L17,0 Z M0,11 C0,11.552 0.448,12 1,12 L17,12 C17.552,12 18,11.552 18,11 L18,5 L0,5 L0,11 L0,11 Z M7,8 L9,8 L9,10 L7,10 L7,8 Z M2,8 L6,8 L6,10 L2,10 L2,8 Z" id="Imported-Layers" sketch:type="MSShapeGroup"></path>
        </g>
    </g>
</svg>