<svg width="30" height="18" viewBox="0 0 30 18" xmlns="http://www.w3.org/2000/svg"><title>icon-bottom-cta</title><desc>Created with Sketch.</desc><g fill="#708EAB"><path d="M0 1.002C0 .45.445 0 .993 0h16.014c.548 0 .993.456.993 1.002v9.996c0 .553-.445 1.002-.993 1.002H.993C.445 12 0 11.544 0 10.998V1.002zM0 3h18v2H0V3zm2 5h4v2H2V8zm5 0h2v2H7V8z"/><path d="M27.976 0H20.04C18.94 0 18 .898 18 2.04v13.904c0 1.102.94 2.04 2.04 2.04h7.936c1.143 0 2.04-.938 2.04-2.04V2.04C30.017.9 28.94 0 27.797 0h.18zm-4.058 17.04c-.775 0-1.428-.49-1.428-1.02 0-.57.653-1.02 1.428-1.02.817 0 1.43.45 1.43 1.02 0 .53-.613 1.02-1.43 1.02zM28 14h-8V2h8v12z"/></g></svg>