<svg width="36" height="41" viewBox="0 0 36 41" xmlns="http://www.w3.org/2000/svg"><title>icon-flame</title><desc>Created with Sketch.</desc><g fill="none"><g transform="translate(.578 0)" fill="#EF4400"><ellipse id="Oval-2" cx="15.726" cy="25.129" rx="15.726" ry="15.686"/><path d="M8.75 11.086l12.23-6.83-2.418 8.096-9.813-1.266zM16.696 11.256L34.97.683 29.175 23.28l-12.48-12.024zM30.874 29.375l-1.782-10.07 5.73-4.573-3.948 14.643z" id="Path-31"/></g><g transform="translate(4.721 8.372)" fill="#DE2C00"><ellipse cx="11.101" cy="17.217" rx="11.101" ry="10.959"/><path d="M6.176 7.405l8.635-4.77-1.707 5.655-6.927-.885zM11.786 7.524l12.9-7.387-4.09 15.788-8.81-8.4zM21.795 20.183l-1.258-7.035 4.046-3.195-2.788 10.23z"/></g></g></svg>