<svg xmlns="http://www.w3.org/2000/svg" width="92" height="55" viewBox="0 0 92 55"><title>icon-flame</title><desc>Created with Sketch.</desc><path fill="#EF4400" d="M35.048.683l-15.622 9.04 1.632-5.467-12.23 6.83C3.648 13.652.078 18.968.078 25.13c0 8.662 7.04 15.685 15.726 15.685 7.225 0 13.297-4.867 15.14-11.49l.008.05L34.9 14.732 30.556 18.2 35.048.682z"/><path fill="#DE2C00" d="M28.907 8.51L17.88 14.822l1.152-3.816-8.635 4.77h.003c-3.658 1.792-6.18 5.507-6.18 9.812 0 6.05 4.97 10.958 11.102 10.958 5.1 0 9.388-3.4 10.688-8.03l.006.037 2.788-10.23-3.067 2.422 3.17-12.238v.003z"/><path fill="#fff" d="M54.905 22.75c-.325-.333-.835-.333-1.16 0-.326.29-.326.815 0 1.15l9.198 9.385c.325.287.836.287 1.114 0l9.2-9.385c.324-.335.324-.86 0-1.15-.326-.334-.837-.334-1.116 0l-8.64 8.525-8.594-8.525z"/><path d="M22.437 51.163c-.91-.91-1.47-1.713-3.462-.105s-.455 2.693.42 3.567c1.014 1.014 4.79.035 8.532-3.707 3.742-3.707 4.686-7.518 3.672-8.532-.877-.874-1.926-2.413-3.535-.385-1.61 1.996-.84 2.556.07 3.465.63.63-.7 2.238-2.063 3.602-1.4 1.4-3.007 2.727-3.637 2.098zM17 41H1c-.552 0-1 .448-1 1v2h18v-2c0-.552-.448-1-1-1zM0 52c0 .552.448 1 1 1h16c.552 0 1-.448 1-1v-6H0v6zm7-3h2v2H7v-2zm-5 0h4v2H2v-2z" fill="#708EAB"/></svg>