<?xml version="1.0" encoding="UTF-8" standalone="no"?>
<svg width="18px" height="11px" viewBox="0 0 18 11" version="1.1" xmlns="http://www.w3.org/2000/svg" xmlns:xlink="http://www.w3.org/1999/xlink" xmlns:sketch="http://www.bohemiancoding.com/sketch/ns">
    <!-- Generator: Sketch 3.2.2 (9983) - http://www.bohemiancoding.com/sketch -->
    <title>icon-aside-newsletter</title>
    <desc>Created with Sketch.</desc>
    <defs></defs>
    <g id="Page-1" stroke="none" stroke-width="1" fill="none" fill-rule="evenodd" sketch:type="MSPage">
        <g id="icon-aside-newsletter" sketch:type="MSArtboardGroup" fill="#A1B0BF">
            <path d="M0.6,1.08 C1.08,1.32 7.84,4.96 8.08,5.08 C8.36,5.24 8.68,5.28 9,5.28 C9.32,5.28 9.68,5.24 9.92,5.08 C10.16,4.96 16.92,1.32 17.4,1.08 C17.92,0.8 18.36,0 17.48,0 L0.56,0 C-0.36,0 0.12,0.8 0.6,1.08 L0.6,1.08 Z M9.92,7.08 C9.56,7.28 9.32,7.28 9,7.28 C8.68,7.28 8.44,7.28 8.08,7.08 C7.76,6.92 0.96,3.36 0.4,3.08 C-4.4408921e-16,2.88 -4.4408921e-16,3.12 -4.4408921e-16,3.28 C-4.4408921e-16,3.48 -0.00134277344,10.0147315 -0.00134277344,10.0147315 C-0.00134277344,10.4147315 0.558657227,10.9747315 0.998657227,10.9747315 L16.9986572,10.9747315 C17.4386572,10.9747315 17.9986572,10.4147315 17.9986572,10.0147315 C17.9986572,10.0147315 18,3.48 18,3.28 C18,3.12 18,2.88 17.6,3.08 C17.08,3.36 10.24,6.92 9.92,7.08 Z" id="✉" sketch:type="MSShapeGroup"></path>
        </g>
    </g>
</svg>