<svg width="190" height="94" viewBox="0 0 190 94" xmlns="http://www.w3.org/2000/svg"><title>why-fast</title><desc>Created with Sketch.</desc><g fill="none"><path d="M13 4h120v76H13V4zm120.5-4h-120C11.29 0 9 1.29 9 3.5v76c0 2.21 2.29 4.5 4.5 4.5h120c2.21 0 3.5-2.29 3.5-4.5v-76c0-2.21-1.29-3.5-3.5-3.5z" fill="#2C96B9"/><path d="M4 84h139v6H4v-6zm140.886-4H2.113C.946 80 0 80.784 0 81.75v10.5C0 93.216.946 94 2.113 94h142.773c1.168 0 2.114-.784 2.114-1.75v-10.5c0-.966-.946-1.75-2.114-1.75z" fill="#2C96B9"/><path d="M21 12h104v68H21V12zm-4 72h112V8H17v76z" fill="#2C96B9"/><path d="M88.788 84l-1.323 1h-26.93l-1.11-1H89m10-4H49l10 9h30l10-9" fill="#2C96B9"/><path d="M80 44v10h12v11H78V44h2m2-4h-6c-1.105 0-2 .895-2 2v25c0 1.105.895 2 2 2h18c1.105 0 2-.895 2-2V52c0-1.105-.895-2-2-2H84v-8c0-1.105-.895-2-2-2" fill="#183D5A"/><path d="M107 32v18H92v4h17c1.105 0 2-.727 2-1.625v-22.75c0-.897-.895-1.625-2-1.625H35c-1.105 0-2 .728-2 1.625v22.75c0 .898.895 1.625 2 1.625h39v-4H37V32h70" fill="#183D5A"/><path d="M154 62h24v28h-24V62zm26.06-4h-28.12c-1.072 0-1.94.672-1.94 1.5v33c0 .828.868 1.5 1.94 1.5h28.12c1.072 0 1.94-.672 1.94-1.5v-33c0-.828-.868-1.5-1.94-1.5z" fill="#2C96B9"/><path d="M182 70h4v11h-4V70zm6-4h-8c-1.105 0-2 .895-2 2v15c0 1.105.895 2 2 2h8c1.105 0 2-.895 2-2V68c0-1.105-.895-2-2-2z" fill="#2C96B9"/><path d="M162.9 46c0 2.5-1.8 2.5-1.8 4.998 0 2.5 1.8 2.5 1.8 5s-1.8 2.5-1.8 5.002m9.8-15c0 2.5-1.8 2.5-1.8 4.998 0 2.5 1.8 2.5 1.8 5s-1.8 2.5-1.8 5.002" stroke="#2C96B9" stroke-width="4"/></g></svg>