<svg xmlns="http://www.w3.org/2000/svg" width="640" height="138" viewBox="0 0 640 138"><title>why-imoney</title><desc>Created with Sketch.</desc><path fill="#2C96B9" d="M196.036 133.982v-16h-16v-10h-19.96l-.782-12h1.738l4-19h-8v-8h-5v-1h3v-4h-3v-1h3v-4h-3v-8h-4v8h-3v4h3v1h-3v4h3v1h-5v8h-8.002l4 19h1.74l-.39 6h-19.35v14h-11.002v-4h-2v-22h-2v-18h-7v-8h-5.002v-18h-4v18h-5v8h-7v18H60.022v-19h-7v-8h-5v-17h-4v17h-5v8H32.02v19h-2v22h-2v4H4.02v18H0V138h200v-4.018h-3.964zm-168.015 0H8.02v-14H28.02v14zm61.006-66h6v4h-6v-4zm-7 8h20.002v14H82.025v-14zm-2 18h24.002v18H80.025v-18zm-18.003 8h2l-2 2v-2zm-19-35h6v4h-6v-4zm-7.002 8h20.003v15H36.02v-15zm-2 19h24.003v18H34.02v-18zm26.004 40H32.02v-18h28.004l-.024 18zm16-22h-2v22h-10v-22h-2v-2.343l6.925-6.925 7.075 7.074L76 111.98zm0-7.85l-2.15-2.15h2.15v2.15zm0-6.15h-14v-4h14v4zm30.004 36H78.025v-18h28.003v18zm15 0h-11v-14h11v14zm17.264 0H125.03v-28h15.088l-1.826 28zm8.74-61h6v4h-6v-4zm-4.73 61l2.478-38h10.379l2.604 38H142.3zm-.024-42l-2.316-11H160.068l-2.28 11h-15.51zm33.756 42h-14.262l-1.435-22h15.697v22zm16.002 0h-12.002v-12h12.002v12z"/><g fill="#193D5A"><path d="M31.943 20v7.184c-1 .413-2 1.51-2 2.816 0 1.3 1 2.4 2 2.816V40h4V20h-4"/><path d="M131.952 32h4v-2h2v2h4v-2h2v-4h-2v-2h2v-4h-2v-2h-4v2h-2v-2h-4v2h-2v4h2v2h-2v4h2v2zm3.668-8h2v2h-2v-2zm19 8h4.334v-4h-4V14h-8v4h4v10h-4v4h7.667zm18.336-20V8H113.95v1l-11.168 11-.255-.172-2.703 2.83 14.126 14V38h52.005v-2h7v-4h-7v-4h7v-4h-7v-4h7v-4h-7v-4h7zM113.95 31l-8.172-8.172 8.173-8.17v16.34zm4-19h44.005v22H117.95l.05-22z"/><path d="M98.616 7l-8 10H86.23c-.098-5.234-4.2-8.875-10.055-8.875S66.218 11.8 66.1 17H52.612c-8 0-16 5-16 14 0 3 7 3 16 3h8.16c.92 3.7 6 4 12.4 4h1.025c6.09 0 11.218-2.885 13.39-4.25 5.925-.582 15.024-1.982 15.024-4.68l3-22.07h-6.994zm-22.44 5.1c2.757 0 6 1.3 6.1 4.915C80.87 18.8 78.6 20 76.1 20c-2.46 0-4.634-1.115-6.003-2.824.023-3.776 3.303-5.076 6.103-5.05h-.025zM41.052 29.512C41.89 23.9 46.9 21 52.9 21v9c-3.955 0-9.4 0-11.8-.488h-.047zm41.802 2.257C80.642 32.8 77.6 34 74.2 34h-1.024c-2.986 0-7.986-.137-8.542-.94 0 0-.015-.12-.02-.225.036-1.305 3.037-2.732 9.586-2.732 3.353-.003 6.4.897 8.7 1.666h-.045zm15.827-4.29c-1.673.74-5.644 1.513-10.217 2C88.182 29.4 82 26 74.2 26c-7.963 0-11.454 1.838-12.818 4h-4.438v-9h11.28c2.116 1.9 4.9 3 7.9 3 2.952 0 5.774-1.095 7.89-3h8.535l8-10h.287l-2.155 16.48z"/></g><path fill="#193D5A" d="M579 48.056c-10.493 0-19 8.502-19 18.988 0 4.4 1.5 8.4 4 11.624v24.288h30V78.668c2.502-3.21 4-7.238 4-11.624 0-10.444-8.5-18.944-19-18.988zm11 43.975h-17v4h17v2.926h-22V88.95h18v-3.997h-18v-2.997h22V92.03zm-.735-14.074H587v-8.993h-4v8.993h-8v-8.993h-4v8.993h-2.265C565.825 75.2 564 71.3 564 67c0-8.266 6.73-14.99 15-14.99s15 6.7 15 14.99c0 4.3-1.8 8.2-4.7 10.956zM577 72.96h4v-3.997h-4v3.997z"/><path fill="#2C96B8" d="M564.14 10C528.682 10 490 25.2 490 59.396c0 28.1 21 30.6 28.4 30.6 1.582 0 2.543-.114 2.543-.114 0 19.4 14.6 23.2 25.9 23.156 7.05 0 12.782-1.464 12.782-1.464s22.995 22.3 25.1 25.128c.716.9 1.6 1.3 2.6 1.288 2.006 0 4.394-1.432 6.4-2.577 3.008-1.718-4.513-13.744-4.513-13.744s11.39-.53 19.555-2.46c8.167-1.934 10.53-13.2 10.53-13.2h.465c5.056 0 20.166-.306 20.166-25.674C640 21.9 584.1 10 564.1 10zM614 31.356c10 8 16.6 18.3 19.8 30.612H614V31.356zm-58-17.073c2.717-.183 5.436-.285 8.14-.285 5.44 0 12.7.9 20.6 2.998H556v-2.713zm11 13.707v13.99h-30V27.99h30zm-15-13.374v9.374h-19v8.996h-10v5.996h-7.555c-.693-1.19-1.97-2-3.445-2-2.21 0-4 1.79-4 4s1.79 4 4 4c1.477 0 2.752-.81 3.445-2H523V49h-14v4.973h-14.61C497.855 30 524.2 17.4 552 14.616zM548 53v7h-35v-7h35zm-50.64 21.96c-2.228-4.097-3.36-9.293-3.36-15.563 0-.484.035-.95.052-1.426H502v16.99h-4.64zm122.474 27.062h-.464l-3.223.11-.688 3.193c-.014.06-1.01 4.284-3.46 7.286V92.95h13v-6.997h10.7c-1.857 16.147-11.9 16.047-15.9 16.07zM604 88.95v-9.992h17v9.99h-17zm21-6.995v-6.997h-25v17.99h8v22.426c-.028.007-.054.02-.082.027-7.68 1.82-18.676 2.267-18.786 2.27l-6.893.27 3.65 5.9c2 3.2 3.8 7 4.4 9.004-.922.505-1.968 1.03-2.625 1.17-2.442-2.888-14.117-14.363-20.945-21.03h26.81c.692 1.2 2 2 3.4 2 2.208 0 4-1.79 4-3.998s-1.792-3.997-4-3.997c-1.478 0-2.753.807-3.446 1.997H581v-5.996h-4v5.997h-14.358l-.227-.22-1.607-1.556-2.166.55c-.053.012-5.38 1.34-11.797 1.3-6.21 0-11.385-1.255-14.962-3.63-4.668-3.096-6.937-8.176-6.937-15.53l-.014-4.464-4.442.5c-.008 0-.8.088-2.087.088-3.234 0-9.45-.53-14.75-4.078-1.28-.858-2.43-1.854-3.458-2.974H533v15.99h9V98.5c-1.19.693-2 1.968-2 3.443 0 2.2 1.8 4 4 3.997s4-1.79 4-3.997c0-1.476-.81-2.75-2-3.443v-3.55h9V66.962h-22v7.996h-27V57.97h3V64h43V49h-25V36.984h6v8.995h38V37h4.564c.695 1.2 2 2 3.4 1.98 2.21 0 4-1.788 4-3.996 0-2.207-1.79-3.998-4-3.998-1.483 0-2.763.817-3.454 2.015H571v-9.01h-15v-2.996h40.38c3.753 1.6 7.5 3.5 11.1 5.7.67.4 1.3.9 2 1.3H589v17.992h21v19.946h1v.025h23.67C635.54 70.5 636 75.3 636 80.3c0 .554-.013 1.084-.028 1.61 0 .09-10.972.09-10.972.045zm-88 8.993V70.963h14v19.985h-14zm73-58.944v9.99h-17v-9.99h17z"/><path fill="#2C96B9" d="M268.185 41.424l6.513-11.655L262.274 18h-24.848l-12.424 11.77 6.57 11.8C213.08 48.9 200 66.9 200 88c0 27.6 22.4 50 50 50s50.005-22.386 50.005-50c.003-21.2-13.205-39.3-31.805-46.576zM239.02 22h21.823l7.322 7H231.63l7.39-7zm-7.63 11h36.99l-8.454 15h-20.154l-8.383-15zm54.616 55c0 19.85-16.15 36-36.003 36S214 107.9 214 88c0-19.85 16.15-36 36.003-36S286.006 68.2 286 88zm-36.003 46C224.637 134 204 113.364 204 88c0-19.566 12.285-36.308 29.544-42.945l2.955 5.3C221.05 55.9 210 70.6 210 88c0 22.1 17.9 40 40 40s40.004-17.91 40.004-40c0-17.448-11.176-32.278-26.76-37.745l2.963-5.3c17.392 6.6 29.8 23.4 29.8 43.045 0 25.4-20.607 46-46.007 46z"/><path fill="#2C96B9" d="M248.003 1h4v10h-4V1z"/><path fill="#2C96B9" d="M237.234 13.885l-3.464 2-3.45-5.977 3.463-2 3.45 5.992"/><path fill="#2C96B9" d="M225.886 23.768l-2 3.464-8.66-5 2-3.464 8.66 5.032"/><path fill="#2C96B9" d="M276.12 27.232l-2-3.464 8.662-5 2 3.464-8.66 4.968"/><path fill="#2C96B9" d="M266.237 15.885l-3.464-2 3.634-6.294 3.464 2-3.633 6.31"/><path fill="#183D5A" d="M226 84v12h4v-8h4.002v-4h-8zm10.002 0v12h4v-8h2v8h4v-8h2v8h4V84h-16zM256.004 74v22h16V74h-16zm12 18h-8V78h8v14z"/><path fill="#2C96B9" d="M444.9 124h-7.924c.015-.167.036-.333.036-.5v-76c0-2.21-1.29-3.5-3.5-3.5h-120.01c-2.21 0-4.5 1.29-4.5 3.5v76c0 .2 0 .3.1.5h-6.95c-1.168 0-2.114.784-2.114 1.75v10.5c0 1 .9 1.8 2.1 1.75h142.786c1.168 0 2.114-.784 2.114-1.75v-10.5c-.024-.95-.938-1.75-2.138-1.75zM313 48h120.012v76h-4V52h-112.01v72h-4V48zm8.002 76V56h104.01v68h-104.01zm67.794 4l-1.323 1H360.54l-1.11-1h29.366zm54.218 6H304v-6h49.45l5.555 5h30.003l5.556-5h48.45v6z"/><path fill="#183D5A" d="M380.008 88v10h12v11h-14V88h2m2-4h-6c-1.106 0-2 .895-2 2v25c0 1.1.9 2 2 2h18c1.106 0 2-.895 2-2V96c0-1.105-.894-2-2-2h-10v-8c0-1.1-.908-2-2.008-2"/><path fill="#183D5A" d="M407.01 76v18h-15v4h17c1.106 0 2-.727 2-1.625v-22.75c0-.897-.894-1.625-2-1.625h-74.006c-1.105 0-2 .728-2 1.625v22.75c0 .9.9 1.6 2 1.625h39.004v-4h-37.003V76h70.005"/><path fill="#2C96B9" d="M487.004 110h-6v-6.5c0-.828-.87-1.5-1.94-1.5h-7.504c.2-.543.343-1.193.343-2 0-1.897-.77-2.965-1.277-3.67-.38-.53-.523-.728-.523-1.332 0-.604.143-.802.523-1.33.51-.706 1.277-1.772 1.277-3.668h-4c0 .604-.143.802-.523 1.33-.51.706-1.277 1.772-1.277 3.7s.77 3 1.3 3.67c.38.5.5.7.5 1.33 0 .605-.143.804-.523 1.3-.138.193-.296.416-.452.67h-3.368c.2-.542.343-1.192.343-2 0-1.896-.77-2.964-1.277-3.67-.38-.528-.523-.727-.523-1.33 0-.605.143-.803.523-1.33.51-.707 1.277-1.773 1.277-3.67h-4c0 .605-.143.803-.523 1.33-.51.707-1.277 1.773-1.277 3.67s.77 3 1.3 3.7c.38.5.5.7.5 1.33 0 .605-.143.804-.523 1.332-.138.192-.296.415-.452.67h-7.987c-1.07 0-1.938.672-1.938 1.5v33c0 .8.9 1.5 1.9 1.5h28.125c1.07 0 1.94-.672 1.94-1.5V129h6c1.105 0 2-.895 2-2v-15c.037-1.1-.867-2-1.967-2zm-10 2H477v22h-24.002v-28H477v6zm8 13h-4v-11h4v11z"/></svg>