<svg width="100" height="137" viewBox="0 0 100 137" xmlns="http://www.w3.org/2000/svg"><title>why-free</title><desc>Created with Sketch.</desc><g fill="none"><path d="M68.18 40.424l6.512-11.655L62.27 17H37.422L25 28.77l6.568 11.753C13.078 47.863 0 65.898 0 87c0 27.614 22.386 50 50 50s50-22.386 50-50c0-21.198-13.198-39.302-31.82-46.576zm-38.17-10.89L39.016 21h21.82l8.927 8.534L59.922 47H39.77l-9.76-17.466zM50 51c19.85 0 36 16.15 36 36s-16.15 36-36 36-36-16.15-36-36 16.15-36 36-36zm0 82c-25.364 0-46-20.636-46-46 0-19.566 12.285-36.308 29.542-42.945l2.955 5.287C21.05 54.882 10 69.648 10 87c0 22.09 17.91 40 40 40s40-17.91 40-40c0-17.448-11.175-32.278-26.756-37.745l2.962-5.3C83.596 50.526 96 67.34 96 87c0 25.364-20.635 46-46 46z" fill="#2C96B9"/><path d="M28 28h44v4H28v-4z" fill="#2C96B9"/><path d="M48 0h4v10h-4V0z" fill="#2C96B9"/><path d="M37.232 12.885l-3.464 2-3.45-5.977 3.463-2 3.452 5.977" fill="#2C96B9"/><path d="M25.885 22.768l-2 3.464-8.66-5 2-3.464 8.66 5" fill="#2C96B9"/><path d="M76.115 26.232l-2-3.464 8.66-5 2 3.464-8.66 5" fill="#2C96B9"/><path d="M66.232 14.885l-3.464-2 3.634-6.294 3.464 2-3.634 6.295" fill="#2C96B9"/><path d="M26 83h8v4h-8v-4z" fill="#183D5A"/><path d="M26 83h4v12h-4V83z" fill="#183D5A"/><path d="M36 83h4v12h-4V83z" fill="#183D5A"/><path d="M40 83h8v4h-8v-4z" fill="#183D5A"/><path d="M42 83h4v12h-4V83z" fill="#183D5A"/><path d="M48 83h4v12h-4V83z" fill="#183D5A"/><path d="M56 73h4v22h-4V73z" fill="#183D5A"/><path d="M60 73h8v4h-8v-4z" fill="#183D5A"/><path d="M60 91h8v4h-8v-4z" fill="#183D5A"/><path d="M68 73h4v22h-4V73z" fill="#183D5A"/></g></svg>