<?xml version="1.0" encoding="UTF-8" standalone="no"?>
<svg width="640px" height="138px" viewBox="0 0 640 138" version="1.1" xmlns="http://www.w3.org/2000/svg" xmlns:xlink="http://www.w3.org/1999/xlink" xmlns:sketch="http://www.bohemiancoding.com/sketch/ns">
    <!-- Generator: Sketch 3.2.2 (9983) - http://www.bohemiancoding.com/sketch -->
    <title>why-imoney</title>
    <desc>Created with Sketch.</desc>
    <defs></defs>
    <g id="Page-1" stroke="none" stroke-width="1" fill="none" fill-rule="evenodd" sketch:type="MSPage">
        <g id="Homepage" sketch:type="MSArtboardGroup" transform="translate(-169.000000, -1672.000000)">
            <g id="why-imoney" sketch:type="MSLayerGroup" transform="translate(169.000000, 1672.000000)">
                <g id="why-best" transform="translate(0.000000, 7.000000)" sketch:type="MSShapeGroup">
                    <g id="Imported-Layers" transform="translate(0.000000, 39.000000)" fill="#2C96B9">
                        <path d="M0.06,88 L200,88 L200,91.94 L0.06,91.94 L0.06,88 Z" id="Fill-1"></path>
                        <path d="M28,66 L64,66 L64,70 L28,70 L28,66 Z" id="Fill-2"></path>
                        <path d="M30,44 L62,44 L62,48 L30,48 L30,44 Z" id="Fill-3"></path>
                        <path d="M32,25 L60,25 L60,29 L32,29 L32,25 Z" id="Fill-4"></path>
                        <path d="M28,66 L32,66 L32,91.94 L28,91.94 L28,66 Z" id="Fill-5"></path>
                        <path d="M30,44 L34,44 L34,70 L30,70 L30,44 Z" id="Fill-6"></path>
                        <path d="M32,25 L36,25 L36,48 L32,48 L32,25 Z" id="Fill-7"></path>
                        <path d="M56,25 L60,25 L60,48 L56,48 L56,25 Z" id="Fill-8"></path>
                        <path d="M58,44 L62,44 L62,70 L58,70 L58,44 Z" id="Fill-9"></path>
                        <path d="M60,66 L64,66 L64,91.94 L60,91.94 L60,66 Z" id="Fill-10"></path>
                        <path d="M74,66 L110,66 L110,70 L74,70 L74,66 Z" id="Fill-11"></path>
                        <path d="M76,44 L108,44 L108,48 L76,48 L76,44 Z" id="Fill-12"></path>
                        <path d="M78,26 L106,26 L106,30 L78,30 L78,26 Z" id="Fill-13"></path>
                        <path d="M74,66 L78,66 L78,91.94 L74,91.94 L74,66 Z" id="Fill-14"></path>
                        <path d="M76,44 L80,44 L80,70 L76,70 L76,44 Z" id="Fill-15"></path>
                        <path d="M78,26 L82,26 L82,44 L78,44 L78,26 Z" id="Fill-16"></path>
                        <path d="M102,26 L106,26 L106,44 L102,44 L102,26 Z" id="Fill-17"></path>
                        <path d="M104,44 L108,44 L108,70 L104,70 L104,44 Z" id="Fill-18"></path>
                        <path d="M106,66 L110,66 L110,91.94 L106,91.94 L106,66 Z" id="Fill-19"></path>
                        <path d="M59,44 L78,44 L78,48 L59,48 L59,44 Z" id="Fill-20"></path>
                        <path d="M60,52 L77,52 L77,56 L60,56 L60,52 Z" id="Fill-21"></path>
                        <path d="M70.349,55.308 L61.328,64.328 L58.5,61.5 L67.521,52.479 L70.349,55.308" id="Fill-22"></path>
                        <path d="M67.5,55.308 L76.521,64.328 L79.349,61.5 L70.328,52.479 L67.5,55.308" id="Fill-23"></path>
                        <path d="M43,21 L49,21 L49,25 L43,25 L43,21 Z M39,29 L53,29 L53,17 L39,17 L39,29 Z" id="Fill-24"></path>
                        <path d="M44,0 L48,0 L48,18 L44,18 L44,0 Z" id="Fill-25"></path>
                        <path d="M89,22 L95,22 L95,26 L89,26 L89,22 Z M85,30 L99,30 L99,18 L85,18 L85,30 Z" id="Fill-26"></path>
                        <path d="M147,27 L153,27 L153,31 L147,31 L147,27 Z M143,35 L157,35 L157,23 L143,23 L143,35 Z" id="Fill-27"></path>
                        <path d="M90,0 L94,0 L94,18 L90,18 L90,0 Z" id="Fill-28"></path>
                        <path d="M145,18 L155,18 L155,22 L145,22 L145,18 Z" id="Fill-29"></path>
                        <path d="M145,13 L155,13 L155,17 L145,17 L145,13 Z" id="Fill-30"></path>
                        <path d="M148,5 L152,5 L152,27 L148,27 L148,5 Z" id="Fill-31"></path>
                        <path d="M155.126,50 L157.731,88 L142.269,88 L144.748,50 L155,50 M159,46 L141,46 L138,92 L162,92 L159,46" id="Fill-32"></path>
                        <path d="M160.035,35 L157.754,46 L142.246,46 L139.93,35 L160,35 M165,31 L135,31 L139,50 L161,50 L165,31" id="Fill-33"></path>
                        <path d="M125,56 L141,56 L141,60 L125,60 L125,56 Z" id="Fill-34"></path>
                        <path d="M107,70 L123,70 L123,74 L107,74 L107,70 Z" id="Fill-35"></path>
                        <path d="M158,62 L180,62 L180,66 L158,66 L158,62 Z" id="Fill-36"></path>
                        <path d="M4,70 L29,70 L29,74 L4,74 L4,70 Z" id="Fill-37"></path>
                        <path d="M180,72 L196,72 L196,76 L180,76 L180,72 Z" id="Fill-38"></path>
                        <path d="M176,66 L180,66 L180,88 L176,88 L176,66 Z" id="Fill-39"></path>
                        <path d="M192,76 L196,76 L196,91.94 L192,91.94 L192,76 Z" id="Fill-40"></path>
                        <path d="M4,71 L8,71 L8,91.94 L4,91.94 L4,71 Z" id="Fill-41"></path>
                        <path d="M121,92 L125,92 L125,56 L121,56 L121,92 Z" id="Fill-42"></path>
                    </g>
                    <g id="Imported-EPS" transform="translate(30.000000, 0.000000)" fill="#193D5A">
                        <g id="Page-1">
                            <path d="M2,13 L2,20.184 C1,20.597 0,21.695 0,23 C0,24.304 1,25.403 2,25.816 L2,33 L6,33 L6,13 L2,13" id="Fill-1"></path>
                            <path d="M102,25 L106,25 L106,23 L108,23 L108,25 L112,25 L112,23 L114,23 L114,19 L112,19 L112,17 L114,17 L114,13 L112,13 L112,11 L108,11 L108,13 L106,13 L106,11 L102,11 L102,13 L100,13 L100,17 L102,17 L102,19 L100,19 L100,23 L102,23 L102,25 L102,25 Z M105.667,17 L107.667,17 L107.667,19 L105.667,19 L105.667,17 Z M124.667,25 L129,25 L129,21 L125,21 L125,7 L117,7 L117,11 L121,11 L121,21 L117,21 L117,25 L124.667,25 L124.667,25 Z M143,5 L143,1 L84,1 L84,2 L72.833,13 L72.578,12.828 L69.875,15.657 L84,29.657 L84,31 L136,31 L136,29 L143,29 L143,25 L136,25 L136,21 L143,21 L143,17 L136,17 L136,13 L143,13 L143,9 L136,9 L136,5 L143,5 L143,5 Z M84,23.999 L75.828,15.828 L84,7.657 L84,23.999 L84,23.999 Z M88,5 L132,5 L132,27 L88,27 L88,5 Z" id="Fill-2"></path>
                            <path d="M68.667,0 L60.667,10 L56.282,10 C56.184,4.766 52.082,1.125 46.228,1.125 C40.374,1.125 36.272,4.766 36.174,10 L22.667,10 C14.667,10 6.667,15 6.667,24 C6.667,27 13.667,27 22.667,27 L30.828,27 C31.746,30.712 36.876,31 43.231,31 L44.255,31 C50.344,31 55.472,28.115 57.644,26.75 C63.568,26.168 72.667,24.768 72.667,22.069 L75.667,0 L68.667,0 L68.667,0 Z M46.228,5.125 C48.986,5.125 52.195,6.419 52.283,10.04 C50.924,11.828 48.694,13 46.167,13 C43.706,13 41.533,11.885 40.165,10.176 C40.173,6.448 43.434,5.125 46.228,5.125 L46.228,5.125 Z M11.109,22.512 C11.947,16.917 17,14 23,14 L23,23 C19,23 13.542,23 11.109,22.512 L11.109,22.512 Z M52.907,24.769 C50.694,25.805 47.618,27 44.255,27 L43.231,27 C40.245,27 35.246,26.863 34.69,26.059 C34.69,26.059 34.675,25.939 34.67,25.835 C34.706,24.53 37.707,23.103 44.255,23.103 C47.606,23.103 50.668,24.012 52.907,24.769 L52.907,24.769 Z M68.733,20.479 C67.06,21.219 63.09,21.993 58.517,22.508 C58.234,22.354 52.011,19 44.255,19 C36.293,19 32.802,20.838 31.438,23 L27,23 L27,14 L38.28,14 C40.395,15.905 43.216,17 46.167,17 C49.118,17 51.939,15.905 54.054,14 L62.589,14 L70.589,4 L70.876,4 L68.733,20.479 L68.733,20.479 Z" id="Fill-3"></path>
                        </g>
                    </g>
                </g>
                <g id="why-experts" transform="translate(490.000000, 5.000000)" sketch:type="MSShapeGroup">
                    <rect id="Rectangle-187" stroke="#2C96B9" stroke-width="4" x="45" y="16" width="34" height="18"></rect>
                    <rect id="Rectangle-187" stroke="#2C96B9" stroke-width="4" x="101" y="20" width="21" height="14"></rect>
                    <rect id="Rectangle-187" stroke="#2C96B9" stroke-width="4" x="112" y="67" width="21" height="14"></rect>
                    <rect id="Rectangle-187" stroke="#2C96B9" stroke-width="4" x="21" y="39" width="39" height="15"></rect>
                    <rect id="Rectangle-187" stroke="#2C96B9" stroke-width="4" x="45" y="59" width="18" height="24"></rect>
                    <rect id="Rectangle-186" stroke="#183D5A" stroke-width="4" x="76" y="70" width="26" height="22"></rect>
                    <path d="M2,44 L21,44 L21,48 L2,48 L2,44 Z" id="Fill-8" fill="#2C96B9"></path>
                    <path d="M72,99 L106,99 L106,103 L72,103 L72,99 Z" id="Fill-9" fill="#2C96B9"></path>
                    <path d="M65,7 L107,7 L107,11 L65,11 L65,7 Z" id="Fill-10" fill="#2C96B9"></path>
                    <path d="M131,72 L147,72 L147,76 L131,76 L131,72 Z" id="Fill-11" fill="#2C96B9"></path>
                    <path d="M118,31 L122,31 L122,56 L118,56 L118,31 Z" id="Fill-12" fill="#2C96B9"></path>
                    <path d="M35,23 L49,23 L49,27 L35,27 L35,23 Z" id="Fill-13" fill="#2C96B9"></path>
                    <path d="M75,23 L89,23 L89,27 L75,27 L75,23 Z" id="Fill-14" fill="#2C96B9"></path>
                    <path d="M23,29 L37,29 L37,33 L23,33 L23,29 Z" id="Fill-15" fill="#2C96B9"></path>
                    <path d="M7,65 L47,65 L47,69 L7,69 L7,65 Z" id="Fill-16" fill="#2C96B9"></path>
                    <path d="M78,76 L96,76 L96,80 L78,80 L78,76 Z" id="Fill-17" fill="#183D5A"></path>
                    <path d="M82,82 L99,82 L99,86 L82,86 L82,82 Z" id="Fill-18" fill="#183D5A"></path>
                    <path d="M12,44 L16,44 L16,68 L12,68 L12,44 Z" id="Fill-19" fill="#2C96B9"></path>
                    <path d="M118,78 L122,78 L122,106 L118,106 L118,78 Z" id="Fill-20" fill="#2C96B9"></path>
                    <path d="M87,92 L91,92 L91,102 L87,102 L87,92 Z" id="Fill-21" fill="#2C96B9"></path>
                    <path d="M52,79 L56,79 L56,90 L52,90 L52,79 Z" id="Fill-22" fill="#2C96B9"></path>
                    <path d="M33,23 L37,23 L37,43 L33,43 L33,23 Z" id="Fill-23" fill="#2C96B9"></path>
                    <path d="M62,2 L66,2 L66,20 L62,20 L62,2 Z" id="Fill-24" fill="#2C96B9"></path>
                    <path d="M26,31 C26,33.209 24.209,35 22,35 C19.791,35 18,33.209 18,31 C18,28.791 19.791,27 22,27 C24.209,27 26,28.791 26,31" id="Fill-25" fill="#2C96B9"></path>
                    <path d="M93,25 C93,27.209 91.209,29 89,29 C86.791,29 85,27.209 85,25 C85,22.791 86.791,21 89,21 C91.209,21 93,22.791 93,25" id="Fill-26" fill="#2C96B9"></path>
                    <path d="M121,52 L146,52 L146,56 L121,56 L121,52 Z" id="Fill-27" fill="#2C96B9"></path>
                    <path d="M111,101 C111,103.209 109.209,105 107,105 C104.791,105 103,103.209 103,101 C103,98.791 104.791,97 107,97 C109.209,97 111,98.791 111,101" id="Fill-28" fill="#2C96B9"></path>
                    <path d="M58,92 C58,94.209 56.209,96 54,96 C51.791,96 50,94.209 50,92 C50,89.791 51.791,88 54,88 C56.209,88 58,89.791 58,92" id="Fill-29" fill="#2C96B9"></path>
                    <path d="M81,59 L85,59 L85,71 L81,71 L81,59 Z" id="Fill-33" fill="#183D5A"></path>
                    <path d="M87,59 L91,59 L91,63 L87,63 L87,59 Z" id="Fill-34" fill="#183D5A"></path>
                    <path d="M93,59 L97,59 L97,71 L93,71 L93,59 Z" id="Fill-35" fill="#183D5A"></path>
                    <path d="M108,58 C108,47.507 99.493,39 89,39 C78.507,39 70,47.507 70,58 C70,64.057 72.845,69.441 77.26,72.92 L87.453,72.92 C79.906,72.143 74,65.749 74,58 C74,49.729 80.729,43 89,43 C97.271,43 104,49.729 104,58 C104,65.749 98.094,72.143 90.547,72.92 L100.739,72.92 C105.155,69.441 108,64.057 108,58" id="Imported-Layers" fill="#193D5A"></path>
                    <path d="M74.14,0 C38.682,0 0,15.258 0,49.427 C0,77.577 21.003,80.056 28.403,80.056 C29.985,80.056 30.946,79.942 30.946,79.942 C30.946,99.374 45.579,103.112 56.845,103.112 C63.894,103.112 69.627,101.647 69.627,101.647 C69.627,101.647 92.622,123.997 94.771,126.791 C95.487,127.722 96.394,128.08 97.397,128.08 C99.403,128.08 101.791,126.647 103.797,125.501 C106.805,123.782 99.284,111.748 99.284,111.748 C99.284,111.748 110.673,111.22 118.839,109.286 C127.006,107.352 129.37,96.08 129.37,96.08 L129.834,96.08 C134.89,96.08 150,95.773 150,70.389 C150,11.936 94.126,0 74.14,0 M74.14,4 C84.753,4 102.461,7.329 117.441,16.713 C136.391,28.584 146,46.579 146,70.389 C146,92.178 134.255,92.08 129.834,92.08 L129.37,92.08 L126.147,92.191 L125.459,95.385 C125.44,95.472 123.398,104.169 117.918,105.467 C110.237,107.286 99.242,107.734 99.132,107.738 L92.239,108.008 L95.891,113.863 C97.89,117.066 99.735,120.872 100.317,122.872 C99.394,123.377 98.348,123.902 97.691,124.043 C94.554,120.331 76.171,102.429 72.415,98.779 L70.808,97.223 L68.642,97.771 C68.589,97.784 63.262,99.112 56.845,99.112 C50.634,99.112 45.46,97.857 41.883,95.482 C37.215,92.383 34.946,87.3 34.946,79.942 L34.932,75.474 L30.49,75.968 C30.482,75.969 29.69,76.056 28.403,76.056 C25.169,76.056 18.952,75.526 13.653,71.975 C7.248,67.682 4,60.096 4,49.427 C4,18.215 40.359,4 74.14,4" id="Imported-Layers" fill="#2C96B8"></path>
                </g>
                <g id="why-free" transform="translate(200.000000, 0.000000)" sketch:type="MSShapeGroup">
                    <path d="M68.18,40.424 L74.692,28.769 L62.269,17 L37.423,17 L25,28.769 L31.568,40.523 C13.079,47.862 0,65.898 0,87 C0,114.614 22.386,137 50,137 C77.614,137 100,114.614 100,87 C100,65.802 86.802,47.698 68.18,40.424 L68.18,40.424 Z M30.009,29.534 L39.017,21 L60.838,21 L69.764,29.534 L59.922,47 L39.77,47 L30.009,29.534 L30.009,29.534 Z M50,51 C69.85,51 86,67.15 86,87 C86,106.851 69.85,123 50,123 C30.149,123 14,106.851 14,87 C14,67.15 30.149,51 50,51 L50,51 Z M50,133 C24.636,133 4,112.364 4,87 C4,67.434 16.285,50.692 33.542,44.055 L36.497,49.342 C21.051,54.882 10,69.648 10,87 C10,109.091 27.909,127 50,127 C72.091,127 90,109.091 90,87 C90,69.552 78.825,54.722 63.244,49.255 L66.206,43.956 C83.596,50.525 96,67.338 96,87 C96,112.364 75.365,133 50,133 L50,133 Z" id="Fill-1" fill="#2C96B9"></path>
                    <path d="M28,28 L72,28 L72,32 L28,32 L28,28 Z" id="Fill-2" fill="#2C96B9"></path>
                    <path d="M48,0 L52,0 L52,10 L48,10 L48,0 Z" id="Fill-3" fill="#2C96B9"></path>
                    <path d="M37.232,12.885 L33.768,14.885 L30.317,8.908 L33.781,6.908 L37.232,12.885" id="Fill-4" fill="#2C96B9"></path>
                    <path d="M25.885,22.768 L23.885,26.232 L15.225,21.232 L17.225,17.768 L25.885,22.768" id="Fill-5" fill="#2C96B9"></path>
                    <path d="M76.115,26.232 L74.115,22.768 L82.775,17.768 L84.775,21.232 L76.115,26.232" id="Fill-6" fill="#2C96B9"></path>
                    <path d="M66.232,14.885 L62.768,12.885 L66.402,6.591 L69.866,8.591 L66.232,14.885" id="Fill-7" fill="#2C96B9"></path>
                    <path d="M26,83 L34,83 L34,87 L26,87 L26,83 Z" id="Fill-8" fill="#183D5A"></path>
                    <path d="M26,83 L30,83 L30,95 L26,95 L26,83 Z" id="Fill-9" fill="#183D5A"></path>
                    <path d="M36,83 L40,83 L40,95 L36,95 L36,83 Z" id="Fill-10" fill="#183D5A"></path>
                    <path d="M40,83 L48,83 L48,87 L40,87 L40,83 Z" id="Fill-11" fill="#183D5A"></path>
                    <path d="M42,83 L46,83 L46,95 L42,95 L42,83 Z" id="Fill-12" fill="#183D5A"></path>
                    <path d="M48,83 L52,83 L52,95 L48,95 L48,83 Z" id="Fill-13" fill="#183D5A"></path>
                    <path d="M56,73 L60,73 L60,95 L56,95 L56,73 Z" id="Fill-14" fill="#183D5A"></path>
                    <path d="M60,73 L68,73 L68,77 L60,77 L60,73 Z" id="Fill-15" fill="#183D5A"></path>
                    <path d="M60,91 L68,91 L68,95 L60,95 L60,91 Z" id="Fill-16" fill="#183D5A"></path>
                    <path d="M68,73 L72,73 L72,95 L68,95 L68,73 Z" id="Fill-17" fill="#183D5A"></path>
                </g>
                <g id="why-fast" transform="translate(300.000000, 43.000000)" sketch:type="MSShapeGroup">
                    <path d="M13,4 L133,4 L133,80 L13,80 L13,4 Z M133.5,0 L13.5,0 C11.291,0 9,1.291 9,3.5 L9,79.5 C9,81.709 11.291,84 13.5,84 L133.5,84 C135.709,84 137,81.709 137,79.5 L137,3.5 C137,1.291 135.709,0 133.5,0 L133.5,0 Z" id="Fill-1" fill="#2C96B9"></path>
                    <path d="M4,84 L143,84 L143,90 L4,90 L4,84 Z M144.886,80 L2.113,80 C0.946,80 0,80.784 0,81.75 L0,92.25 C0,93.216 0.946,94 2.113,94 L144.886,94 C146.054,94 147,93.216 147,92.25 L147,81.75 C147,80.784 146.054,80 144.886,80 L144.886,80 Z" id="Fill-2" fill="#2C96B9"></path>
                    <path d="M21,12 L125,12 L125,80 L21,80 L21,12 Z M17,84 L129,84 L129,8 L17,8 L17,84 Z" id="Fill-3" fill="#2C96B9"></path>
                    <path d="M88.788,84 L87.465,85 L60.535,85 L59.424,84 L89,84 M99,80 L49,80 L59,89 L89,89 L99,80" id="Fill-4" fill="#2C96B9"></path>
                    <path d="M80,44 L80,54 L92,54 L92,65 L78,65 L78,44 L80,44 M82,40 L76,40 C74.895,40 74,40.895 74,42 L74,67 C74,68.105 74.895,69 76,69 L94,69 C95.105,69 96,68.105 96,67 L96,52 C96,50.895 95.105,50 94,50 L84,50 L84,42 C84,40.895 83.105,40 82,40" id="Fill-5" fill="#183D5A"></path>
                    <path d="M107,32 L107,50 L92,50 L92,54 L109,54 C110.105,54 111,53.273 111,52.375 L111,29.625 C111,28.728 110.105,28 109,28 L35,28 C33.895,28 33,28.728 33,29.625 L33,52.375 C33,53.273 33.895,54 35,54 L74,54 L74,50 L37,50 L37,32 L107,32" id="Fill-6" fill="#183D5A"></path>
                    <path d="M154,62 L178,62 L178,90 L154,90 L154,62 Z M180.061,58 L151.939,58 C150.868,58 150,58.672 150,59.5 L150,92.5 C150,93.328 150.868,94 151.939,94 L180.061,94 C181.132,94 182,93.328 182,92.5 L182,59.5 C182,58.672 181.132,58 180.061,58 L180.061,58 Z" id="Fill-7" fill="#2C96B9"></path>
                    <path d="M182,70 L186,70 L186,81 L182,81 L182,70 Z M188,66 L180,66 C178.895,66 178,66.895 178,68 L178,83 C178,84.105 178.895,85 180,85 L188,85 C189.105,85 190,84.105 190,83 L190,68 C190,66.895 189.105,66 188,66 L188,66 Z" id="Fill-8" fill="#2C96B9"></path>
                    <path d="M162.9,46 C162.9,48.499 161.1,48.499 161.1,50.998 C161.1,53.498 162.9,53.498 162.9,55.999 C162.9,58.499 161.1,58.499 161.1,61 M170.9,46 C170.9,48.499 169.1,48.499 169.1,50.998 C169.1,53.498 170.9,53.498 170.9,55.999 C170.9,58.499 169.1,58.499 169.1,61" id="Stroke-9" stroke="#2C96B9" stroke-width="4"></path>
                </g>
            </g>
        </g>
    </g>
</svg>