<?xml version="1.0" encoding="UTF-8" standalone="no"?>
<svg width="200px" height="131px" viewBox="0 0 200 131" version="1.1" xmlns="http://www.w3.org/2000/svg" xmlns:xlink="http://www.w3.org/1999/xlink" xmlns:sketch="http://www.bohemiancoding.com/sketch/ns">
    <!-- Generator: Sketch 3.2.2 (9983) - http://www.bohemiancoding.com/sketch -->
    <title>why-best</title>
    <desc>Created with Sketch.</desc>
    <defs></defs>
    <g id="Page-1" stroke="none" stroke-width="1" fill="none" fill-rule="evenodd" sketch:type="MSPage">
        <g id="Homepage" sketch:type="MSArtboardGroup" transform="translate(-169.000000, -1679.000000)">
            <g id="why-best" sketch:type="MSLayerGroup" transform="translate(169.000000, 1679.000000)">
                <g id="Imported-Layers" transform="translate(0.000000, 39.000000)" fill="#2C96B9" sketch:type="MSShapeGroup">
                    <path d="M0.06,88 L200,88 L200,91.94 L0.06,91.94 L0.06,88 Z" id="Fill-1"></path>
                    <path d="M28,66 L64,66 L64,70 L28,70 L28,66 Z" id="Fill-2"></path>
                    <path d="M30,44 L62,44 L62,48 L30,48 L30,44 Z" id="Fill-3"></path>
                    <path d="M32,25 L60,25 L60,29 L32,29 L32,25 Z" id="Fill-4"></path>
                    <path d="M28,66 L32,66 L32,91.94 L28,91.94 L28,66 Z" id="Fill-5"></path>
                    <path d="M30,44 L34,44 L34,70 L30,70 L30,44 Z" id="Fill-6"></path>
                    <path d="M32,25 L36,25 L36,48 L32,48 L32,25 Z" id="Fill-7"></path>
                    <path d="M56,25 L60,25 L60,48 L56,48 L56,25 Z" id="Fill-8"></path>
                    <path d="M58,44 L62,44 L62,70 L58,70 L58,44 Z" id="Fill-9"></path>
                    <path d="M60,66 L64,66 L64,91.94 L60,91.94 L60,66 Z" id="Fill-10"></path>
                    <path d="M74,66 L110,66 L110,70 L74,70 L74,66 Z" id="Fill-11"></path>
                    <path d="M76,44 L108,44 L108,48 L76,48 L76,44 Z" id="Fill-12"></path>
                    <path d="M78,26 L106,26 L106,30 L78,30 L78,26 Z" id="Fill-13"></path>
                    <path d="M74,66 L78,66 L78,91.94 L74,91.94 L74,66 Z" id="Fill-14"></path>
                    <path d="M76,44 L80,44 L80,70 L76,70 L76,44 Z" id="Fill-15"></path>
                    <path d="M78,26 L82,26 L82,44 L78,44 L78,26 Z" id="Fill-16"></path>
                    <path d="M102,26 L106,26 L106,44 L102,44 L102,26 Z" id="Fill-17"></path>
                    <path d="M104,44 L108,44 L108,70 L104,70 L104,44 Z" id="Fill-18"></path>
                    <path d="M106,66 L110,66 L110,91.94 L106,91.94 L106,66 Z" id="Fill-19"></path>
                    <path d="M59,44 L78,44 L78,48 L59,48 L59,44 Z" id="Fill-20"></path>
                    <path d="M60,52 L77,52 L77,56 L60,56 L60,52 Z" id="Fill-21"></path>
                    <path d="M70.349,55.308 L61.328,64.328 L58.5,61.5 L67.521,52.479 L70.349,55.308" id="Fill-22"></path>
                    <path d="M67.5,55.308 L76.521,64.328 L79.349,61.5 L70.328,52.479 L67.5,55.308" id="Fill-23"></path>
                    <path d="M43,21 L49,21 L49,25 L43,25 L43,21 Z M39,29 L53,29 L53,17 L39,17 L39,29 Z" id="Fill-24"></path>
                    <path d="M44,0 L48,0 L48,18 L44,18 L44,0 Z" id="Fill-25"></path>
                    <path d="M89,22 L95,22 L95,26 L89,26 L89,22 Z M85,30 L99,30 L99,18 L85,18 L85,30 Z" id="Fill-26"></path>
                    <path d="M147,27 L153,27 L153,31 L147,31 L147,27 Z M143,35 L157,35 L157,23 L143,23 L143,35 Z" id="Fill-27"></path>
                    <path d="M90,0 L94,0 L94,18 L90,18 L90,0 Z" id="Fill-28"></path>
                    <path d="M145,18 L155,18 L155,22 L145,22 L145,18 Z" id="Fill-29"></path>
                    <path d="M145,13 L155,13 L155,17 L145,17 L145,13 Z" id="Fill-30"></path>
                    <path d="M148,5 L152,5 L152,27 L148,27 L148,5 Z" id="Fill-31"></path>
                    <path d="M155.126,50 L157.731,88 L142.269,88 L144.748,50 L155,50 M159,46 L141,46 L138,92 L162,92 L159,46" id="Fill-32"></path>
                    <path d="M160.035,35 L157.754,46 L142.246,46 L139.93,35 L160,35 M165,31 L135,31 L139,50 L161,50 L165,31" id="Fill-33"></path>
                    <path d="M125,56 L141,56 L141,60 L125,60 L125,56 Z" id="Fill-34"></path>
                    <path d="M107,70 L123,70 L123,74 L107,74 L107,70 Z" id="Fill-35"></path>
                    <path d="M158,62 L180,62 L180,66 L158,66 L158,62 Z" id="Fill-36"></path>
                    <path d="M4,70 L29,70 L29,74 L4,74 L4,70 Z" id="Fill-37"></path>
                    <path d="M180,72 L196,72 L196,76 L180,76 L180,72 Z" id="Fill-38"></path>
                    <path d="M176,66 L180,66 L180,88 L176,88 L176,66 Z" id="Fill-39"></path>
                    <path d="M192,76 L196,76 L196,91.94 L192,91.94 L192,76 Z" id="Fill-40"></path>
                    <path d="M4,71 L8,71 L8,91.94 L4,91.94 L4,71 Z" id="Fill-41"></path>
                    <path d="M121,92 L125,92 L125,56 L121,56 L121,92 Z" id="Fill-42"></path>
                </g>
                <g id="Imported-Layers" transform="translate(30.000000, 0.000000)" sketch:type="MSShapeGroup">
                    <path d="M38.498,10.189 C38.498,5.735 42.108,3.125 46.561,3.125 C51.015,3.125 54.625,5.735 54.625,10.189" id="Stroke-1" stroke="#183D5A" stroke-width="4"></path>
                    <path d="M71.209,4 L69.066,20.479 C66.691,21.529 59.693,22.651 52.898,23 L23,23 C18.911,23 13.542,23 11.109,22.512 C11.947,16.917 17.505,14 23,14 L38.613,14 C40.728,15.905 43.549,17 46.5,17 C49.451,17 52.272,15.905 54.387,14 L62.922,14 L70.922,4 L71,4 M76,0 L69,0 L61,10 L52.65,10 C51.294,11.812 49.047,13 46.5,13 C43.953,13 41.706,11.812 40.35,10 L23,10 C15,10 7,15 7,24 C7,27 14,27 23,27 L53,27 C53,27 73,26 73,22 L76,0" id="Fill-2" fill="#183D5A"></path>
                    <path d="M23,13 L27,13 L27,25 L23,25 L23,13 Z" id="Fill-3" fill="#183D5A"></path>
                    <path d="M2,13 L6,13 L6,33 L2,33 L2,13 Z" id="Fill-4" fill="#183D5A"></path>
                    <path d="M6,23 C6,24.657 4.657,26 3,26 C1.343,26 0,24.657 0,23 C0,21.343 1.343,20 3,20 C4.657,20 6,21.343 6,23" id="Fill-5" fill="#183D5A"></path>
                    <path d="M88,5 L132,5 L132,27 L88,27 L88,5 Z M84,31 L136,31 L136,1 L84,1 L84,31 Z" id="Fill-6" fill="#183D5A"></path>
                    <path d="M87.313,4.344 L73.828,17.828 L71,15 L84.485,1.515 L87.313,4.344" id="Fill-7" fill="#183D5A"></path>
                    <path d="M85.105,30.762 L70,15.657 L72.828,12.828 L87.934,27.933 L85.105,30.762" id="Fill-8" fill="#183D5A"></path>
                    <path d="M100,13 L114,13 L114,17 L100,17 L100,13 Z" id="Fill-9" fill="#183D5A"></path>
                    <path d="M102,11 L106,11 L106,25 L102,25 L102,11 Z" id="Fill-10" fill="#183D5A"></path>
                    <path d="M108,11 L112,11 L112,25 L108,25 L108,11 Z" id="Fill-11" fill="#183D5A"></path>
                    <path d="M117,21 L129,21 L129,25 L117,25 L117,21 Z" id="Fill-12" fill="#183D5A"></path>
                    <path d="M117,7 L125,7 L125,11 L117,11 L117,7 Z" id="Fill-13" fill="#183D5A"></path>
                    <path d="M121,11 L125,11 L125,25 L121,25 L121,11 Z" id="Fill-14" fill="#183D5A"></path>
                    <path d="M100,19 L114,19 L114,23 L100,23 L100,19 Z" id="Fill-15" fill="#183D5A"></path>
                    <path d="M57.892,24.264 C57.892,24.264 51.936,28.725 44.588,28.725 C37.24,28.725 33,28.802 33,25.721 C33,22.64 37.24,21 44.588,21 C51.936,21 57.892,24.264 57.892,24.264 L57.892,24.264 Z" id="Fill-16" fill="#FFFFFF"></path>
                    <path d="M57.892,24.264 C57.892,24.264 51.936,28.725 44.588,28.725 C37.24,28.725 33,28.802 33,25.721 C33,22.64 37.24,21 44.588,21 C51.936,21 57.892,24.264 57.892,24.264 L57.892,24.264 Z" id="Stroke-17" stroke="#183D5A" stroke-width="4"></path>
                    <path d="M133,1 L143,1 L143,5 L133,5 L133,1 Z" id="Fill-18" fill="#183D5A"></path>
                    <path d="M133,9 L143,9 L143,13 L133,13 L133,9 Z" id="Fill-19" fill="#183D5A"></path>
                    <path d="M133,17 L143,17 L143,21 L133,21 L133,17 Z" id="Fill-20" fill="#183D5A"></path>
                    <path d="M133,25 L143,25 L143,29 L133,29 L133,25 Z" id="Fill-21" fill="#183D5A"></path>
                </g>
            </g>
        </g>
    </g>
</svg>