<svg width="200" height="131" viewBox="0 0 200 131" xmlns="http://www.w3.org/2000/svg"><title>why-best</title><desc>Created with Sketch.</desc><g fill="none"><g id="Imported-Layers" fill="#2C96B9"><path d="M.06 127H200v3.94H.06V127z"/><path d="M28 105h36v4H28v-4z" id="Fill-2"/><path d="M30 83h32v4H30v-4z" id="Fill-3"/><path d="M32 64h28v4H32v-4z" id="Fill-4"/><path d="M28 105h4v25.94h-4V105z" id="Fill-5"/><path d="M30 83h4v26h-4V83z" id="Fill-6"/><path d="M32 64h4v23h-4V64z" id="Fill-7"/><path d="M56 64h4v23h-4V64z" id="Fill-8"/><path d="M58 83h4v26h-4V83z" id="Fill-9"/><path d="M60 105h4v25.94h-4V105z" id="Fill-10"/><path d="M74 105h36v4H74v-4z" id="Fill-11"/><path d="M76 83h32v4H76v-4z" id="Fill-12"/><path d="M78 65h28v4H78v-4z" id="Fill-13"/><path d="M74 105h4v25.94h-4V105z" id="Fill-14"/><path d="M76 83h4v26h-4V83z" id="Fill-15"/><path d="M78 65h4v18h-4V65z" id="Fill-16"/><path d="M102 65h4v18h-4V65z"/><path d="M104 83h4v26h-4V83z" id="Fill-18"/><path d="M106 105h4v25.94h-4V105z" id="Fill-19"/><path d="M59 83h19v4H59v-4z" id="Fill-20"/><path d="M60 91h17v4H60v-4z" id="Fill-21"/><path d="M70.35 94.308l-9.022 9.02L58.5 100.5l9.02-9.02 2.83 2.828"/><path d="M67.5 94.308l9.02 9.02 2.83-2.828-9.022-9.02-2.828 2.828"/><path d="M43 60h6v4h-6v-4zm-4-31h14V17H39v12z"/><path d="M44 39h4v18h-4V39z"/><path d="M89 61h6v4h-6v-4zM85-9h14V18H85v12z"/><path d="M147 66h6v4h-6v-4zm-4-31h14V23h-14v12z"/><path d="M90 39h4v18h-4V39z"/><path d="M145 57h10v4h-10v-4z"/><path d="M145 52h10v4h-10v-4z"/><path d="M148 44h4v22h-4V44z"/><path d="M155.126 89l2.605 38h-15.46l2.478-38H155m4-4h-18l-3 46h24l-3-46"/><path d="M160.035 74l-2.28 11h-15.51l-2.315-11H160m5-4h-30l4 19h22l4-19"/><path d="M125 95h16v4h-16v-4z"/><path d="M107 109h16v4h-16v-4z"/><path d="M158 101h22v4h-22v-4z"/><path d="M4 109h25v4H4v-4z"/><path d="M180 111h16v4h-16v-4z"/><path d="M176 105h4v22h-4v-22z"/><path d="M192 115h4v15.94h-4V115z"/><path d="M4 110h4v20.94H4V110z"/><path d="M121 131h4V95h-4v36z"/></g><g><path d="M68.498 10.19c0-4.455 3.61-7.065 8.063-7.065 4.455 0 8.065 2.61 8.065 7.064" stroke="#183D5A" stroke-width="4"/><path d="M101.21 4l-2.144 16.48c-2.375 1.05-9.373 2.17-16.168 2.52H53c-4.09 0-9.458 0-11.89-.488C41.946 16.917 47.504 14 53 14h15.613c2.115 1.905 4.936 3 7.887 3 2.95 0 5.772-1.095 7.887-3h8.535l8-10H101m5-4h-7l-8 10h-8.35c-1.356 1.812-3.603 3-6.15 3s-4.794-1.188-6.15-3H53c-8 0-16 5-16 14 0 3 7 3 16 3h30s20-1 20-5l3-22" fill="#183D5A"/><path d="M53 13h4v12h-4V13z" fill="#183D5A"/><path d="M32 13h4v20h-4V13z" fill="#183D5A"/><path d="M36 23c0 1.657-1.343 3-3 3s-3-1.343-3-3 1.343-3 3-3 3 1.343 3 3" fill="#183D5A"/><path d="M118 5h44v22h-44V5zM54 31h52V1H84v30z" fill="#183D5A"/><path d="M117.313 4.344l-13.485 13.484L101 15l13.485-13.485 2.828 2.83" fill="#183D5A"/><path d="M115.105 30.762L100 15.657l2.828-2.83 15.106 15.106-2.83 2.83" fill="#183D5A"/><path d="M130 13h14v4h-14v-4z" fill="#183D5A"/><path d="M132 11h4v14h-4V11z" fill="#183D5A"/><path d="M138 11h4v14h-4V11z" fill="#183D5A"/><path d="M147 21h12v4h-12v-4z" fill="#183D5A"/><path d="M147 7h8v4h-8V7z" fill="#183D5A"/><path d="M151 11h4v14h-4V11z" fill="#183D5A"/><path d="M130 19h14v4h-14v-4z" fill="#183D5A"/><path d="M87.892 24.264s-5.956 4.46-13.304 4.46S63 28.803 63 25.722C63 22.64 67.24 21 74.588 21c7.348 0 13.304 3.264 13.304 3.264z" fill="#fff"/><path d="M87.892 24.264s-5.956 4.46-13.304 4.46S63 28.803 63 25.722C63 22.64 67.24 21 74.588 21c7.348 0 13.304 3.264 13.304 3.264z" stroke="#183D5A" stroke-width="4"/><path d="M163 1h10v4h-10V1z" fill="#183D5A"/><path d="M163 9h10v4h-10V9z" fill="#183D5A"/><path d="M163 17h10v4h-10v-4z" fill="#183D5A"/><path d="M163 25h10v4h-10v-4z" fill="#183D5A"/></g></g></svg>