<?xml version="1.0" encoding="UTF-8"?>
<svg width="340px" height="400px" viewBox="0 0 340 400" version="1.1" xmlns="http://www.w3.org/2000/svg" xmlns:xlink="http://www.w3.org/1999/xlink">
    <!-- Generator: Sketch 40.3 (33839) - http://www.bohemiancoding.com/sketch -->
    <title>sprite</title>
    <desc>Created with Sketch.</desc>
    <defs></defs>
    <g id="V2" stroke="none" stroke-width="1" fill="none" fill-rule="evenodd">
        <g id="sprite">
            <path d="M35.1106224,3.47701781 L31.9371014,3.47701781 C31.5610293,3.47701781 31.1431713,3.97184957 31.1431713,4.629426 L31.1431713,6.92104684 L35.1128216,6.92104684 L34.5124258,10.1891357 L31.1431713,10.1891357 L31.1431713,20 L27.3978447,20 L27.3978447,10.1891357 L24,10.1891357 L24,6.92104684 L27.3978447,6.92104684 L27.3978447,4.99890037 C27.3978447,2.24103805 29.3111942,0 31.9371014,0 L35.1106224,0 L35.1106224,3.47701781 L35.1106224,3.47701781 Z" id="Shape" fill="#FFFFFF"></path>
            <path d="M59.9398444,5.87701111 C59.9232294,5.04743202 59.7660647,4.22667616 59.4750333,3.44964444 C59.2239327,2.78237823 58.8303058,2.17791388 58.3216,1.6784 C57.8220861,1.16969416 57.2176218,0.776067336 56.5503556,0.524966667 C55.7733238,0.233935348 54.952568,0.0767706109 54.1229889,0.0601555556 C53.0563667,0.0115333333 52.7158556,0 50,0 C47.2841444,0 46.9436333,0.0115333333 45.8770111,0.0601555556 C45.047432,0.0767706109 44.2266762,0.233935348 43.4496444,0.524966667 C42.7823782,0.776067336 42.1779139,1.16969416 41.6784,1.6784 C41.1696942,2.17791388 40.7760673,2.78237823 40.5249667,3.44964444 C40.2339353,4.22667616 40.0767706,5.04743202 40.0601556,5.87701111 C40.0115333,6.94363333 40,7.28414444 40,10 C40,12.7158556 40.0115333,13.0563667 40.0601556,14.1229889 C40.0767706,14.952568 40.2339353,15.7733238 40.5249667,16.5503556 C40.7760673,17.2176218 41.1696942,17.8220861 41.6784,18.3216 C42.1778957,18.8303281 42.7823653,19.2239583 43.4496444,19.4750333 C44.2266762,19.7660647 45.047432,19.9232294 45.8770111,19.9398444 C46.9436333,19.9885444 47.2841444,20 50,20 C52.7158556,20 53.0563667,19.9885444 54.1229889,19.9398444 C54.952568,19.9232294 55.7733238,19.7660647 56.5503556,19.4750333 C57.893616,18.9555209 58.9555098,17.8936271 59.4750222,16.5503667 C59.7660535,15.7733349 59.9232183,14.9525791 59.9398333,14.123 C59.9884667,13.0563667 60,12.7158556 60,10 C60,7.28414444 59.9884667,6.94363333 59.9398444,5.87701111 L59.9398444,5.87701111 Z M58.1399222,14.0408667 C58.1324169,14.6749721 58.0159269,15.3030649 57.7955444,15.8976889 C57.4591631,16.769831 56.7698291,17.4591691 55.8976889,17.7955556 C55.3030628,18.0159303 54.6749714,18.13242 54.0408667,18.1399333 C52.9865222,18.188 52.6702889,18.1981778 50,18.1981778 C47.3297111,18.1981778 47.0134778,18.188 45.9591333,18.1399222 C45.3250293,18.1324125 44.6969379,18.0159265 44.1023111,17.7955556 C43.6679447,17.6352846 43.2750329,17.3796765 42.9524778,17.0475333 C42.6203292,16.7249761 42.3647171,16.3320603 42.2044444,15.8976889 C41.984062,15.3030649 41.867572,14.6749721 41.8600667,14.0408667 C41.812,12.9863778 41.8018222,12.6701556 41.8018222,10 C41.8018222,7.32984444 41.812,7.01362222 41.8600778,5.95913333 C41.8675875,5.32502929 41.9840735,4.69693786 42.2044444,4.10231111 C42.3647154,3.66794474 42.6203235,3.27503294 42.9524667,2.95247778 C43.2750239,2.62032922 43.6679397,2.36471714 44.1023111,2.20444444 C44.6969372,1.98406969 45.3250286,1.86757995 45.9591333,1.86006667 C47.0136222,1.812 47.3298444,1.80182222 50,1.80182222 C52.6701556,1.80182222 52.9863778,1.812 54.0408667,1.86007778 C54.6749714,1.86759106 55.3030628,1.9840808 55.8976889,2.20445556 C56.3320553,2.36472648 56.7249671,2.62033462 57.0475222,2.95247778 C57.3796694,3.27503181 57.6352814,3.6679437 57.7955556,4.10231111 C58.0159303,4.69693719 58.13242,5.32502865 58.1399333,5.95913333 C58.1880111,7.01357778 58.1981889,7.32991111 58.1981889,10 C58.1981889,12.6700889 58.188,12.9863778 58.1399222,14.0408667 L58.1399222,14.0408667 Z M50,4.86484444 C47.1639319,4.86484444 44.8648444,7.1639319 44.8648444,10 C44.8648444,12.8360681 47.1639319,15.1351556 50,15.1351556 C52.8360681,15.1351556 55.1351556,12.8360681 55.1351556,10 C55.1351249,7.16394461 52.8360554,4.86487513 50,4.86484444 L50,4.86484444 Z M50,13.3333333 C48.1590508,13.3333333 46.6666667,11.8409492 46.6666667,10 C46.6666667,8.15905083 48.1590508,6.66666667 50,6.66666667 C51.8409492,6.66666667 53.3333333,8.15905083 53.3333333,10 C53.3333333,10.884055 52.9821439,11.7319013 52.3570226,12.3570226 C51.7319013,12.9821439 50.884055,13.3333333 50,13.3333333 L50,13.3333333 Z M56.5380222,4.662 C56.5380222,5.3247417 56.0007639,5.862 55.3380222,5.862 C54.6752805,5.862 54.1380222,5.3247417 54.1380222,4.662 C54.1380222,3.9992583 54.6752805,3.462 55.3380222,3.462 C56.0007639,3.462 56.5380222,3.9992583 56.5380222,4.662 L56.5380222,4.662 Z" id="Shape" fill="#FFFFFF"></path>
            <path d="M17.9521739,5.54565217 C17.9608696,5.72173913 17.9641304,5.9 17.9641304,6.07608696 C17.9641304,11.5 13.8369565,17.7521739 6.29021739,17.7521739 C3.97173913,17.7521739 1.81630435,17.0728261 0,15.9076087 C0.32173913,15.9456522 0.647826087,15.9652174 0.97826087,15.9652174 C2.90217391,15.9652174 4.67065217,15.3086957 6.07391304,14.2097826 C4.27934783,14.176087 2.76304348,12.9913043 2.24130435,11.3608696 C2.49130435,11.4076087 2.74891304,11.4326087 3.01304348,11.4326087 C3.38804348,11.4326087 3.75108696,11.3836957 4.09456522,11.2902174 C2.2173913,10.9119565 0.80326087,9.25434783 0.80326087,7.26521739 L0.80326087,7.21413043 C1.35652174,7.52173913 1.99021739,7.70652174 2.66195652,7.72826087 C1.56086957,6.99130435 0.835869565,5.73695652 0.835869565,4.31195652 C0.835869565,3.56086957 1.03804348,2.85543478 1.3923913,2.24891304 C3.41521739,4.7326087 6.44021739,6.36521739 9.85,6.53695652 C9.78043478,6.23586957 9.74456522,5.92391304 9.74456522,5.60108696 C9.74456522,3.33586957 11.5804348,1.5 13.8467391,1.5 C15.0271739,1.5 16.0934783,1.99673913 16.8423913,2.79456522 C17.776087,2.60978261 18.6543478,2.26847826 19.4478261,1.79891304 C19.1413043,2.75652174 18.4902174,3.56086957 17.6434783,4.06847826 C18.473913,3.96847826 19.2630435,3.75 20,3.42282609 C19.45,4.24673913 18.7543478,4.96847826 17.9521739,5.54565217 L17.9521739,5.54565217 Z" id="Shape" fill="#FFFFFF"></path>
            <g id="Wallet" transform="translate(5.000000, 23.000000)">
                <path d="M1.5,65.013949 C1.5,67.3321236 3.38353461,69.2178683 5.70142833,69.2178683 L61.3397838,69.2178683 C63.6639421,69.2178683 65.5412121,67.338324 65.5412121,65.013949 L65.5412121,18.5847971 C65.5412121,16.2666225 63.6576775,14.3808777 61.3397838,14.3808777 L5.70142833,14.3808777 C3.37727002,14.3808777 1.5,16.2604221 1.5,18.5847971 L1.5,65.013949 Z M5.70142833,12.8808777 L61.3397838,12.8808777 C64.4885957,12.8808777 67.0412121,15.4406884 67.0412121,18.5847971 L67.0412121,65.013949 C67.0412121,68.1641367 64.4949815,70.7178683 61.3397838,70.7178683 L5.70142833,70.7178683 C2.55261641,70.7178683 0,68.1580577 0,65.013949 L0,18.5847971 C0,15.4346094 2.54623058,12.8808777 5.70142833,12.8808777 Z" id="Rectangle-4" fill="#4A4A4A"></path>
                <g id="Rectangle-6" transform="translate(15.641184, 0.000000)">
                    <path d="M14.590048,43.0558747 C15.2241632,44.1541945 16.6294805,44.5280981 17.7343405,43.8902069 L45.8445442,27.6607732 C46.9522675,27.0212288 47.3288814,25.6199784 46.6941376,24.5205699 L34.2944794,3.04373182 C33.6603641,1.94541202 32.2550469,1.5715084 31.1501868,2.20939964 L3.03998315,18.4388333 C1.93225982,19.0783777 1.55564597,20.4796281 2.19038976,21.5790366 L14.590048,43.0558747 Z M2.28998315,17.1397952 L30.4001868,0.910361534 C32.2205069,-0.14060075 34.5440458,0.475993557 35.5935175,2.29373182 L47.9931757,23.7705699 C49.0410529,25.5855465 48.4215816,27.9049708 46.5945442,28.9598113 L18.4843405,45.189245 C16.6640204,46.2402072 14.3404816,45.6236129 13.2910099,43.8058747 L0.89135165,22.3290366 C-0.156525577,20.51406 0.462945757,18.1946357 2.28998315,17.1397952 Z" id="Mask" fill="#4A4A4A"></path>
                    <path d="M14.590048,43.0558747 C15.2241632,44.1541945 16.6294805,44.5280981 17.7343405,43.8902069 L45.8445442,27.6607732 C46.9522675,27.0212288 47.3288814,25.6199784 46.6941376,24.5205699 L34.2944794,3.04373182 C33.6603641,1.94541202 32.2550469,1.5715084 31.1501868,2.20939964 L3.03998315,18.4388333 C1.93225982,19.0783777 1.55564597,20.4796281 2.19038976,21.5790366 L14.590048,43.0558747 Z" id="Path" fill="#FFFFFF"></path>
                </g>
                <rect id="Rectangle-6" fill="#FFFFFF" x="11.5588297" y="19.8213166" width="53.9412052" height="29.3040752"></rect>
                <polygon id="Line" fill="#4A4A4A" points="65.7150015 20.25 66.4650015 20.25 66.4650015 18.75 65.7150015 18.75 5.98863114 18.75 5.23863114 18.75 5.23863114 20.25 5.98863114 20.25"></polygon>
                <path d="M44.0139394,51.6551394 C44.0139394,52.9198327 45.0492281,53.9545455 46.3207884,53.9545455 L66.5046661,53.9545455 C67.7837337,53.9545455 68.8115152,52.9274006 68.8115152,51.6551394 L68.8115152,38.7994061 C68.8115152,37.5347128 67.7762264,36.5 66.5046661,36.5 L46.3207884,36.5 C45.0417209,36.5 44.0139394,37.5271448 44.0139394,38.7994061 L44.0139394,51.6551394 Z M46.3207884,35 L66.5046661,35 C68.6071308,35 70.3115152,36.7087613 70.3115152,38.7994061 L70.3115152,51.6551394 C70.3115152,53.7534934 68.6144968,55.4545455 66.5046661,55.4545455 L46.3207884,55.4545455 C44.2183238,55.4545455 42.5139394,53.7457842 42.5139394,51.6551394 L42.5139394,38.7994061 C42.5139394,36.701052 44.2109577,35 46.3207884,35 Z" id="Rectangle-10" fill="#4A4A4A"></path>
                <path d="M44.0139394,51.6551394 C44.0139394,52.9198327 45.0492281,53.9545455 46.3207884,53.9545455 L66.5046661,53.9545455 C67.7837337,53.9545455 68.8115152,52.9274006 68.8115152,51.6551394 L68.8115152,38.7994061 C68.8115152,37.5347128 67.7762264,36.5 66.5046661,36.5 L46.3207884,36.5 C45.0417209,36.5 44.0139394,37.5271448 44.0139394,38.7994061 L44.0139394,51.6551394 Z" id="Path" fill="#FFFFFF"></path>
                <ellipse id="Oval-2" fill="#4A4A4A" cx="54.3687879" cy="45.2272727" rx="3.67909091" ry="3.68181818"></ellipse>
            </g>
            <g id="hard-token" transform="translate(78.000000, 19.000000)">
                <rect id="Rectangle-9" fill-opacity="0" fill="#D8D8D8" x="0" y="0" width="81.7971014" height="82"></rect>
                <path d="M59.4432367,4.36764706 C62.7776405,4.36764706 65.5096618,7.10644525 65.5096618,10.4509804 L65.5096618,71.9509804 C65.5096618,75.2955155 62.7776405,78.0343137 59.4432367,78.0343137 L23.6570048,78.0343137 C20.3226011,78.0343137 17.5905797,75.2955155 17.5905797,71.9509804 L17.5905797,10.4509804 C17.5905797,7.10644525 20.3226011,4.36764706 23.6570048,4.36764706 L59.4432367,4.36764706 Z M16.0905797,10.4509804 L16.0905797,71.9509804 C16.0905797,76.1231119 19.4933409,79.5343137 23.6570048,79.5343137 L59.4432367,79.5343137 C63.6069006,79.5343137 67.0096618,76.1231119 67.0096618,71.9509804 L67.0096618,10.4509804 C67.0096618,6.27884887 63.6069006,2.86764706 59.4432367,2.86764706 L23.6570048,2.86764706 C19.4933409,2.86764706 16.0905797,6.27884887 16.0905797,10.4509804 Z" id="Shape" fill="#4A4A4A"></path>
                <path d="M29.5211353,33.7647059 C27.1353865,33.7647059 25.2608696,35.6438725 25.2608696,38.0355392 C25.2608696,40.4272059 27.1353865,42.3063725 29.5211353,42.3063725 C31.9068841,42.3063725 33.781401,40.4272059 33.781401,38.0355392 C33.781401,35.6438725 32.0772947,33.7647059 29.5211353,33.7647059 Z M41.5501208,33.7647059 C39.164372,33.7647059 37.2898551,35.6438725 37.2898551,38.0355392 C37.2898551,40.4272059 39.164372,42.3063725 41.5501208,42.3063725 C43.9358696,42.3063725 45.8103865,40.4272059 45.8103865,38.0355392 C45.8103865,35.6438725 44.1062802,33.7647059 41.5501208,33.7647059 Z M53.5791063,33.7647059 C51.1933575,33.7647059 49.3188406,35.6438725 49.3188406,38.0355392 C49.3188406,40.4272059 51.1933575,42.3063725 53.5791063,42.3063725 C55.9648551,42.3063725 57.839372,40.4272059 57.839372,38.0355392 C57.839372,35.6438725 56.1352657,33.7647059 53.5791063,33.7647059 Z M29.5211353,45.8235294 C27.1353865,45.8235294 25.2608696,47.7026961 25.2608696,50.0943627 C25.2608696,52.4860294 27.1353865,54.3651961 29.5211353,54.3651961 C31.9068841,54.3651961 33.781401,52.4860294 33.781401,50.0943627 C33.781401,47.7026961 32.0772947,45.8235294 29.5211353,45.8235294 Z M41.5501208,45.8235294 C39.164372,45.8235294 37.2898551,47.7026961 37.2898551,50.0943627 C37.2898551,52.4860294 39.164372,54.3651961 41.5501208,54.3651961 C43.9358696,54.3651961 45.8103865,52.4860294 45.8103865,50.0943627 C45.8103865,47.7026961 44.1062802,45.8235294 41.5501208,45.8235294 Z M53.5791063,45.8235294 C51.1933575,45.8235294 49.3188406,47.7026961 49.3188406,50.0943627 C49.3188406,52.4860294 51.1933575,54.3651961 53.5791063,54.3651961 C55.9648551,54.3651961 57.839372,52.4860294 57.839372,50.0943627 C57.839372,47.7026961 56.1352657,45.8235294 53.5791063,45.8235294 Z M29.5211353,57.8823529 C27.1353865,57.8823529 25.2608696,59.7615196 25.2608696,62.1531863 C25.2608696,64.5448529 27.1353865,66.4240196 29.5211353,66.4240196 C31.9068841,66.4240196 33.781401,64.5448529 33.781401,62.1531863 C33.781401,59.7615196 32.0772947,57.8823529 29.5211353,57.8823529 Z M41.5501208,57.8823529 C39.164372,57.8823529 37.2898551,59.7615196 37.2898551,62.1531863 C37.2898551,64.5448529 39.164372,66.4240196 41.5501208,66.4240196 C43.9358696,66.4240196 45.8103865,64.5448529 45.8103865,62.1531863 C45.8103865,59.7615196 44.1062802,57.8823529 41.5501208,57.8823529 Z M53.5791063,57.8823529 C51.1933575,57.8823529 49.3188406,59.7615196 49.3188406,62.1531863 C49.3188406,64.5448529 51.1933575,66.4240196 53.5791063,66.4240196 C55.9648551,66.4240196 57.839372,64.5448529 57.839372,62.1531863 C57.839372,59.7615196 56.1352657,57.8823529 53.5791063,57.8823529 Z" id="Combined-Shape" fill="#4A4A4A"></path>
                <path d="M55.9347826,14.0147059 C56.5426163,14.0147059 56.8888889,14.3618374 56.8888889,14.9730392 L56.8888889,21.8063725 C56.8888889,22.4175744 56.5426163,22.7647059 55.9347826,22.7647059 L26.9649758,22.7647059 C26.3571422,22.7647059 26.0108696,22.4175744 26.0108696,21.8063725 L26.0108696,14.9730392 C26.0108696,14.3618374 26.3571422,14.0147059 26.9649758,14.0147059 L55.9347826,14.0147059 Z M24.5108696,14.9730392 L24.5108696,21.8063725 C24.5108696,23.2451707 25.527882,24.2647059 26.9649758,24.2647059 L55.9347826,24.2647059 C57.3718765,24.2647059 58.3888889,23.2451707 58.3888889,21.8063725 L58.3888889,14.9730392 C58.3888889,13.534241 57.3718765,12.5147059 55.9347826,12.5147059 L26.9649758,12.5147059 C25.527882,12.5147059 24.5108696,13.534241 24.5108696,14.9730392 Z" id="Shape" fill="#4A4A4A"></path>
                <polygon id="Line" fill="#4A4A4A" points="4.06924219 78.0713687 3.53891211 78.6016988 4.59957228 79.6623589 5.12990237 79.1320288 80.1332858 4.12864538 80.6636159 3.5983153 79.6029557 2.53765513 79.0726257 3.06798521"></polygon>
            </g>
            <g id="VA-icon" transform="translate(183.000000, 46.000000)" fill="#4A4A4A">
                <circle id="Oval-67" cx="4.5862069" cy="4.62068966" r="3.72413793"></circle>
                <ellipse id="Oval-67-Copy" cx="31.8965517" cy="4.62068966" rx="3.72413793" ry="3.72413793"></ellipse>
                <path d="M17.5194793,24.9148398 C23.0042382,24.9148398 29.9332732,19.9493227 27.4505142,18.7079434 C24.9677552,17.4665641 23.0042386,20.2510913 17.5194797,20.2510913 C12.0347208,20.2510913 10.0712039,17.1647957 7.58844524,18.7079434 C5.10568654,20.2510912 12.0347204,24.9148398 17.5194793,24.9148398 Z" id="Oval-69"></path>
            </g>
            <path d="M220.612136,83.8922253 L221.040767,83.1206897 L221.923372,83.1206897 L230.994264,83.1206897 C232.928201,83.1206897 234.5,81.5514578 234.5,79.6286696 L234.5,34.9920201 C234.5,33.0614679 232.935835,31.5 230.994264,31.5 L169.005736,31.5 C167.071799,31.5 165.5,33.0692318 165.5,34.9920201 L165.5,79.6286696 C165.5,81.5592218 167.064165,83.1206897 169.005736,83.1206897 L210.35249,83.1206897 L211.235095,83.1206897 L211.663726,83.8922253 L216.475077,92.5526572 C216.442505,92.4940269 215.833698,92.4934126 215.800785,92.5526572 L220.612136,83.8922253 Z M217.112021,93.2811216 C216.572466,94.2523204 215.701816,94.2494762 215.163842,93.2811216 L210.35249,84.6206897 L169.005736,84.6206897 C166.233769,84.6206897 164,82.3856861 164,79.6286696 L164,34.9920201 C164,32.2430262 166.241144,30 169.005736,30 L230.994264,30 C233.766231,30 236,32.2350035 236,34.9920201 L236,79.6286696 C236,82.3776635 233.758856,84.6206897 230.994264,84.6206897 L221.923372,84.6206897 L217.112021,93.2811216 Z" id="Combined-Shape" fill="#4A4A4A"></path>
            <g id="Pie" transform="translate(244.000000, 25.000000)" fill="#4A4A4A">
                <path d="M40.375,30.2435294 L40.375,0 C55.8035714,0.289411765 70.2035714,11.5764706 72.2607143,27.2047059 C72.7015306,29.9541176 72.8484694,33.4270588 72.5545918,36.0317647 L40.375,30.2435294 L40.375,30.2435294 Z" id="Shape"></path>
                <path d="M32.8857143,68.6668121 C15.8060455,68.6668121 1.75,54.3835211 1.75,37.2921063 C1.75,20.4879062 14.9307756,6.77186612 31.7289762,6.35128306 L30.9602041,5.60151803 L30.9602041,37.4368121 L30.9602041,38.068199 L31.5823488,38.1758338 L64.202757,43.8193632 L63.5885287,42.9716587 C61.4265786,57.7333971 48.4456338,68.6668121 32.8857143,68.6668121 Z M65.1786009,42.4659073 L64.4584675,42.3413199 L31.8380593,36.6977905 L32.4602041,37.4368121 L32.4602041,5.60151803 L32.4602041,4.83250495 L31.6914319,4.85175299 C14.0747326,5.29282912 0.25,19.6789769 0.25,37.2921063 C0.25,55.2066112 14.9721858,70.1668121 32.8857143,70.1668121 C49.1821213,70.1668121 62.8016712,58.6955213 65.0726958,43.1890244 L65.1786009,42.4659073 Z" id="Shape"></path>
            </g>
            <path d="M60.395396,2.27707221 C59.9188611,1.80335649 59.9171184,1.03171934 60.3948073,0.556856482 L60.5983895,0.35447873 C61.07206,-0.116389479 61.8508288,-0.120122124 62.3288428,0.355063933 L70,7.98083768 L68.0665532,9.90284596 L62.3048323,15.630277 C61.8093005,16.1228771 61.0070704,16.1240557 60.5089923,15.6289243 L60.3731766,15.4939121 C59.8768933,15.0005649 59.8747789,14.202793 60.3718158,13.7086966 L66.1334348,7.98116405 L60.395396,2.27707221 Z" id="Rectangle-7" fill="#FFFFFF"></path>
            <path d="M70.395396,2.27707221 C69.9188611,1.80335649 69.9171184,1.03171934 70.3948073,0.556856482 L70.5983895,0.35447873 C71.07206,-0.116389479 71.8508288,-0.120122124 72.3288428,0.355063933 L80,7.98083768 L78.0665532,9.90284596 L72.3048323,15.630277 C71.8093005,16.1228771 71.0070704,16.1240557 70.5089923,15.6289243 L70.3731766,15.4939121 C69.8768933,15.0005649 69.8747789,14.202793 70.3718158,13.7086966 L76.1334348,7.98116405 L70.395396,2.27707221 Z" id="Rectangle-7" fill="#ED2D23"></path>
            <path d="M114.722928,0.395396018 C115.196644,-0.0811389398 115.968281,-0.0828815884 116.443144,0.394807333 L116.645521,0.598389501 C117.116389,1.07206 117.120122,1.85082875 116.644936,2.32884279 L109.019162,10 L107.097154,8.06655322 L101.369723,2.30483226 C100.877123,1.8093005 100.875944,1.0070704 101.371076,0.508992278 L101.506088,0.373176609 C101.999435,-0.123106672 102.797207,-0.125221107 103.291303,0.371815847 L109.018836,6.13343476 L114.722928,0.395396018 L114.722928,0.395396018 Z" id="Rectangle-7" fill="#C6C6C6"></path>
            <path d="M84.048599,4.81859211 C84.3024732,5.06046929 84.6975265,5.0604693 84.9514008,4.81859212 L88.7913991,1.16005713 C89.0573211,0.906701592 89.0707943,0.482238738 88.8214925,0.211992812 C88.5721907,-0.0582531147 88.1545193,-0.0719454781 87.8885973,0.181410062 L84.048599,3.83994505 L84.9514008,3.83994506 L81.1114027,0.181410076 C80.8454808,-0.0719454722 80.4278093,-0.058253122 80.1785075,0.211992796 C79.9292057,0.482238715 79.9426789,0.90670157 80.2086009,1.16005712 L84.048599,4.81859211 Z" id="Path-3" fill="#000000"></path>
            <g id="Group-2" transform="translate(0.000000, 100.000000)" fill="#ED3422">
                <path d="M12,22.1871175 L8.78460969,24 L6.90644124,20.8223026 L3.21539031,20.7846097 L3.17769743,17.0935588 L-7.24420524e-14,15.2153903 L1.81288247,12 L-7.38298311e-14,8.78460969 L3.17769743,6.90644124 L3.21539031,3.21539031 L6.90644124,3.17769743 L8.78460969,8.43880521e-13 L12,1.81288247 L15.2153903,8.39772696e-13 L17.0935588,3.17769743 L20.7846097,3.21539031 L20.8223026,6.90644124 L24,8.78460969 L22.1871175,12 L24,15.2153903 L20.8223026,17.0935588 L20.7846097,20.7846097 L17.0935588,20.8223026 L15.2153903,24 L12,22.1871175 Z M12,14.8426535 L8.29179607,17.4126782 L9.59013679,13.0917854 L6,10.3592552 L10.5106226,10.2588213 L12,6 L13.4893774,10.2588213 L18,10.3592552 L14.4098632,13.0917854 L15.7082039,17.4126782 L12,14.8426535 Z" id="Combined-Shape"></path>
            </g>
            <path d="M130.05702,143.783398 C129.834222,143.671892 128.73883,143.132961 128.534588,143.058524 C128.330389,142.984172 128.181857,142.947061 128.033324,143.17003 C127.884792,143.393042 127.457795,143.894947 127.327819,144.04365 C127.197885,144.19231 127.067909,144.210994 126.845111,144.099403 C126.622313,143.987897 125.904408,143.752657 125.053405,142.993536 C124.391082,142.402743 123.943904,141.673165 123.813971,141.450111 C123.683994,141.227056 123.800075,141.106486 123.911624,140.995408 C124.011885,140.895531 124.134465,140.735156 124.245842,140.605051 C124.357263,140.47499 124.394374,140.381997 124.46864,140.233379 C124.542906,140.084633 124.505795,139.954571 124.450042,139.843066 C124.394374,139.73156 123.948778,138.634842 123.763134,138.18869 C123.582279,137.754296 123.398602,137.813127 123.261828,137.806244 C123.132023,137.799788 122.98332,137.798419 122.83483,137.798419 C122.686298,137.798419 122.444902,137.854172 122.240659,138.077184 C122.03646,138.300239 121.460887,138.839298 121.460887,139.935887 C121.460887,141.032605 122.259215,142.091997 122.370636,142.2407 C122.482056,142.389446 123.941681,144.63983 126.176759,145.604904 C126.708294,145.8345 127.12332,145.971574 127.446892,146.074229 C127.980607,146.24384 128.466308,146.219897 128.850208,146.162519 C129.278275,146.0986 130.168398,145.623588 130.354085,145.10317 C130.539728,144.582624 130.539728,144.136557 130.484018,144.04365 C130.428351,143.9507 130.279819,143.894947 130.05702,143.783398 M125.991757,149.334111 L125.988764,149.334111 C124.658859,149.333598 123.354479,148.976291 122.216588,148.301056 L121.945947,148.140424 L119.14094,148.876244 L119.889629,146.141355 L119.713434,145.860923 C118.971543,144.680961 118.57969,143.317151 118.580289,141.916743 C118.581914,137.830486 121.906655,134.506001 125.994707,134.506001 C127.974279,134.506686 129.835077,135.27859 131.234417,136.679512 C132.633671,138.080348 133.403823,139.942429 133.403054,141.922728 C133.401386,146.009327 130.076688,149.334111 125.991757,149.334111 M132.299367,135.615032 C130.615876,133.929574 128.377035,133.000971 125.991671,132.999987 C121.076816,132.999987 117.076712,136.999835 117.074745,141.916187 C117.074104,143.487788 117.484683,145.021721 118.265011,146.37403 L117.000009,150.994643 L121.726954,149.754695 C123.029367,150.465075 124.495747,150.839526 125.988123,150.839997 L125.991757,150.839997 L125.9918,150.839997 C130.906142,150.839997 134.906588,146.839764 134.908598,141.923327 C134.909495,139.540743 133.982859,137.300448 132.299367,135.615032" id="Fill-1" fill="#979797"></path>
            <path d="M130.05702,179.783398 C129.834222,179.671892 128.73883,179.132961 128.534588,179.058524 C128.330389,178.984172 128.181857,178.947061 128.033324,179.17003 C127.884792,179.393042 127.457795,179.894947 127.327819,180.04365 C127.197885,180.19231 127.067909,180.210994 126.845111,180.099403 C126.622313,179.987897 125.904408,179.752657 125.053405,178.993536 C124.391082,178.402743 123.943904,177.673165 123.813971,177.450111 C123.683994,177.227056 123.800075,177.106486 123.911624,176.995408 C124.011885,176.895531 124.134465,176.735156 124.245842,176.605051 C124.357263,176.47499 124.394374,176.381997 124.46864,176.233379 C124.542906,176.084633 124.505795,175.954571 124.450042,175.843066 C124.394374,175.73156 123.948778,174.634842 123.763134,174.18869 C123.582279,173.754296 123.398602,173.813127 123.261828,173.806244 C123.132023,173.799788 122.98332,173.798419 122.83483,173.798419 C122.686298,173.798419 122.444902,173.854172 122.240659,174.077184 C122.03646,174.300239 121.460887,174.839298 121.460887,175.935887 C121.460887,177.032605 122.259215,178.091997 122.370636,178.2407 C122.482056,178.389446 123.941681,180.63983 126.176759,181.604904 C126.708294,181.8345 127.12332,181.971574 127.446892,182.074229 C127.980607,182.24384 128.466308,182.219897 128.850208,182.162519 C129.278275,182.0986 130.168398,181.623588 130.354085,181.10317 C130.539728,180.582624 130.539728,180.136557 130.484018,180.04365 C130.428351,179.9507 130.279819,179.894947 130.05702,179.783398 M125.991757,185.334111 L125.988764,185.334111 C124.658859,185.333598 123.354479,184.976291 122.216588,184.301056 L121.945947,184.140424 L119.14094,184.876244 L119.889629,182.141355 L119.713434,181.860923 C118.971543,180.680961 118.57969,179.317151 118.580289,177.916743 C118.581914,173.830486 121.906655,170.506001 125.994707,170.506001 C127.974279,170.506686 129.835077,171.27859 131.234417,172.679512 C132.633671,174.080348 133.403823,175.942429 133.403054,177.922728 C133.401386,182.009327 130.076688,185.334111 125.991757,185.334111 M132.299367,171.615032 C130.615876,169.929574 128.377035,169.000971 125.991671,168.999987 C121.076816,168.999987 117.076712,172.999835 117.074745,177.916187 C117.074104,179.487788 117.484683,181.021721 118.265011,182.37403 L117.000009,186.994643 L121.726954,185.754695 C123.029367,186.465075 124.495747,186.839526 125.988123,186.839997 L125.991757,186.839997 L125.9918,186.839997 C130.906142,186.839997 134.906588,182.839764 134.908598,177.923327 C134.909495,175.540743 133.982859,173.300448 132.299367,171.615032" id="Fill-1" fill="#FFFFFF"></path>
            <path d="M98.5786164,140.742138 L98.5786164,138.320755 L96.8490566,138.320755 L96.8490566,140.742138 L94.3584906,140.742138 L94.3584906,142.471698 L96.8490566,142.471698 L96.8490566,144.962264 L98.5786164,144.962264 L98.5786164,142.471698 L101,142.471698 L101,140.742138 L98.5786164,140.742138 Z M85.9874214,140.603774 L85.9874214,143.371069 C85.9874214,143.371069 88.6719748,143.367472 89.7650566,143.367472 C89.1731321,145.16144 88.2527296,146.138365 85.9874214,146.138365 C83.6949245,146.138365 81.9056604,144.279918 81.9056604,141.987421 C81.9056604,139.694925 83.6949245,137.836478 85.9874214,137.836478 C87.1994969,137.836478 87.9822956,138.262503 88.7003396,138.856296 C89.2751069,138.281528 89.2270943,138.199616 90.6894025,136.818667 C89.4480629,135.68878 87.7982013,135 85.9874214,135 C82.1283585,135 79,138.128358 79,141.987421 C79,145.846415 82.1283585,148.974843 85.9874214,148.974843 C91.7556415,148.974843 93.1655094,143.952201 92.6981132,140.603774 L85.9874214,140.603774 Z" id="Page-1" fill="#969696"></path>
            <path d="M98.5786164,176.742138 L98.5786164,174.320755 L96.8490566,174.320755 L96.8490566,176.742138 L94.3584906,176.742138 L94.3584906,178.471698 L96.8490566,178.471698 L96.8490566,180.962264 L98.5786164,180.962264 L98.5786164,178.471698 L101,178.471698 L101,176.742138 L98.5786164,176.742138 Z M85.9874214,176.603774 L85.9874214,179.371069 C85.9874214,179.371069 88.6719748,179.367472 89.7650566,179.367472 C89.1731321,181.16144 88.2527296,182.138365 85.9874214,182.138365 C83.6949245,182.138365 81.9056604,180.279918 81.9056604,177.987421 C81.9056604,175.694925 83.6949245,173.836478 85.9874214,173.836478 C87.1994969,173.836478 87.9822956,174.262503 88.7003396,174.856296 C89.2751069,174.281528 89.2270943,174.199616 90.6894025,172.818667 C89.4480629,171.68878 87.7982013,171 85.9874214,171 C82.1283585,171 79,174.128358 79,177.987421 C79,181.846415 82.1283585,184.974843 85.9874214,184.974843 C91.7556415,184.974843 93.1655094,179.952201 92.6981132,176.603774 L85.9874214,176.603774 Z" id="Page-1" fill="#FFFFFF"></path>
            <path d="M61.1569565,139.141087 C61.1647826,139.299565 61.1677174,139.46 61.1677174,139.618478 C61.1677174,144.5 57.4532609,150.126957 50.6611957,150.126957 C48.5745652,150.126957 46.6346739,149.515543 45,148.466848 C45.2895652,148.501087 45.5830435,148.518696 45.8804348,148.518696 C47.6119565,148.518696 49.203587,147.927826 50.4665217,146.938804 C48.851413,146.908478 47.4867391,145.842174 47.0171739,144.374783 C47.2421739,144.416848 47.4740217,144.439348 47.7117391,144.439348 C48.0492391,144.439348 48.3759783,144.395326 48.6851087,144.311196 C46.9956522,143.970761 45.7229348,142.478913 45.7229348,140.688696 L45.7229348,140.642717 C46.2208696,140.919565 46.7911957,141.08587 47.3957609,141.105435 C46.4047826,140.442174 45.7522826,139.313261 45.7522826,138.030761 C45.7522826,137.354783 45.9342391,136.719891 46.2531522,136.174022 C48.0736957,138.409348 50.7961957,139.878696 53.865,140.033261 C53.8023913,139.762283 53.7701087,139.481522 53.7701087,139.190978 C53.7701087,137.152283 55.4223913,135.5 57.4620652,135.5 C58.5244565,135.5 59.4841304,135.947065 60.1581522,136.665109 C60.9984783,136.498804 61.788913,136.19163 62.5030435,135.769022 C62.2271739,136.63087 61.6411957,137.354783 60.8791304,137.81163 C61.6265217,137.72163 62.3367391,137.525 63,137.230543 C62.505,137.972065 61.878913,138.62163 61.1569565,139.141087 L61.1569565,139.141087 Z" id="Shape" fill="#979797"></path>
            <path d="M61.1569565,175.141087 C61.1647826,175.299565 61.1677174,175.46 61.1677174,175.618478 C61.1677174,180.5 57.4532609,186.126957 50.6611957,186.126957 C48.5745652,186.126957 46.6346739,185.515543 45,184.466848 C45.2895652,184.501087 45.5830435,184.518696 45.8804348,184.518696 C47.6119565,184.518696 49.203587,183.927826 50.4665217,182.938804 C48.851413,182.908478 47.4867391,181.842174 47.0171739,180.374783 C47.2421739,180.416848 47.4740217,180.439348 47.7117391,180.439348 C48.0492391,180.439348 48.3759783,180.395326 48.6851087,180.311196 C46.9956522,179.970761 45.7229348,178.478913 45.7229348,176.688696 L45.7229348,176.642717 C46.2208696,176.919565 46.7911957,177.08587 47.3957609,177.105435 C46.4047826,176.442174 45.7522826,175.313261 45.7522826,174.030761 C45.7522826,173.354783 45.9342391,172.719891 46.2531522,172.174022 C48.0736957,174.409348 50.7961957,175.878696 53.865,176.033261 C53.8023913,175.762283 53.7701087,175.481522 53.7701087,175.190978 C53.7701087,173.152283 55.4223913,171.5 57.4620652,171.5 C58.5244565,171.5 59.4841304,171.947065 60.1581522,172.665109 C60.9984783,172.498804 61.788913,172.19163 62.5030435,171.769022 C62.2271739,172.63087 61.6411957,173.354783 60.8791304,173.81163 C61.6265217,173.72163 62.3367391,173.525 63,173.230543 C62.505,173.972065 61.878913,174.62163 61.1569565,175.141087 L61.1569565,175.141087 Z" id="Shape" fill="#FFFFFF"></path>
            <path d="M22.498021,136.128834 L19.6422917,136.128834 C19.3038789,136.128834 18.9278646,136.574114 18.9278646,137.165842 L18.9278646,139.227983 L22.5,139.227983 L21.9597269,142.168811 L18.9278646,142.168811 L18.9278646,150.997229 L15.5575896,150.997229 L15.5575896,142.168811 L12.5,142.168811 L12.5,139.227983 L15.5575896,139.227983 L15.5575896,137.498318 C15.5575896,135.016624 17.279339,133 19.6422917,133 L22.498021,133 L22.498021,136.128834 L22.498021,136.128834 Z" id="Shape" fill="#979797"></path>
            <path d="M22.498021,172.128834 L19.6422917,172.128834 C19.3038789,172.128834 18.9278646,172.574114 18.9278646,173.165842 L18.9278646,175.227983 L22.5,175.227983 L21.9597269,178.168811 L18.9278646,178.168811 L18.9278646,186.997229 L15.5575896,186.997229 L15.5575896,178.168811 L12.5,178.168811 L12.5,175.227983 L15.5575896,175.227983 L15.5575896,173.498318 C15.5575896,171.016624 17.279339,169 19.6422917,169 L22.498021,169 L22.498021,172.128834 L22.498021,172.128834 Z" id="Shape" fill="#FFFFFF"></path>
            <path d="M19.3521887,212.555725 C18.8610135,212.109096 18.7355821,211.389331 19.0450577,210.802031 C19.9746565,209.037786 20.3966686,206.964065 20.118844,204.775463 C19.5655393,200.428739 16.136691,196.849842 11.8122393,196.140627 C4.90296354,195.007056 -0.987621928,200.892952 0.138915908,207.802228 C0.843441652,212.120818 4.40944384,215.549667 8.75030712,216.114694 C10.9342197,216.39838 13.0044235,215.982229 14.7686685,215.059664 C15.3501073,214.756049 16.0604944,214.879136 16.5059516,215.360933 L21.9686637,221.258552 C22.9228799,222.288965 24.6285121,222.213941 25.5276323,221.086231 C26.3036657,220.112086 26.0832816,218.670212 25.1607163,217.833221 L19.3521887,212.555725 Z M2.60065312,206.101285 C2.60065312,201.958533 5.95916602,198.601192 10.1019181,198.601192 C14.2434979,198.601192 17.6020108,201.958533 17.6020108,206.101285 C17.6020108,210.244037 14.2434979,213.601377 10.1019181,213.601377 C5.95916602,213.601377 2.60065312,210.244037 2.60065312,206.101285 L2.60065312,206.101285 Z" id="search" fill="#5C5C5C"></path>
            <path d="M40.3115252,266.793288 C40.3115252,266.793288 38.286877,264.8153 35.9895537,264.8153 C33.6966049,264.8153 31.6588332,266.793288 31.6588332,266.793288 L16.6216094,279.388831 L29.2025711,264.327548 C29.2025711,264.327548 31.186391,262.299254 31.186391,260.005576 C31.186391,257.717002 29.2025711,255.674127 29.2025711,255.674127 L16.6216094,240.644194 L31.6588332,253.217864 C31.6588332,253.217864 33.6966049,255.192935 35.9895537,255.192935 C38.286877,255.192935 40.3115252,253.217864 40.3115252,253.217864 L55.3604143,240.644194 L42.7809108,255.674127 C42.7809108,255.674127 40.7956327,257.717002 40.7956327,260.005576 C40.7956327,262.299254 42.7809108,264.327548 42.7809108,264.327548 L55.3662469,279.388831 L40.3115252,266.793288 Z M62.3442478,259.99464 L62.3442478,259.989536 C62.3442478,255.917638 62.5236009,252.275167 65.5361492,245.860014 C66.4241656,244.006699 68.3467431,241.27922 65.505528,238.110649 C63.2060175,235.823533 60.5550916,236.199737 58.781246,237.214613 C59.8026836,235.442954 60.1890947,232.819005 57.8932296,230.493976 C54.7166388,227.649116 51.9949925,229.582629 50.1431356,230.464084 C43.7104846,233.501421 40.0855112,233.662547 35.9895537,233.662547 C31.9067196,233.662547 28.2700809,233.501421 21.8512824,230.464084 C20.0030709,229.582629 17.2785083,227.649116 14.1033757,230.493976 C11.8089687,232.819005 12.1939216,235.442954 13.2160883,237.214613 C11.4334938,236.199737 8.80152394,235.823533 6.50055529,238.110649 C3.64548773,241.27922 5.58483393,244.006699 6.45535248,245.860014 C9.48102419,252.275167 9.63340139,255.903786 9.63340139,259.99464 C9.63340139,264.075287 9.48102419,267.725049 6.45535248,274.132911 C5.58483393,275.998621 3.64548773,278.717351 6.50055529,281.89467 C8.80152394,284.177412 11.4334938,283.808499 13.2160883,282.796539 C12.1939216,284.572572 11.8031361,287.184857 14.1033757,289.499678 C17.2785083,292.34308 20.0030709,290.412483 21.8512824,289.540506 C28.280288,286.511918 31.9067196,286.341314 35.9895537,286.341314 C40.0855112,286.341314 43.7352733,286.511918 50.1431356,289.540506 C51.9949925,290.412483 54.7166388,292.34308 57.8932296,289.499678 C60.1890947,287.184857 59.8026836,284.572572 58.781246,282.796539 C60.5550916,283.808499 63.2060175,284.192723 65.505528,281.89467 C68.3467431,278.717351 66.4241656,275.998621 65.5361492,274.14968 C62.5236009,267.725049 62.3442478,264.090597 62.3442478,259.99464 L62.3442478,259.99464 Z" id="Fill-1" fill="#ED2D23"></path>
            <g id="Group-3" transform="translate(61.000000, 300.000000)">
                <path d="M14,28 C6.2680135,28 0,21.7319865 0,14 C0,6.2680135 6.2680135,0 14,0 C21.7319865,0 28,6.2680135 28,14 C28,17.2221626 26.9114643,20.1900841 25.0820698,22.5560877 L25.0470429,26.8998504 C25.0415402,27.5822567 24.4914764,28.0240754 23.8264028,27.8883053 L19.2962832,26.9635134 C17.6624949,27.6316958 15.8742585,28 14,28 Z" id="Path" fill="#FFFFFF"></path>
                <polygon id="Triangle-53" fill="#FFFFFF" points="31 30 31 0 53 15"></polygon>
                <path d="M19.1012979,24.8824595 L19.6963185,25.0039288 L24.2264381,25.9287207 C23.6605808,25.8132049 23.0517749,26.3049636 23.047108,26.8837235 L23.0821349,22.5399607 L23.0875699,21.8659523 L23.499862,21.3327242 C25.1122474,19.2473841 26,16.6938944 26,14 C26,7.372583 20.627417,2 14,2 C7.372583,2 2,7.372583 2,14 C2,20.627417 7.372583,26 14,26 C15.5789232,26 17.112149,25.6959763 18.5391976,25.1123458 L19.1012979,24.8824595 Z M14,28 C6.2680135,28 0,21.7319865 0,14 C0,6.2680135 6.2680135,0 14,0 C21.7319865,0 28,6.2680135 28,14 C28,17.2221626 26.9114643,20.1900841 25.0820698,22.5560877 L25.0470429,26.8998504 C25.0415402,27.5822567 24.4914764,28.0240754 23.8264028,27.8883053 L19.2962832,26.9635134 C17.6624949,27.6316958 15.8742585,28 14,28 Z" id="Combined-Shape" fill="#F7A521"></path>
                <path d="M14.8014806,7 C13.8175798,7 13.2222222,7.90173196 13.2222222,8.69915681 C13.2222222,9.49658165 13.7194684,9.95454545 14.4012309,9.95454545 C15.0835507,9.95454545 16,9.34228118 16,8.29427237 C16,7.24626355 15.1459852,7 14.8014806,7 Z M15.9377114,17.5995573 C16.03336,17.7435681 16.0181432,17.9488727 15.8969521,18.0672948 C14.9111196,19.0295486 13.7557284,19.7216334 13.084558,19.9073002 C12.3655633,20.1060589 11.7884111,20.0429798 11.7318915,19.1372591 C11.6753719,18.2309434 12.640553,14.3539591 12.7025072,13.943945 C12.7546791,13.5982001 12.0623139,13.9564418 11.4889659,14.2896899 C11.3221244,14.3866889 11.1134366,14.3051621 11.0324613,14.1189002 C10.9645291,13.9635828 11.0058319,13.777321 11.1319141,13.673776 C12.1220942,12.8596986 13.3584607,12.0896575 14.4062473,11.7843785 C15.0083986,11.6088282 15.3551247,11.8236542 15.3757761,12.6294004 C15.3964275,13.4351466 14.4024431,17.119323 14.3252721,17.6156246 C14.2122329,18.3446048 14.9660089,17.8899592 15.512184,17.5120797 C15.653483,17.4144856 15.8388021,17.451976 15.9377114,17.5995573 Z" id="info" fill="#666666"></path>
            </g>
            <g id="Group" transform="translate(5.000000, 300.000000)" fill="#666666">
                <path d="M1.5,25.0035095 C1.5,25.8251018 2.17299842,26.5 2.99420208,26.5 L17.0057979,26.5 C17.8291722,26.5 18.5,25.829087 18.5,25.0035095 L18.5,2.99649048 C18.5,2.17489824 17.8270016,1.5 17.0057979,1.5 L2.99420208,1.5 C2.17082781,1.5 1.5,2.17091302 1.5,2.99649048 L1.5,25.0035095 Z M2.99420208,0 L17.0057979,0 C18.6594501,0 20,1.3504982 20,2.99649048 L20,25.0035095 C20,26.6584255 18.656688,28 17.0057979,28 L2.99420208,28 C1.34054993,28 0,26.6495018 0,25.0035095 L0,2.99649048 C0,1.34157448 1.34331197,0 2.99420208,0 Z" id="Rectangle-2"></path>
                <rect id="Rectangle-3" x="0" y="20" width="17" height="1.5" rx="0.75"></rect>
                <rect id="Rectangle-4" x="8" y="23" width="4" height="2" rx="1"></rect>
            </g>
            <g id="Group-13" transform="translate(33.000000, 305.000000)" fill="#666666">
                <path d="M1.5,15.0074602 C1.5,15.8243543 2.17327957,16.5 2.99109042,16.5 L21.0089096,16.5 C21.8307449,16.5 22.5,15.8308246 22.5,15.0074602 L22.5,2.99253976 C22.5,2.17564572 21.8267204,1.5 21.0089096,1.5 L2.99109042,1.5 C2.16925505,1.5 1.5,2.16917541 1.5,2.99253976 L1.5,15.0074602 Z M2.99109042,0 L21.0089096,0 C22.6608432,0 24,1.35292554 24,2.99253976 L24,15.0074602 C24,16.6601943 22.6582294,18 21.0089096,18 L2.99109042,18 C1.33915679,18 0,16.6470745 0,15.0074602 L0,2.99253976 C0,1.33980569 1.34177063,0 2.99109042,0 Z" id="Rectangle"></path>
                <path d="M9.93501014,8.99258604 C11.09157,9.8337205 12.9065206,9.83510917 14.0554406,8.99953099 L22.8457866,2.60655206 C23.180776,2.36292337 23.2548386,1.89386068 23.0112099,1.55887123 C22.7675812,1.22388177 22.2985185,1.14981924 21.963529,1.39344794 L13.173183,7.78642686 C12.550614,8.23920432 11.4482262,8.23836084 10.8172677,7.77948192 L4.32026003,3.05438544 C3.98527057,2.81075674 3.51620789,2.88481927 3.27257919,3.21980873 C3.0289505,3.55479818 3.10301303,4.02386087 3.43800248,4.26748956 L9.93501014,8.99258604 Z" id="Line"></path>
            </g>
            <g id="Group-18" transform="translate(73.000000, 225.000000)">
                <rect id="Rectangle-9" fill-opacity="0" fill="#D8D8D8" x="0" y="1" width="68" height="68"></rect>
                <path d="M49.4166667,4.5 C52.257191,4.5 54.5833333,6.82614237 54.5833333,9.66666667 L54.5833333,60.6666667 C54.5833333,63.507191 52.257191,65.8333333 49.4166667,65.8333333 L19.6666667,65.8333333 C16.8261424,65.8333333 14.5,63.507191 14.5,60.6666667 L14.5,9.66666667 C14.5,6.82614237 16.8261424,4.5 19.6666667,4.5 L49.4166667,4.5 Z M13.5,9.66666667 L13.5,60.6666667 C13.5,64.0594757 16.2738576,66.8333333 19.6666667,66.8333333 L49.4166667,66.8333333 C52.8094757,66.8333333 55.5833333,64.0594757 55.5833333,60.6666667 L55.5833333,9.66666667 C55.5833333,6.27385763 52.8094757,3.5 49.4166667,3.5 L19.6666667,3.5 C16.2738576,3.5 13.5,6.27385763 13.5,9.66666667 Z" id="Shape" fill="#4A4A4A"></path>
                <path d="M24.5416667,30.4166667 C25.8166667,30.4166667 26.6666667,31.4083333 26.6666667,32.5416667 C26.6666667,33.675 25.675,34.6666667 24.5416667,34.6666667 C23.4083333,34.6666667 22.4166667,33.675 22.4166667,32.5416667 C22.4166667,31.4083333 23.4083333,30.4166667 24.5416667,30.4166667 L24.5416667,30.4166667 Z M24.5416667,29 C22.5583333,29 21,30.5583333 21,32.5416667 C21,34.525 22.5583333,36.0833333 24.5416667,36.0833333 C26.525,36.0833333 28.0833333,34.525 28.0833333,32.5416667 C28.0833333,30.5583333 26.6666667,29 24.5416667,29 L24.5416667,29 L24.5416667,29 Z" id="Shape" fill="#4A4A4A"></path>
                <path d="M34.5416667,30.4166667 C35.8166667,30.4166667 36.6666667,31.4083333 36.6666667,32.5416667 C36.6666667,33.675 35.675,34.6666667 34.5416667,34.6666667 C33.4083333,34.6666667 32.4166667,33.675 32.4166667,32.5416667 C32.4166667,31.4083333 33.4083333,30.4166667 34.5416667,30.4166667 L34.5416667,30.4166667 Z M34.5416667,29 C32.5583333,29 31,30.5583333 31,32.5416667 C31,34.525 32.5583333,36.0833333 34.5416667,36.0833333 C36.525,36.0833333 38.0833333,34.525 38.0833333,32.5416667 C38.0833333,30.5583333 36.6666667,29 34.5416667,29 L34.5416667,29 L34.5416667,29 Z" id="Shape" fill="#4A4A4A"></path>
                <path d="M44.5416667,30.4166667 C45.8166667,30.4166667 46.6666667,31.4083333 46.6666667,32.5416667 C46.6666667,33.675 45.675,34.6666667 44.5416667,34.6666667 C43.4083333,34.6666667 42.4166667,33.675 42.4166667,32.5416667 C42.4166667,31.4083333 43.4083333,30.4166667 44.5416667,30.4166667 L44.5416667,30.4166667 Z M44.5416667,29 C42.5583333,29 41,30.5583333 41,32.5416667 C41,34.525 42.5583333,36.0833333 44.5416667,36.0833333 C46.525,36.0833333 48.0833333,34.525 48.0833333,32.5416667 C48.0833333,30.5583333 46.6666667,29 44.5416667,29 L44.5416667,29 L44.5416667,29 Z" id="Shape" fill="#4A4A4A"></path>
                <path d="M24.5416667,40.4166667 C25.8166667,40.4166667 26.6666667,41.4083333 26.6666667,42.5416667 C26.6666667,43.675 25.675,44.6666667 24.5416667,44.6666667 C23.4083333,44.6666667 22.4166667,43.675 22.4166667,42.5416667 C22.4166667,41.4083333 23.4083333,40.4166667 24.5416667,40.4166667 L24.5416667,40.4166667 Z M24.5416667,39 C22.5583333,39 21,40.5583333 21,42.5416667 C21,44.525 22.5583333,46.0833333 24.5416667,46.0833333 C26.525,46.0833333 28.0833333,44.525 28.0833333,42.5416667 C28.0833333,40.5583333 26.6666667,39 24.5416667,39 L24.5416667,39 L24.5416667,39 Z" id="Shape" fill="#4A4A4A"></path>
                <path d="M34.5416667,40.4166667 C35.8166667,40.4166667 36.6666667,41.4083333 36.6666667,42.5416667 C36.6666667,43.675 35.675,44.6666667 34.5416667,44.6666667 C33.4083333,44.6666667 32.4166667,43.675 32.4166667,42.5416667 C32.4166667,41.4083333 33.4083333,40.4166667 34.5416667,40.4166667 L34.5416667,40.4166667 Z M34.5416667,39 C32.5583333,39 31,40.5583333 31,42.5416667 C31,44.525 32.5583333,46.0833333 34.5416667,46.0833333 C36.525,46.0833333 38.0833333,44.525 38.0833333,42.5416667 C38.0833333,40.5583333 36.6666667,39 34.5416667,39 L34.5416667,39 L34.5416667,39 Z" id="Shape" fill="#4A4A4A"></path>
                <path d="M44.5416667,40.4166667 C45.8166667,40.4166667 46.6666667,41.4083333 46.6666667,42.5416667 C46.6666667,43.675 45.675,44.6666667 44.5416667,44.6666667 C43.4083333,44.6666667 42.4166667,43.675 42.4166667,42.5416667 C42.4166667,41.4083333 43.4083333,40.4166667 44.5416667,40.4166667 L44.5416667,40.4166667 Z M44.5416667,39 C42.5583333,39 41,40.5583333 41,42.5416667 C41,44.525 42.5583333,46.0833333 44.5416667,46.0833333 C46.525,46.0833333 48.0833333,44.525 48.0833333,42.5416667 C48.0833333,40.5583333 46.6666667,39 44.5416667,39 L44.5416667,39 L44.5416667,39 Z" id="Shape" fill="#4A4A4A"></path>
                <path d="M24.5416667,50.4166667 C25.8166667,50.4166667 26.6666667,51.4083333 26.6666667,52.5416667 C26.6666667,53.675 25.675,54.6666667 24.5416667,54.6666667 C23.4083333,54.6666667 22.4166667,53.675 22.4166667,52.5416667 C22.4166667,51.4083333 23.4083333,50.4166667 24.5416667,50.4166667 L24.5416667,50.4166667 Z M24.5416667,49 C22.5583333,49 21,50.5583333 21,52.5416667 C21,54.525 22.5583333,56.0833333 24.5416667,56.0833333 C26.525,56.0833333 28.0833333,54.525 28.0833333,52.5416667 C28.0833333,50.5583333 26.6666667,49 24.5416667,49 L24.5416667,49 L24.5416667,49 Z" id="Shape" fill="#4A4A4A"></path>
                <path d="M34.5416667,50.4166667 C35.8166667,50.4166667 36.6666667,51.4083333 36.6666667,52.5416667 C36.6666667,53.675 35.675,54.6666667 34.5416667,54.6666667 C33.4083333,54.6666667 32.4166667,53.675 32.4166667,52.5416667 C32.4166667,51.4083333 33.4083333,50.4166667 34.5416667,50.4166667 L34.5416667,50.4166667 Z M34.5416667,49 C32.5583333,49 31,50.5583333 31,52.5416667 C31,54.525 32.5583333,56.0833333 34.5416667,56.0833333 C36.525,56.0833333 38.0833333,54.525 38.0833333,52.5416667 C38.0833333,50.5583333 36.6666667,49 34.5416667,49 L34.5416667,49 L34.5416667,49 Z" id="Shape" fill="#4A4A4A"></path>
                <path d="M44.5416667,50.4166667 C45.8166667,50.4166667 46.6666667,51.4083333 46.6666667,52.5416667 C46.6666667,53.675 45.675,54.6666667 44.5416667,54.6666667 C43.4083333,54.6666667 42.4166667,53.675 42.4166667,52.5416667 C42.4166667,51.4083333 43.4083333,50.4166667 44.5416667,50.4166667 L44.5416667,50.4166667 Z M44.5416667,49 C42.5583333,49 41,50.5583333 41,52.5416667 C41,54.525 42.5583333,56.0833333 44.5416667,56.0833333 C46.525,56.0833333 48.0833333,54.525 48.0833333,52.5416667 C48.0833333,50.5583333 46.6666667,49 44.5416667,49 L44.5416667,49 L44.5416667,49 Z" id="Shape" fill="#4A4A4A"></path>
                <path d="M22.4166667,12 L46.5,12 C47.35,12 47.9166667,12.5666667 47.9166667,13.4166667 L47.9166667,19.0833333 C47.9166667,19.9333333 47.35,20.5 46.5,20.5 L22.4166667,20.5 C21.5666667,20.5 21,19.9333333 21,19.0833333 L21,13.4166667 C21,12.5666667 21.5666667,12 22.4166667,12 L22.4166667,12 Z" id="Shape" fill="#CCCCCC"></path>
                <path d="M46.5,12.5 C47.0738576,12.5 47.4166667,12.842809 47.4166667,13.4166667 L47.4166667,19.0833333 C47.4166667,19.657191 47.0738576,20 46.5,20 L22.4166667,20 C21.842809,20 21.5,19.657191 21.5,19.0833333 L21.5,13.4166667 C21.5,12.842809 21.842809,12.5 22.4166667,12.5 L46.5,12.5 Z M20.5,13.4166667 L20.5,19.0833333 C20.5,20.2094757 21.2905243,21 22.4166667,21 L46.5,21 C47.6261424,21 48.4166667,20.2094757 48.4166667,19.0833333 L48.4166667,13.4166667 C48.4166667,12.2905243 47.6261424,11.5 46.5,11.5 L22.4166667,11.5 C21.2905243,11.5 20.5,12.2905243 20.5,13.4166667 Z" id="Shape" fill="#4A4A4A"></path>
                <polygon id="Line" fill="#ED2D23" points="1.19152885 68.1013635 0.837975455 68.4549169 1.54508223 69.1620236 1.89863562 68.8084702 68.7673465 1.93976029 69.1208999 1.5862069 68.4137931 0.879100115 68.0602397 1.2326535"></polygon>
            </g>
            <path d="M45.3521887,212.555725 C44.8610135,212.109096 44.7355821,211.389331 45.0450577,210.802031 C45.9746565,209.037786 46.3966686,206.964065 46.118844,204.775463 C45.5655393,200.428739 42.136691,196.849842 37.8122393,196.140627 C30.9029635,195.007056 25.0123781,200.892952 26.1389159,207.802228 C26.8434417,212.120818 30.4094438,215.549667 34.7503071,216.114694 C36.9342197,216.39838 39.0044235,215.982229 40.7686685,215.059664 C41.3501073,214.756049 42.0604944,214.879136 42.5059516,215.360933 L47.9686637,221.258552 C48.9228799,222.288965 50.6285121,222.213941 51.5276323,221.086231 C52.3036657,220.112086 52.0832816,218.670212 51.1607163,217.833221 L45.3521887,212.555725 Z M28.6006531,206.101285 C28.6006531,201.958533 31.959166,198.601192 36.1019181,198.601192 C40.2434979,198.601192 43.6020108,201.958533 43.6020108,206.101285 C43.6020108,210.244037 40.2434979,213.601377 36.1019181,213.601377 C31.959166,213.601377 28.6006531,210.244037 28.6006531,206.101285 L28.6006531,206.101285 Z" id="search" fill="#FFFFFF"></path>
            <path d="M94.2990637,5.36935949 C94.6932783,5.73020898 95.3067149,5.73020899 95.7009296,5.36935951 L99.6760823,1.73065202 C100.089005,1.35267831 100.109926,0.7194346 99.7228113,0.316262615 C99.3356967,-0.0869093703 98.6871387,-0.107336606 98.2742165,0.270637106 L94.2990637,3.9093446 L95.7009296,3.90934462 L91.7257771,0.270637127 C91.3128548,-0.107336598 90.6642968,-0.0869093813 90.2771823,0.316262592 C89.8900677,0.719434565 89.9109889,1.35267827 90.3239111,1.730652 L94.2990637,5.36935949 Z" id="Path-3" fill="#ED2D23"></path>
        </g>
    </g>
</svg>